<?xml version="1.0" encoding="UTF-8"?>
<svg width="42px" height="42px" viewBox="0 0 42 42" version="1.1" xmlns="http://www.w3.org/2000/svg" xmlns:xlink="http://www.w3.org/1999/xlink">
    <!-- Generator: Sketch 50 (54983) - http://www.bohemiancoding.com/sketch -->
    <title>icon/gray/-g-icon_breathing_light</title>
    <desc>Created with Sketch.</desc>
    <defs></defs>
    <g id="icon/gray/-g-icon_breathing_light" stroke="none" stroke-width="1" fill="none" fill-rule="evenodd">
        <circle id="Oval-7-Copy-20" stroke="#9B9B9B" cx="21" cy="21" r="19.5"></circle>
        <path d="M26.6534771,6.00353655 C24.8895855,5.35467445 22.9804071,5 20.9872564,5 C19.0037018,5 17.1033129,5.35126746 15.3465229,5.99418503 M36.9977373,18.397823 C36.6777226,16.5458171 36.0302905,14.7150829 35.0337151,12.9889637 C34.0419378,11.271155 32.7875369,9.80100372 31.3523589,8.60103776 M31.3442603,33.3942865 C32.7881371,32.1911427 34.0498834,30.7150829 35.0464588,28.9889637 C36.038236,27.271155 36.6842239,25.4497363 37.005836,23.6068527 M15.3465229,35.9964634 C17.1104145,36.6453255 19.0195929,37 21.0127436,37 C22.9962982,37 24.8966871,36.6487325 26.6534771,36.005815 M5.00226268,23.602177 C5.32227738,25.4541829 5.96970951,27.2849171 6.96628488,29.0110363 C7.95806216,30.728845 9.21246315,32.1989963 10.6476411,33.3989622 M10.6557397,8.60571352 C9.21186292,9.80885734 7.95011662,11.2849171 6.95354125,13.0110363 C5.96176396,14.728845 5.31577606,16.5502637 4.99416402,18.3931473" id="Oval-7-Copy-20" stroke="#9B9B9B" stroke-width="1.06946725" transform="translate(21.000000, 21.000000) rotate(1.000000) translate(-21.000000, -21.000000) "></path>
        <path d="M25.9467924,7.87809448 C24.4033873,7.31034015 22.7328562,7 20.9888493,7 C19.2532391,7 17.5903988,7.30735903 16.0532076,7.8699119 M34.9980202,18.7230952 C34.7180073,17.10259 34.1515042,15.5006975 33.2795007,13.9903432 C32.4116956,12.4872607 31.3140947,11.2008783 30.0583141,10.150908 M30.0512277,31.8450007 C31.3146199,30.7922498 32.418648,29.5006975 33.2906514,27.9903432 C34.1584565,26.4872607 34.7236959,24.8935192 35.0051065,23.2809961 M16.0532076,34.1219055 C17.5966127,34.6896599 19.2671438,35 21.0111507,35 C22.7467609,35 24.4096012,34.692641 25.9467924,34.1300881 M7.00197984,23.2769048 C7.28199271,24.89741 7.84849582,26.4993025 8.72049927,28.0096568 C9.58830439,29.5127393 10.6859053,30.7991217 11.9416859,31.849092 M11.9487723,10.1549993 C10.6853801,11.2077502 9.58135204,12.4993025 8.70934859,14.0096568 C7.84154347,15.5127393 7.27630405,17.1064808 6.99489352,18.7190039" id="Oval-7-Copy-20" stroke="#9B9B9B" stroke-width="1.10876128" transform="translate(21.000000, 21.000000) rotate(1.000000) translate(-21.000000, -21.000000) "></path>
        <circle id="Oval-7-Copy-20" stroke="#9B9B9B" cx="21" cy="21" r="8.5"></circle>
    </g>
</svg>