<?xml version="1.0" encoding="UTF-8"?>
<svg width="66px" height="66px" viewBox="0 0 66 66" version="1.1" xmlns="http://www.w3.org/2000/svg" xmlns:xlink="http://www.w3.org/1999/xlink">
    <!-- Generator: Sketch 50 (54983) - http://www.bohemiancoding.com/sketch -->
    <title>-g-button_play</title>
    <desc>Created with Sketch.</desc>
    <defs></defs>
    <g id="Q1-Webpage" stroke="none" stroke-width="1" fill="none" fill-rule="evenodd">
        <g id="OMNIA_Q1_1440px_cn-Copy" transform="translate(-927.000000, -2507.000000)" stroke="#FFFFFF">
            <g id="Group-56" transform="translate(0.000000, 2240.000000)">
                <g id="button_play" transform="translate(927.000000, 267.000000)">
                    <g id="Group-9" transform="translate(3.000000, 3.000000)">
                        <circle id="Oval-3" stroke-width="2" fill-opacity="0.300498188" fill="#E0E0E0" cx="30" cy="30" r="30"></circle>
                        <path d="M24.5254434,19.280511 L24.5016892,40.5167863 L41.9847973,29.8986486 L24.5254434,19.280511 Z M24.5254434,17.7602407 C24.6521332,17.7602407 24.7867392,17.7800357 24.9292652,17.8196263 C25.0717913,17.8592168 25.1984792,17.9186018 25.3093328,17.9977829 L42.7924409,28.6159206 C43.0141481,28.7426104 43.188344,28.9207653 43.3150338,29.1503906 C43.4417236,29.3800159 43.5050676,29.6294328 43.5050676,29.8986486 C43.5050676,30.1678645 43.4417236,30.4172814 43.3150338,30.6469067 C43.188344,30.876532 43.0141481,31.0546869 42.7924409,31.1813767 L25.2855785,41.7995144 C25.174725,41.8786955 25.048037,41.9380805 24.905511,41.977671 C24.7629849,42.0172616 24.628379,42.0370566 24.5016892,42.0370566 C24.3749994,42.0370566 24.2483114,42.0212206 24.1216216,41.9895481 C23.9949318,41.9578757 23.8761619,41.9103677 23.7653083,41.8470228 C23.5119286,41.7044968 23.3179378,41.5144649 23.1833298,41.2769215 C23.0487219,41.039378 22.9814189,40.7860022 22.9814189,40.5167863 L23.0051731,19.280511 C23.0051731,19.0112951 23.0724761,18.7579193 23.207084,18.5203758 C23.341692,18.2828324 23.5356829,18.0928005 23.7890625,17.9502745 C23.8999161,17.8869296 24.018686,17.8394216 24.1453758,17.8077492 C24.2720657,17.7760767 24.3987536,17.7602407 24.5254434,17.7602407 Z" id="î±" fill="#FFFFFF"></path>
                    </g>
                </g>
            </g>
        </g>
    </g>
</svg>