<?xml version="1.0" encoding="utf-8"?>
<!-- Generator: Adobe Illustrator 22.1.0, SVG Export Plug-In . SVG Version: 6.00 Build 0)  -->
<svg version="1.1" id="Layer_1" xmlns="http://www.w3.org/2000/svg" xmlns:xlink="http://www.w3.org/1999/xlink" x="0px" y="0px"
	 viewBox="0 0 182 40" style="enable-background:new 0 0 182 40;" xml:space="preserve">
<style type="text/css">
	.st0{enable-background:new    ;}
	.st1{fill:#0075FF;}
</style>
<title>Group 2</title>
<desc>Created with Sketch.</desc>
<g id="OMNIA_Q1_1920px_cn" transform="translate(-488.000000, -5569.000000)">
	<g id="Group-2" transform="translate(487.000000, 5568.000000)">
		<g class="st0">
			<path class="st1" d="M69.4,20.7l-0.8,0.6c-0.3-0.5-0.6-1-0.9-1.5c-0.6,0.1-1.3,0.2-1.9,0.2v4.6c0,0.4,0.2,0.6,0.6,0.6H68
				c0.3,0,0.5-0.1,0.7-0.2c0.2-0.2,0.4-0.9,0.5-2l1,0.3c-0.1,1.4-0.3,2.2-0.6,2.5c-0.3,0.2-0.7,0.4-1.2,0.4H66
				c-0.9,0-1.3-0.5-1.3-1.4v-4.7c-0.7,0.1-1.3,0.1-2,0.2c-0.1,1.6-0.4,2.9-1,3.6c-0.6,0.9-1.6,1.7-3,2.4l-0.6-0.8
				c1.3-0.6,2.2-1.2,2.7-2c0.5-0.7,0.8-1.7,0.9-3.1c-0.8,0.1-1.5,0.1-2.3,0.1l-0.2-0.9c0.1,0,0.3-0.1,0.4-0.1
				c0.7-0.5,1.6-1.7,2.6-3.4h-4v-0.9h4.5c0.3-0.5,0.6-1.1,0.9-1.7l1,0.4c-0.3,0.4-0.5,0.9-0.7,1.3h5.9v0.9h-6.4
				c-0.9,1.5-1.8,2.6-2.5,3.4c2.1-0.2,4.2-0.4,6.2-0.6c-0.4-0.5-0.8-1.1-1.2-1.6l0.8-0.5C67.9,18.4,68.8,19.6,69.4,20.7z"/>
			<path class="st1" d="M83.5,14.1v0.8h-5v0.8h5.4v2.8H83v-2h-4.5v2.9h-1v-2.9H73v2h-0.9v-2.8h5.4v-0.8h-5v-0.8H83.5z M82.9,20v4.3
				h-4.4v0.9c0,0.3,0.1,0.4,0.4,0.4h3.5c0.4,0,0.6-0.1,0.8-0.2c0.2-0.2,0.3-0.6,0.4-1.4l0.9,0.3c-0.1,1-0.3,1.7-0.6,1.9
				c-0.3,0.2-0.7,0.3-1.3,0.3h-4c-0.8,0-1.1-0.3-1.1-1v-1.1H73V20H82.9z M76.7,19.1c-0.6,0.1-1.5,0.2-2.8,0.3l-0.2-0.7
				c1.3-0.1,2.2-0.2,2.8-0.3L76.7,19.1z M76.7,17.4L76.5,18c-0.9-0.2-1.8-0.3-2.7-0.3l0.3-0.6C75,17.1,75.9,17.3,76.7,17.4z
				 M77.5,21.7v-1H74v1H77.5z M77.5,22.5H74v1h3.5V22.5z M78.5,21.7h3.4v-1h-3.4V21.7z M81.9,22.5h-3.4v1h3.4V22.5z M82.3,18.8
				l-0.3,0.7c-0.9-0.2-1.8-0.4-2.8-0.5l0.3-0.6C80.5,18.5,81.4,18.7,82.3,18.8z M79.3,17.4c1-0.1,1.8-0.2,2.6-0.4l0.3,0.7
				c-0.8,0.2-1.7,0.3-2.7,0.4L79.3,17.4z"/>
			<path class="st1" d="M98,14.3v1h-4.6c-0.3,0.6-0.5,1.1-0.9,1.7v0.6c2.2,1.3,4.2,2.8,5.8,4.3l-0.7,0.8c-1.4-1.5-3.1-2.8-5.1-4.1
				v7.8h-1v-8c-1.3,1.6-3.1,3.1-5.2,4.3l-0.7-0.9c3.2-1.8,5.4-4,6.7-6.6H86v-1H98z"/>
			<path class="st1" d="M110.1,20.2v0.9c-0.6,1.1-1.6,2.1-2.9,2.9c1.4,0.6,3.1,1.1,5.1,1.6l-0.6,0.9c-2.2-0.5-4-1.1-5.5-1.9
				c-1.6,0.8-3.5,1.4-5.8,1.9l-0.5-1c2.1-0.4,3.9-0.9,5.3-1.5c-1.3-0.8-2.2-1.8-2.7-2.8h-0.6v-0.9H110.1z M111.9,21.1h-1v-2.2h-9.8
				v2.2h-1v-3.2h8c0.6-0.8,1-1.7,1.4-2.6l1,0.4c-0.4,0.9-0.9,1.6-1.4,2.2h2.7V21.1z M111.5,14.5c-2.7,0.4-6.3,0.6-10.8,0.6l-0.3-0.9
				c4.3,0,7.8-0.2,10.6-0.6L111.5,14.5z M103.5,17.4l-0.9,0.4c-0.4-0.7-0.9-1.3-1.4-1.9l0.9-0.4C102.6,16.1,103.1,16.7,103.5,17.4z
				 M106.1,23.5c1.2-0.7,2.2-1.5,2.8-2.4h-5.5C104,22,104.9,22.8,106.1,23.5z M106.8,17.3l-0.9,0.5c-0.4-0.7-0.9-1.4-1.3-1.9
				l0.9-0.4C105.9,15.9,106.4,16.6,106.8,17.3z"/>
			<path class="st1" d="M117.6,13.9c-0.3,1-0.8,2-1.2,2.9v9.6h-1v-7.9c-0.5,0.7-1,1.3-1.5,1.9l-0.3-1.1c1.5-1.7,2.5-3.6,3.2-5.8
				L117.6,13.9z M120.4,22.5c-0.8,1.2-1.8,2.2-2.9,3.1l-0.6-0.8c1.1-0.8,2.1-1.8,2.9-2.9L120.4,22.5z M125,14.2v4.4h-2.8v1.5h4v1h-4
				v5.3h-1v-5.3h-3.9v-1h3.9v-1.5h-2.8v-4.4H125z M124,15.2h-4.6v2.5h4.6V15.2z M126.5,24.8l-0.7,0.7c-0.9-1.1-1.9-2.1-2.9-3
				l0.6-0.7C124.7,22.7,125.6,23.7,126.5,24.8z"/>
			<path class="st1" d="M130.5,15.2l-0.6,0.2h2v0.9h-4.2v-0.9h1.9c-0.2-0.6-0.4-1.1-0.7-1.6l1-0.3C130.1,14.1,130.3,14.7,130.5,15.2
				z M131.6,25.4H129v0.7h-0.9v-4.7h3.5V25.4z M131.5,17.5v0.9h-3.3v-0.9H131.5z M131.5,19.4v0.8h-3.3v-0.8H131.5z M130.7,24.6v-2.3
				H129v2.3H130.7z M132.1,19.7l-0.5-0.6c0.8-0.8,1.5-1.9,2-3.2l0.8,0.2l-0.3,0.6h1.9c-0.1-0.3-0.2-0.5-0.4-0.8l0.9-0.1
				c0.1,0.3,0.3,0.6,0.4,0.9h3.1v0.7h-3v0.8h2.4v0.6h-2.4v0.8h2.4v0.6h-2.4v0.8h3v0.7h-7.1v-3.1C132.8,18.9,132.4,19.3,132.1,19.7z
				 M132.6,23v-0.7h6.8v0.7c-0.5,0.7-1.2,1.3-2.1,1.8c0.9,0.3,2,0.6,3.2,0.8l-0.5,0.8c-1.4-0.3-2.6-0.7-3.6-1.1
				c-1.1,0.5-2.5,0.9-4,1.1l-0.4-0.9c1.3-0.2,2.4-0.5,3.4-0.8c-0.9-0.5-1.6-1.1-2.1-1.8H132.6z M134.6,14.3v-0.8h0.9V16h-0.9v-0.9
				h-2.4v-0.8H134.6z M136.2,17.3h-2.3v0.8h2.3V17.3z M136.2,18.7h-2.3v0.8h2.3V18.7z M136.2,20.1h-2.3v0.8h2.3V20.1z M138.4,23
				h-4.1c0.6,0.5,1.2,1,2.1,1.4C137.2,24,137.9,23.5,138.4,23z M137.7,13.5v0.8h2.4v0.8h-2.4V16h-0.9v-2.4H137.7z"/>
			<path class="st1" d="M145.6,25.3c0.2-0.1,0.3-0.1,0.3-0.3v-3H144v0.6c0,1.7-0.5,3-1.5,3.8l-0.7-0.7c0.8-0.7,1.2-1.8,1.2-3.2v-1.5
				h3.9v3.5c0.4-0.3,0.8-0.5,1.2-0.8l0.2,0.8c-0.7,0.6-1.5,1.1-2.2,1.4L145.6,25.3z M148,19.9h-0.7v0.4h-4.6v-0.4h-0.8v-2h6.1V19.9z
				 M144.5,14.6v-0.9h1v0.9h2.5v0.8h-2.5v1h2.3v0.8h-5.5v-0.8h2.3v-1H142v-0.8H144.5z M147.1,19.5v-0.9h-4.3v0.9H147.1z M153.6,19.6
				v0.9c-0.3,1.3-0.9,2.5-1.6,3.4c0.7,0.6,1.5,1.2,2.4,1.7l-0.5,0.9c-1-0.6-1.8-1.2-2.5-1.9c-0.8,0.8-1.8,1.4-2.9,1.9l-0.6-0.8
				c1.1-0.5,2-1.1,2.8-1.8c-0.8-1-1.3-2.1-1.6-3.3h-0.6v-0.9H153.6z M153,14.1v3c0,0.3,0.1,0.5,0.4,0.5h0.8v0.9h-1.1
				c-0.8,0-1.2-0.4-1.2-1.2V15h-1.7v0.6c0,1.4-0.5,2.5-1.6,3.2l-0.7-0.7c0.9-0.6,1.3-1.4,1.3-2.4v-1.6H153z M151.4,23.1
				c0.6-0.8,1.1-1.6,1.3-2.6h-2.6C150.3,21.5,150.7,22.3,151.4,23.1z"/>
			<path class="st1" d="M157.6,23.8c-0.4,0.9-0.8,1.7-1.4,2.4l-0.7-0.5c0.5-0.6,1-1.4,1.3-2.2L157.6,23.8z M162.5,14v3.8h-2.7
				l0.2,0.9h3.2v0.8h-7.5v-0.8h3.3l-0.2-0.9h-2.3V14H162.5z M162.4,20.3V23h-2.4v2.3c0,0.7-0.4,1-1,1h-1l-0.2-0.9
				c0.3,0,0.6,0.1,0.9,0.1c0.2,0,0.4-0.1,0.4-0.4V23h-2.4v-2.7H162.4z M161.5,15.6v-0.9h-4.2v0.9H161.5z M161.5,16.3h-4.2v0.9h4.2
				V16.3z M161.4,21h-4v1.3h4V21z M162.7,25.4l-0.7,0.5c-0.3-0.6-0.7-1.3-1.2-2l0.7-0.4C162,24.2,162.4,24.8,162.7,25.4z
				 M168.5,21.5c-1.2,2.3-2.9,3.9-5.2,4.9l-0.4-0.9c2.1-0.9,3.7-2.4,4.8-4.5L168.5,21.5z M167.8,14.4c-1.1,1.1-2.5,2-4.1,2.7
				l-0.4-0.9c1.6-0.6,2.9-1.5,4-2.6L167.8,14.4z M168.1,18.1c-1.1,1.3-2.5,2.4-4.2,3.2l-0.4-0.9c1.6-0.8,3-1.8,4-3L168.1,18.1z"/>
			<path class="st1" d="M173.8,15.9c-0.1,0.9-0.4,1.6-1,2.1c-0.5,0.5-1.4,0.9-2.7,1.1l-0.3-0.7c1.1-0.2,1.9-0.5,2.4-0.9
				c0.1-0.1,0.2-0.2,0.3-0.3c-0.7,0.1-1.5,0.2-2.2,0.3l-0.2-0.6c0.5-0.4,1-0.7,1.4-1.1c-0.5,0-1,0.1-1.5,0.1l-0.1-0.6
				c0.6-0.5,1.1-1.1,1.5-1.7l0.7,0.2c-0.4,0.6-0.9,1.1-1.3,1.5c0.4,0,0.9-0.1,1.3-0.1c0.3-0.3,0.6-0.6,0.9-1l0.7,0.3
				c-0.8,1-1.6,1.7-2.4,2.3c0.5-0.1,1-0.1,1.5-0.2c0.1-0.2,0.2-0.5,0.2-0.8L173.8,15.9z M175.5,19.3c-0.1-0.3-0.2-0.5-0.4-0.7l1-0.2
				c0.1,0.3,0.2,0.5,0.3,0.8h4.6v0.8H179c-0.1,0.3-0.3,0.6-0.4,0.9h3.5v0.8h-12.2V21h3.4c-0.2-0.3-0.3-0.7-0.5-0.9h-1.9v-0.8H175.5z
				 M180.2,26.4h-1v-0.5h-6.4v0.5h-1v-4h8.3V26.4z M179.3,23.9v-0.8h-6.4v0.8H179.3z M179.3,25.2v-0.7h-6.4v0.7H179.3z M178.3,18.4
				l-0.7,0.3c-0.1-0.2-0.2-0.4-0.3-0.6c-1,0.2-2,0.4-3.2,0.5l-0.2-0.6c0.3-0.1,0.4-0.2,0.4-0.3v-3.5h1.4c-0.1-0.2-0.2-0.4-0.3-0.6
				l0.8-0.1c0.1,0.2,0.2,0.5,0.3,0.7h1.5v2.6h-3v1.1c0.7-0.1,1.4-0.2,2-0.3c-0.1-0.2-0.2-0.4-0.3-0.5l0.7-0.2
				C177.7,17.3,178,17.8,178.3,18.4z M174.3,21h3.3c0.2-0.3,0.3-0.6,0.4-0.9h-4.2C174,20.4,174.2,20.7,174.3,21z M177.2,14.7H175
				v0.5h2.2V14.7z M175,16.2h2.2v-0.5H175V16.2z M181.8,13.9v0.6c-0.3,0.5-0.5,1-0.8,1.5c0.6,0.5,0.9,1.1,0.9,1.5
				c0,0.3-0.1,0.6-0.3,0.7c-0.3,0.2-0.8,0.3-1.5,0.3l-0.2-0.7c0.2,0,0.3,0,0.4,0c0.3,0,0.5,0,0.6-0.1c0.1,0,0.2-0.1,0.2-0.2
				c0-0.4-0.3-0.9-0.9-1.4c0.4-0.6,0.6-1.1,0.8-1.5h-1.5v4.4h-0.8v-5H181.8z"/>
		</g>
		<g id="icon_x2F_blue_x2F_-g-icon_x5F_support_x5F_case">
			<g id="Oval-7">
				<path class="st1" d="M21,41C10,41,1,32,1,21C1,10,10,1,21,1s20,9,20,20C41,32,32,41,21,41z M21,2C10.5,2,2,10.5,2,21
					s8.5,19,19,19s19-8.5,19-19S31.5,2,21,2z"/>
			</g>
			<g id="Rectangle">
				<path class="st1" d="M26.5,36h-11c-1.4,0-2.5-1.1-2.5-2.5v-25C13,7.1,14.1,6,15.5,6h11C27.9,6,29,7.1,29,8.5v25
					C29,34.9,27.9,36,26.5,36z M15.5,7C14.7,7,14,7.7,14,8.5v25c0,0.8,0.7,1.5,1.5,1.5h11c0.8,0,1.5-0.7,1.5-1.5v-25
					C28,7.7,27.3,7,26.5,7H15.5z"/>
			</g>
			<g id="Rectangle_1_">
				<path class="st1" d="M17.5,17c-0.8,0-1.5-0.7-1.5-1.5v-5C16,9.7,16.7,9,17.5,9S19,9.7,19,10.5v5C19,16.3,18.3,17,17.5,17z
					 M17.5,10c-0.3,0-0.5,0.2-0.5,0.5v5c0,0.3,0.2,0.5,0.5,0.5s0.5-0.2,0.5-0.5v-5C18,10.2,17.8,10,17.5,10z"/>
			</g>
			
				<g id="Group-Copy" transform="translate(34.000000, 20.500000) rotate(-180.000000) translate(-34.000000, -20.500000) translate(31.000000, 14.000000)">
				<g id="Oval-7_3_">
					<path class="st1" d="M2.9,0.8c0.1,0,0.2,0,0.3,0.1C4.6,2,5.5,4.1,5.5,6.4c0,2.2-0.9,4.3-2.3,5.5C3,12.1,2.7,12,2.5,11.8
						c-0.2-0.2-0.1-0.5,0.1-0.7c1.2-1,1.9-2.8,1.9-4.7c0-2-0.7-3.8-1.9-4.7C2.3,1.5,2.3,1.2,2.5,0.9C2.6,0.8,2.7,0.8,2.9,0.8z"/>
				</g>
				<g id="Oval-7-Copy_2_">
					<path class="st1" d="M0.8,3.1c0.1,0,0.3,0.1,0.4,0.2C1.9,4,2.3,5.2,2.3,6.4c0,1.2-0.4,2.4-1.1,3.1C1,9.7,0.7,9.7,0.5,9.6
						c-0.2-0.2-0.2-0.5,0-0.7C1,8.3,1.3,7.3,1.3,6.4c0-1-0.3-1.9-0.8-2.5c-0.2-0.2-0.2-0.5,0-0.7C0.6,3.1,0.7,3.1,0.8,3.1z"/>
				</g>
			</g>
			<g id="Group-Copy-2" transform="translate(5.000000, 15.000000)">
				<g id="Oval-7_1_">
					<path class="st1" d="M2.9,12c-0.1,0-0.3-0.1-0.4-0.2c-0.2-0.2-0.1-0.5,0.1-0.7c1.2-1,1.9-2.8,1.9-4.7c0-2-0.7-3.8-1.9-4.7
						C2.3,1.5,2.3,1.2,2.5,0.9C2.7,0.7,3,0.7,3.2,0.9C4.6,2,5.5,4.1,5.5,6.4c0,2.2-0.9,4.3-2.3,5.5C3.1,12,3,12,2.9,12z"/>
				</g>
				<g id="Oval-7-Copy_3_">
					<path class="st1" d="M0.8,9.7c-0.1,0-0.2,0-0.3-0.1c-0.2-0.2-0.2-0.5,0-0.7C1,8.3,1.3,7.3,1.3,6.4c0-1-0.3-1.9-0.8-2.5
						c-0.2-0.2-0.2-0.5,0-0.7C0.7,3,1,3,1.2,3.2C1.9,4,2.3,5.2,2.3,6.4c0,1.2-0.4,2.4-1.1,3.1C1.1,9.6,1,9.7,0.8,9.7z"/>
				</g>
			</g>
		</g>
	</g>
</g>
</svg>
