<?xml version="1.0" encoding="utf-8"?>
<!-- Generator: Adobe Illustrator 22.1.0, SVG Export Plug-In . SVG Version: 6.00 Build 0)  -->
<svg version="1.1" id="Layer_1" xmlns="http://www.w3.org/2000/svg" xmlns:xlink="http://www.w3.org/1999/xlink" x="0px" y="0px"
	 viewBox="0 0 145 40" style="enable-background:new 0 0 145 40;" xml:space="preserve">
<style type="text/css">
	.st0{enable-background:new    ;}
	.st1{fill:#0075FF;}
</style>
<title>Group 32</title>
<desc>Created with Sketch.</desc>
<g id="Group-29" transform="translate(40.000000, 7680.000000)">
	<g id="Group-32" transform="translate(447.000000, 645.000000)">
		<g class="st0">
			<path class="st1" d="M-424.5-8311.2c0.1-0.4,0.1-0.9,0.2-1.3l1,0.1c0,0.4-0.1,0.8-0.1,1.2h5.4v1h-5.6c-0.1,0.4-0.2,0.8-0.2,1.2h4
				v8.2h2.1v0.9h-12.4v-0.9h2v-8.2h3.3c0.1-0.4,0.2-0.8,0.2-1.2h-5.3v-1H-424.5z M-420.8-8306.9v-1.2h-6.4v1.2H-420.8z
				 M-420.8-8304.9v-1.2h-6.4v1.2H-420.8z M-420.8-8302.9v-1.2h-6.4v1.2H-420.8z M-420.8-8300.9v-1.2h-6.4v1.2H-420.8z"/>
			<path class="st1" d="M-412.7-8312c-0.7,1.5-1.8,2.9-3.4,4.1l-0.3-1c1.3-1,2.3-2.2,2.8-3.5L-412.7-8312z M-412.5-8308.4
				c-0.3,0.7-0.7,1.3-1.1,2v6.8h-1v-5.7c-0.4,0.4-0.9,0.9-1.4,1.2l-0.3-1c1.3-1.1,2.3-2.4,2.9-3.8L-412.5-8308.4z M-411.8-8304v-0.9
				h7.7v0.9h-3.3v3.1h3.9v0.9h-8.9v-0.9h4v-3.1H-411.8z M-409.7-8310.1c-0.4,0.9-0.9,1.6-1.4,2.2c0.5,0.5,1,1.3,1.5,2.2l-0.8,0.5
				c-0.5-1-1.1-1.9-1.7-2.7c0.6-0.8,1.1-1.7,1.5-2.6L-409.7-8310.1z M-403.8-8311.9v1h-8.2v-1H-403.8z M-407-8310.1
				c-0.4,0.9-0.8,1.6-1.3,2.1c0.4,0.5,0.9,1.2,1.4,2.1l-0.8,0.5c-0.5-1-1-1.8-1.6-2.5c0.6-0.8,1.1-1.7,1.4-2.5L-407-8310.1z
				 M-404.3-8310.1c-0.4,0.9-0.9,1.6-1.4,2.1c0.5,0.5,1,1.2,1.5,2.1l-0.8,0.5c-0.5-1-1.1-1.8-1.7-2.5c0.6-0.8,1.1-1.6,1.5-2.5
				L-404.3-8310.1z"/>
			<path class="st1" d="M-395.4-8309.3c0.2,0.2,0.3,0.4,0.3,0.6c0,0.2-0.1,0.4-0.3,0.6s-0.4,0.3-0.6,0.3c-0.3,0-0.4-0.1-0.6-0.3
				c-0.2-0.2-0.2-0.4-0.2-0.6c0-0.3,0.1-0.4,0.2-0.6c0.2-0.2,0.4-0.3,0.6-0.3C-395.8-8309.5-395.5-8309.4-395.4-8309.3z
				 M-395.4-8304.1c0.2,0.2,0.3,0.4,0.3,0.6c0,0.2-0.1,0.4-0.3,0.6c-0.2,0.2-0.4,0.3-0.6,0.3c-0.3,0-0.4-0.1-0.6-0.3
				c-0.2-0.2-0.2-0.4-0.2-0.6c0-0.3,0.1-0.4,0.2-0.6c0.2-0.2,0.4-0.3,0.6-0.3C-395.8-8304.4-395.5-8304.3-395.4-8304.1z"/>
			<path class="st1" d="M-384.9-8311v10h-1.1v-8.6c-0.6,0.6-1.4,1.1-2.4,1.4v-1.1c0.4-0.1,0.9-0.3,1.4-0.6c0.5-0.3,0.9-0.6,1.2-1
				H-384.9z"/>
			<path class="st1" d="M-379.3-8311v10h-1.1v-8.6c-0.6,0.6-1.4,1.1-2.4,1.4v-1.1c0.4-0.1,0.9-0.3,1.4-0.6c0.5-0.3,0.9-0.6,1.2-1
				H-379.3z"/>
			<path class="st1" d="M-370.9-8309.6c0.5,0.9,0.8,2.1,0.8,3.6s-0.3,2.7-0.8,3.6c-0.6,1.1-1.5,1.6-2.7,1.6c-1.2,0-2.1-0.5-2.7-1.6
				c-0.5-0.9-0.8-2.1-0.8-3.6s0.3-2.7,0.8-3.6c0.6-1.1,1.5-1.6,2.7-1.6C-372.4-8311.2-371.5-8310.7-370.9-8309.6z M-375.5-8308.8
				c-0.3,0.7-0.4,1.6-0.4,2.8c0,1.2,0.1,2.1,0.4,2.8c0.4,1,1,1.4,1.9,1.4s1.5-0.5,1.9-1.4c0.3-0.7,0.4-1.6,0.4-2.8
				c0-1.2-0.2-2.1-0.4-2.8c-0.4-1-1-1.4-1.9-1.4S-375.1-8309.7-375.5-8308.8z"/>
			<path class="st1" d="M-363.8-8311.5c-1,2.8-2.4,4.9-4,6.4l-0.8-0.7c1.7-1.5,3-3.5,3.9-6.1L-363.8-8311.5z M-357.2-8300l-0.9,0.4
				c-0.2-0.5-0.4-0.9-0.6-1.3c-2.5,0.4-5.2,0.7-8.3,0.9l-0.2-1c1.1-0.6,2.5-2.8,4.2-6.6l1,0.3c-1.2,2.6-2.4,4.7-3.6,6.2
				c2.3-0.1,4.4-0.4,6.4-0.7c-0.5-1-1.1-1.9-1.7-2.8l0.9-0.3C-358.9-8303.4-358-8301.7-357.2-8300z M-359.5-8312
				c0.5,2.5,1.6,4.5,3.4,6l-0.8,0.7c-1.7-1.5-2.8-3.5-3.4-5.8h-2.4v-0.9H-359.5z"/>
			<path class="st1" d="M-342.7-8306.6h-10v2.1c-0.1,2-0.5,3.7-1.5,4.9l-0.7-0.7c0.8-1,1.2-2.4,1.3-4.3v-2.9h11V-8306.6z
				 M-351.7-8311.8v-0.6h0.9v0.6h2.1v0.7h-2.1v0.7h2.3v0.3c0.9-0.7,1.4-1.5,1.8-2.4l0.9,0.1c-0.1,0.3-0.2,0.5-0.3,0.8h3.7v0.8h-0.8
				c-0.3,0.6-0.6,1.1-1.1,1.5c0.6,0.3,1.2,0.6,1.8,1l-0.6,0.7c-0.6-0.4-1.3-0.7-1.9-1.1c-0.8,0.5-1.7,0.9-2.8,1.1l-0.4-0.7
				c1-0.2,1.7-0.4,2.4-0.8c-0.4-0.2-0.8-0.4-1.1-0.5l0.5-0.6c0.5,0.2,0.9,0.4,1.4,0.6c0.4-0.3,0.7-0.7,0.9-1.1h-2.5
				c-0.4,0.5-0.8,1-1.4,1.5l-0.5-0.7v0.4h-1.7c0.7,0.4,1.3,0.7,1.8,1.1l-0.6,0.6c-0.4-0.4-1-0.9-1.7-1.3v1.4h-0.9v-1.4
				c-0.7,0.6-1.5,1.2-2.4,1.6l-0.5-0.8c1-0.3,1.8-0.8,2.4-1.2h-2.1v-0.7h2.6v-0.7h-2.3v-0.7H-351.7z M-351.6-8302.7v-3.2h7.8v3.2
				h-3.4v0.7h4v0.7h-4v0.8h4.8v0.8h-10.4v-0.8h4.7v-0.8h-3.9v-0.7h3.9v-0.7H-351.6z M-350.7-8305.3v0.6h2.5v-0.6H-350.7z
				 M-350.7-8304v0.7h2.5v-0.7H-350.7z M-344.7-8304.6v-0.6h-2.5v0.6H-344.7z M-344.7-8303.4v-0.7h-2.5v0.7H-344.7z"/>
		</g>
		<g id="icon_x2F_blue_x2F_-g-icon_x5F_width">
			<g id="Oval-7">
				<path class="st1" d="M-467-8285c-11,0-20-9-20-20c0-11,9-20,20-20s20,9,20,20C-447-8294-456-8285-467-8285z M-467-8324
					c-10.5,0-19,8.5-19,19s8.5,19,19,19s19-8.5,19-19S-456.5-8324-467-8324z"/>
			</g>
			<g id="Line">
				<path class="st1" d="M-455-8304.5h-3c-0.3,0-0.5-0.2-0.5-0.5s0.2-0.5,0.5-0.5h3c0.3,0,0.5,0.2,0.5,0.5S-454.7-8304.5-455-8304.5
					z M-462-8304.5h-3c-0.3,0-0.5-0.2-0.5-0.5s0.2-0.5,0.5-0.5h3c0.3,0,0.5,0.2,0.5,0.5S-461.7-8304.5-462-8304.5z M-469-8304.5h-3
					c-0.3,0-0.5-0.2-0.5-0.5s0.2-0.5,0.5-0.5h3c0.3,0,0.5,0.2,0.5,0.5S-468.7-8304.5-469-8304.5z M-476-8304.5h-3
					c-0.3,0-0.5-0.2-0.5-0.5s0.2-0.5,0.5-0.5h3c0.3,0,0.5,0.2,0.5,0.5S-475.7-8304.5-476-8304.5z"/>
			</g>
			<g id="Line-Copy">
				<path class="st1" d="M-479-8294.5c-0.3,0-0.5-0.2-0.5-0.5v-4c0-0.3,0.2-0.5,0.5-0.5s0.5,0.2,0.5,0.5v4
					C-478.5-8294.7-478.7-8294.5-479-8294.5z M-479-8302.5c-0.3,0-0.5-0.2-0.5-0.5v-4c0-0.3,0.2-0.5,0.5-0.5s0.5,0.2,0.5,0.5v4
					C-478.5-8302.7-478.7-8302.5-479-8302.5z M-479-8310.5c-0.3,0-0.5-0.2-0.5-0.5v-4c0-0.3,0.2-0.5,0.5-0.5s0.5,0.2,0.5,0.5v4
					C-478.5-8310.7-478.7-8310.5-479-8310.5z"/>
			</g>
			<g id="Line-Copy-2">
				<path class="st1" d="M-455-8294.5c-0.3,0-0.5-0.2-0.5-0.5v-4c0-0.3,0.2-0.5,0.5-0.5s0.5,0.2,0.5,0.5v4
					C-454.5-8294.7-454.7-8294.5-455-8294.5z M-455-8302.5c-0.3,0-0.5-0.2-0.5-0.5v-4c0-0.3,0.2-0.5,0.5-0.5s0.5,0.2,0.5,0.5v4
					C-454.5-8302.7-454.7-8302.5-455-8302.5z M-455-8310.5c-0.3,0-0.5-0.2-0.5-0.5v-4c0-0.3,0.2-0.5,0.5-0.5s0.5,0.2,0.5,0.5v4
					C-454.5-8310.7-454.7-8310.5-455-8310.5z"/>
			</g>
			<g id="Oval-7_1_">
				<path class="st1" d="M-467-8293c-4.7,0-9-2.8-11-7.2c-0.1-0.3,0-0.5,0.3-0.7c0.3-0.1,0.5,0,0.7,0.3c1.8,4,5.7,6.6,10,6.6
					c4.3,0,8.3-2.6,10-6.6c0.1-0.3,0.4-0.4,0.7-0.3c0.3,0.1,0.4,0.4,0.3,0.7C-458-8295.8-462.3-8293-467-8293z M-456.4-8309.1
					c-0.2,0-0.4-0.1-0.5-0.3c-1.7-4-5.7-6.6-10.1-6.6c-4.3,0-8.3,2.6-10,6.6c-0.1,0.3-0.4,0.4-0.7,0.3c-0.3-0.1-0.4-0.4-0.3-0.7
					c1.9-4.4,6.2-7.2,11-7.2c4.8,0,9.2,2.8,11.1,7.2c0.1,0.3,0,0.5-0.3,0.7C-456.3-8309.1-456.3-8309.1-456.4-8309.1z"/>
			</g>
		</g>
	</g>
</g>
</svg>
