<?xml version="1.0" encoding="utf-8"?>
<!-- Generator: Adobe Illustrator 22.1.0, SVG Export Plug-In . SVG Version: 6.00 Build 0)  -->
<svg version="1.1" id="Layer_1" xmlns="http://www.w3.org/2000/svg" xmlns:xlink="http://www.w3.org/1999/xlink" x="0px" y="0px"
	 viewBox="0 0 145 40" style="enable-background:new 0 0 145 40;" xml:space="preserve">
<style type="text/css">
	.st0{enable-background:new    ;}
	.st1{fill:#0075FF;}
</style>
<title>Group 2</title>
<desc>Created with Sketch.</desc>
<g id="Q1-Webpage">
	<g id="OMNIA_Q1_1440px_eng" transform="translate(-248.000000, -5502.000000)">
		<g id="Group-2" transform="translate(247.000000, 5501.000000)">
			<g class="st0">
				<path class="st1" d="M65.1,16.7c0.8,0.6,1.2,1.4,1.3,2.4h-1.1c-0.1-0.7-0.5-1.3-1.1-1.7c-0.5-0.4-1.2-0.6-2-0.6
					c-1.2,0-2.1,0.4-2.7,1.2c-0.6,0.8-0.9,1.8-0.9,3c0,1.2,0.3,2.2,0.9,3c0.6,0.8,1.5,1.2,2.7,1.2c0.8,0,1.5-0.2,2-0.6
					c0.6-0.4,1-1.1,1.2-2h1.1c-0.2,1.2-0.7,2.1-1.6,2.7c-0.8,0.6-1.7,0.9-2.8,0.9c-1.6,0-2.7-0.5-3.6-1.5c-0.8-0.9-1.1-2.1-1.1-3.6
					c0-1.5,0.4-2.7,1.1-3.7c0.8-1.1,2-1.6,3.6-1.6C63.4,15.8,64.4,16.1,65.1,16.7z"/>
				<path class="st1" d="M73.5,19.4c0.4,0.5,0.6,1.1,0.6,2V26h-1.1v-1.2c-0.3,0.4-0.7,0.7-1.1,1c-0.5,0.3-1.1,0.4-1.8,0.4
					c-0.7,0-1.3-0.2-1.7-0.5c-0.4-0.4-0.7-0.9-0.7-1.5c0-0.8,0.3-1.4,1-1.9c0.6-0.4,1.4-0.6,2.5-0.6l1.7,0v-0.4
					c0-1.2-0.6-1.8-1.9-1.8c-0.5,0-1,0.1-1.3,0.3c-0.4,0.2-0.6,0.6-0.7,1L68,20.8c0.2-0.8,0.5-1.3,1.1-1.7c0.5-0.3,1.2-0.5,2.1-0.5
					C72.2,18.6,73,18.8,73.5,19.4z M71.4,22.6c-1.6,0-2.4,0.6-2.4,1.6c0,0.3,0.1,0.6,0.4,0.8c0.3,0.2,0.6,0.3,1.1,0.3
					c0.7,0,1.3-0.2,1.8-0.7c0.5-0.4,0.8-0.9,0.8-1.5v-0.6L71.4,22.6z"/>
				<path class="st1" d="M81.4,20.8h-1.1c-0.1-0.4-0.3-0.8-0.6-1c-0.3-0.2-0.8-0.3-1.3-0.3c-0.5,0-0.9,0.1-1.2,0.3
					c-0.3,0.2-0.5,0.4-0.5,0.8c0,0.3,0.2,0.6,0.6,0.8c0.3,0.1,0.8,0.3,1.5,0.5c0.9,0.2,1.5,0.4,1.9,0.7c0.6,0.4,0.9,0.9,0.9,1.5
					c0,1.5-1,2.2-3.1,2.2c-1.9,0-2.9-0.8-3.1-2.5h1.1c0.1,0.6,0.3,1,0.6,1.2c0.3,0.2,0.8,0.3,1.4,0.3c1.3,0,1.9-0.4,1.9-1.2
					c0-0.4-0.2-0.7-0.7-0.9c-0.2-0.1-0.8-0.3-1.5-0.5c-0.9-0.2-1.5-0.4-1.8-0.6c-0.6-0.3-0.8-0.8-0.8-1.4s0.3-1.1,0.8-1.5
					c0.5-0.4,1.2-0.5,2-0.5C80.2,18.6,81.2,19.3,81.4,20.8z"/>
				<path class="st1" d="M88.6,19.7c0.5,0.7,0.8,1.7,0.8,3h-5.7c0.1,0.8,0.3,1.4,0.7,1.9s0.9,0.7,1.6,0.7c0.6,0,1.1-0.2,1.4-0.4
					c0.3-0.3,0.5-0.6,0.7-1.1h1.1c-0.2,0.7-0.5,1.3-1,1.7c-0.6,0.5-1.4,0.8-2.3,0.8c-1,0-1.9-0.4-2.5-1c-0.6-0.7-1-1.6-1-2.8
					c0-1.1,0.3-2,0.9-2.7c0.6-0.8,1.4-1.1,2.5-1.1C87.1,18.6,88,19,88.6,19.7z M84.4,20.1c-0.4,0.4-0.6,1-0.7,1.7h4.5
					c-0.1-1.6-0.9-2.3-2.3-2.3C85.3,19.5,84.8,19.7,84.4,20.1z"/>
				<path class="st1" d="M102.2,16v1h-5.5v3.4h5.3v1h-5.3V26h-1.1V16H102.2z"/>
				<path class="st1" d="M107.6,18.7v1.1c-0.4-0.1-0.7-0.2-1.1-0.2c-0.6,0-1,0.2-1.4,0.7c-0.4,0.5-0.6,1-0.6,1.7V26h-1.1v-7.2h1.1
					V20c0.2-0.4,0.4-0.8,0.8-1c0.4-0.3,0.8-0.5,1.3-0.5C107,18.6,107.4,18.6,107.6,18.7z"/>
				<path class="st1" d="M110.1,16.3c0.2,0.1,0.3,0.3,0.3,0.6c0,0.2-0.1,0.4-0.3,0.6c-0.2,0.2-0.4,0.2-0.6,0.2s-0.4-0.1-0.6-0.2
					c-0.2-0.2-0.2-0.4-0.2-0.6c0-0.3,0.1-0.4,0.2-0.6c0.2-0.2,0.4-0.2,0.6-0.2S109.9,16.1,110.1,16.3z M110.1,18.8V26h-1.1v-7.2
					H110.1z"/>
				<path class="st1" d="M117.8,19.7c0.5,0.7,0.8,1.7,0.8,3h-5.7c0.1,0.8,0.3,1.4,0.7,1.9s0.9,0.7,1.6,0.7c0.6,0,1.1-0.2,1.4-0.4
					c0.3-0.3,0.5-0.6,0.7-1.1h1.1c-0.2,0.7-0.5,1.3-1,1.7c-0.6,0.5-1.4,0.8-2.3,0.8c-1,0-1.9-0.4-2.5-1c-0.6-0.7-1-1.6-1-2.8
					c0-1.1,0.3-2,0.9-2.7c0.6-0.8,1.4-1.1,2.5-1.1C116.3,18.6,117.2,19,117.8,19.7z M113.6,20.1c-0.4,0.4-0.6,1-0.7,1.7h4.5
					c-0.1-1.6-0.9-2.3-2.3-2.3C114.5,19.5,114,19.7,113.6,20.1z"/>
				<path class="st1" d="M126,21.5V26h-1.1v-4.4c0-1.4-0.6-2.1-1.9-2.1c-0.5,0-0.9,0.2-1.3,0.5c-0.4,0.4-0.6,0.9-0.6,1.6V26h-1.1
					v-7.2h1.1v1.1c0.3-0.4,0.6-0.7,1-0.9c0.4-0.2,0.8-0.3,1.3-0.3C125.1,18.6,126,19.6,126,21.5z"/>
				<path class="st1" d="M134.2,15.8V26h-1v-1.2c-0.5,0.9-1.3,1.4-2.4,1.4c-1.1,0-1.9-0.4-2.5-1.1c-0.5-0.7-0.8-1.6-0.8-2.7
					c0-1.1,0.3-1.9,0.8-2.6c0.6-0.8,1.4-1.2,2.4-1.2c1,0,1.8,0.5,2.4,1.5v-4.3H134.2z M129.2,20.3c-0.4,0.5-0.5,1.2-0.5,2
					c0,0.9,0.2,1.6,0.5,2.1c0.4,0.6,1,0.9,1.8,0.9c0.7,0,1.3-0.3,1.7-0.8c0.4-0.5,0.5-1.2,0.5-2v-0.1c0-0.8-0.2-1.5-0.6-2
					c-0.4-0.5-0.9-0.8-1.6-0.8C130.2,19.5,129.5,19.8,129.2,20.3z"/>
				<path class="st1" d="M137.3,15.8V26h-1.1V15.8H137.3z"/>
				<path class="st1" d="M139.7,18.8l2.2,5.7l2.1-5.7h1.2l-4,10h-1.2l1.2-2.9l-2.9-7.1H139.7z"/>
			</g>
			<g id="icon_x2F_blue_x2F_-g-icon_x5F_support_x5F_case">
				<g id="Oval-7">
					<path class="st1" d="M21,41C10,41,1,32,1,21C1,10,10,1,21,1s20,9,20,20C41,32,32,41,21,41z M21,2C10.5,2,2,10.5,2,21
						s8.5,19,19,19s19-8.5,19-19S31.5,2,21,2z"/>
				</g>
				<g id="Rectangle">
					<path class="st1" d="M26.5,36h-11c-1.4,0-2.5-1.1-2.5-2.5v-25C13,7.1,14.1,6,15.5,6h11C27.9,6,29,7.1,29,8.5v25
						C29,34.9,27.9,36,26.5,36z M15.5,7C14.7,7,14,7.7,14,8.5v25c0,0.8,0.7,1.5,1.5,1.5h11c0.8,0,1.5-0.7,1.5-1.5v-25
						C28,7.7,27.3,7,26.5,7H15.5z"/>
				</g>
				<g id="Rectangle_1_">
					<path class="st1" d="M17.5,17c-0.8,0-1.5-0.7-1.5-1.5v-5C16,9.7,16.7,9,17.5,9S19,9.7,19,10.5v5C19,16.3,18.3,17,17.5,17z
						 M17.5,10c-0.3,0-0.5,0.2-0.5,0.5v5c0,0.3,0.2,0.5,0.5,0.5s0.5-0.2,0.5-0.5v-5C18,10.2,17.8,10,17.5,10z"/>
				</g>
				
					<g id="Group-Copy" transform="translate(34.000000, 20.500000) rotate(-180.000000) translate(-34.000000, -20.500000) translate(31.000000, 14.000000)">
					<g id="Oval-7_3_">
						<path class="st1" d="M2.9,0.8c0.1,0,0.2,0,0.3,0.1C4.6,2,5.5,4.1,5.5,6.4c0,2.2-0.9,4.3-2.3,5.5C3,12.1,2.7,12,2.5,11.8
							c-0.2-0.2-0.1-0.5,0.1-0.7c1.2-1,1.9-2.8,1.9-4.7c0-2-0.7-3.8-1.9-4.7C2.3,1.5,2.3,1.2,2.5,0.9C2.6,0.8,2.7,0.8,2.9,0.8z"/>
					</g>
					<g id="Oval-7-Copy_2_">
						<path class="st1" d="M0.8,3.1c0.1,0,0.3,0.1,0.4,0.2C1.9,4,2.3,5.2,2.3,6.4c0,1.2-0.4,2.4-1.1,3.1C1,9.7,0.7,9.7,0.5,9.6
							c-0.2-0.2-0.2-0.5,0-0.7C1,8.3,1.3,7.3,1.3,6.4c0-1-0.3-1.9-0.8-2.5c-0.2-0.2-0.2-0.5,0-0.7C0.6,3.1,0.7,3.1,0.8,3.1z"/>
					</g>
				</g>
				<g id="Group-Copy-2" transform="translate(5.000000, 15.000000)">
					<g id="Oval-7_1_">
						<path class="st1" d="M2.9,12c-0.1,0-0.3-0.1-0.4-0.2c-0.2-0.2-0.1-0.5,0.1-0.7c1.2-1,1.9-2.8,1.9-4.7c0-2-0.7-3.8-1.9-4.7
							C2.3,1.5,2.3,1.2,2.5,0.9C2.7,0.7,3,0.7,3.2,0.9C4.6,2,5.5,4.1,5.5,6.4c0,2.2-0.9,4.3-2.3,5.5C3.1,12,3,12,2.9,12z"/>
					</g>
					<g id="Oval-7-Copy_3_">
						<path class="st1" d="M0.8,9.7c-0.1,0-0.2,0-0.3-0.1c-0.2-0.2-0.2-0.5,0-0.7C1,8.3,1.3,7.3,1.3,6.4c0-1-0.3-1.9-0.8-2.5
							c-0.2-0.2-0.2-0.5,0-0.7C0.7,3,1,3,1.2,3.2C1.9,4,2.3,5.2,2.3,6.4c0,1.2-0.4,2.4-1.1,3.1C1.1,9.6,1,9.7,0.8,9.7z"/>
					</g>
				</g>
			</g>
		</g>
	</g>
</g>
</svg>
