<?xml version="1.0" encoding="utf-8"?>
<!-- Generator: Adobe Illustrator 22.1.0, SVG Export Plug-In . SVG Version: 6.00 Build 0)  -->
<svg version="1.1" id="Layer_1" xmlns="http://www.w3.org/2000/svg" xmlns:xlink="http://www.w3.org/1999/xlink" x="0px" y="0px"
	 viewBox="0 0 191 40" style="enable-background:new 0 0 191 40;" xml:space="preserve">
<style type="text/css">
	.st0{enable-background:new    ;}
	.st1{fill:#0075FF;}
	.st2{filter:url(#Adobe_OpacityMaskFilter);}
	.st3{fill:#FFFFFF;}
	.st4{mask:url(#mask-2_1_);}
</style>
<title>Group 2</title>
<desc>Created with Sketch.</desc>
<g id="Q1-Webpage">
	<g id="OMNIA_Q1_1920px_cn" transform="translate(-488.000000, -3338.000000)">
		<g id="Group-57" transform="translate(0.000000, 2900.000000)">
			<g id="Group-2_1_" transform="translate(487.000000, 437.000000)">
				<g class="st0">
					<path class="st1" d="M64.5,13.6v1.8H70v1h-5.5v2.1h3.8v0.9c-0.8,1.6-1.9,2.9-3.4,4c0.7,0.4,1.5,0.8,2.3,1.1
						c1,0.4,2.1,0.7,3.2,1l-0.6,0.9c-1.2-0.3-2.4-0.7-3.4-1.2c-0.9-0.4-1.6-0.8-2.3-1.2c-1.6,1-3.5,1.8-5.7,2.4l-0.6-0.9
						c2.1-0.5,4-1.2,5.5-2.1c-0.7-0.5-1.4-1.2-1.9-1.9c-0.5-0.6-0.9-1.4-1.1-2.1h-1.1v-0.9h4.4v-2.1H58v-1h5.4v-1.8H64.5z
						 M67.1,19.5h-6c0.3,0.7,0.6,1.4,1.2,2c0.5,0.6,1.1,1.1,1.7,1.5C65.3,21.9,66.4,20.8,67.1,19.5z"/>
					<path class="st1" d="M75.7,20.2c-0.4,0.2-0.9,0.5-1.3,0.7v4.2c0,0.7-0.4,1.1-1.2,1.1H72l-0.2-1c0.4,0,0.8,0.1,1.1,0.1
						c0.3,0,0.5-0.2,0.5-0.5v-3.5c-0.5,0.2-1.1,0.4-1.6,0.6l-0.2-1c0.6-0.2,1.2-0.4,1.8-0.6v-3.2h-1.7v-1h1.7v-2.6h1v2.6H76v1h-1.6
						V20c0.4-0.2,0.9-0.5,1.3-0.7V20.2z M81.8,17.6c0.4-0.7,0.7-1.5,1-2.5l0.9,0.2c-0.3,0.8-0.6,1.6-0.9,2.2h1.1v0.9h-4.8
						c-0.1,0.4-0.1,0.8-0.2,1.2h5.2v0.9h-5.4c-0.1,0.4-0.2,0.7-0.2,1.1h4.8v0.8c-0.4,0.9-0.9,1.6-1.7,2.2c0.8,0.4,1.7,0.7,2.8,0.9
						L84,26.3c-1.2-0.3-2.3-0.7-3.2-1.2c-0.8,0.5-1.8,0.9-3,1.2l-0.5-0.8c1-0.3,1.9-0.6,2.7-0.9c-0.7-0.6-1.3-1.2-1.7-1.9l-0.2,0.4
						c-0.5,1.2-1.2,2.3-2.1,3.3l-0.6-0.8c0.9-0.9,1.5-1.8,1.9-2.9c0.2-0.6,0.4-1.3,0.6-2.2h-1.8v-0.9h2c0.1-0.4,0.1-0.8,0.1-1.2
						h-1.7v-0.9H81.8z M84.1,14.5c-1.9,0.5-4.4,0.8-7.5,0.8l-0.3-0.9c2.9,0,5.4-0.2,7.3-0.7L84.1,14.5z M78.6,17.1l-0.7,0.3
						c-0.3-0.6-0.6-1.1-0.9-1.6l0.7-0.3C78,16,78.3,16.6,78.6,17.1z M82.4,22.4h-3.3c0.5,0.7,1,1.2,1.7,1.7
						C81.5,23.6,82,23,82.4,22.4z M81,17.1l-0.7,0.3c-0.3-0.6-0.5-1.2-0.9-1.7l0.7-0.3C80.5,16,80.8,16.5,81,17.1z"/>
					<path class="st1" d="M87.5,21.8c-0.2,1.7-0.6,3.3-1.3,4.6l-0.7-0.7c0.8-1.4,1.1-3.1,1.2-5.1v-5.8c1.7-0.2,3-0.6,3.9-1.2
						l0.7,0.8c-1,0.5-2.2,0.9-3.7,1.1v1.6h3.6v4.7H87.5z M87.6,20.6c0,0.1,0,0.2,0,0.3h2.7v-2.8h-2.7V20.6z M93.3,20.9
						c0,2.4-0.3,4.2-1,5.5L91.4,26c0.6-1.2,0.9-2.9,1-5v-6.3c2-0.1,3.7-0.4,5-1l0.5,0.9c-1.4,0.5-2.9,0.8-4.6,0.9l0,2.5h5.1v1h-1.6
						v7.5h-1v-7.5h-2.5V20.9z"/>
					<path class="st1" d="M102.4,26.4l-0.7-0.7c0.8-0.9,1.3-2,1.3-3.4V19c-0.8,1-1.7,1.9-2.7,2.7l-0.6-0.8c1.8-1.4,3.1-3,4.1-4.8
						H100v-1h4.2c0.2-0.5,0.4-1.1,0.6-1.6l1,0.1c-0.2,0.5-0.3,1-0.5,1.5h7v1h-7.4c-0.3,0.6-0.6,1.1-0.9,1.6h6.5v7.5
						c0,0.8-0.4,1.1-1.2,1.1h-1.5l-0.2-0.9c0.5,0,1,0,1.4,0c0.4,0,0.6-0.2,0.6-0.6v-1.5h-5.7C103.6,24.6,103.1,25.6,102.4,26.4z
						 M103.9,22.3c0,0.1,0,0.2,0,0.2h5.6V21h-5.6V22.3z M109.5,18.6h-5.6v1.5h5.6V18.6z"/>
					<path class="st1" d="M126.6,16.3c0.8,1,1.2,2.2,1.2,3.7c0,1.5-0.4,2.7-1.2,3.7c0,0-0.1,0.1-0.1,0.1c0.4,0.5,0.8,1,1.1,1.6
						l-0.8,0.7c-0.4-0.6-0.8-1.1-1.1-1.6c-0.8,0.5-1.7,0.8-2.7,0.8c-1.5,0-2.7-0.5-3.5-1.5c-0.8-1-1.2-2.2-1.2-3.7
						c0-1.5,0.4-2.7,1.2-3.7c0.9-1,2-1.5,3.6-1.5C124.5,14.8,125.7,15.3,126.6,16.3z M120.3,17c-0.6,0.8-0.9,1.8-0.9,3
						c0,1.2,0.3,2.2,0.9,3c0.6,0.8,1.6,1.2,2.7,1.2c0.8,0,1.5-0.2,2.1-0.6c-0.6-0.7-1.1-1.4-1.7-2l0.7-0.7c0.6,0.6,1.1,1.3,1.7,1.9
						c0.6-0.7,0.8-1.7,0.8-2.9c0-1.3-0.3-2.3-0.9-3c-0.6-0.8-1.5-1.1-2.7-1.1S121,16.2,120.3,17z"/>
					<path class="st1" d="M130.8,15.3c0.2,0.1,0.3,0.3,0.3,0.6c0,0.2-0.1,0.4-0.3,0.6c-0.2,0.2-0.4,0.2-0.6,0.2s-0.4-0.1-0.6-0.2
						c-0.2-0.2-0.2-0.4-0.2-0.6c0-0.3,0.1-0.4,0.2-0.6c0.2-0.2,0.4-0.2,0.6-0.2S130.6,15.1,130.8,15.3z M130.8,17.8V25h-1.1v-7.2
						H130.8z"/>
					<path class="st1" d="M149.9,14.4v1h-1.8v9.5c0,0.9-0.4,1.4-1.3,1.4h-2.3l-0.2-1c0.8,0,1.5,0.1,2.2,0.1c0.4,0,0.7-0.3,0.7-0.7
						v-9.3h-9.6v-1H149.9z M144.5,22.7H140v1.2h-1v-6.4h5.4V22.7z M143.5,21.7v-3.3H140v3.3H143.5z"/>
					<path class="st1" d="M152,26.3l-0.8-0.7c0.9-1.2,1.4-2.8,1.4-4.7v-6.7h10.4v10.5c0,1-0.5,1.5-1.5,1.5H160l-0.3-1
						c0.6,0,1.1,0.1,1.6,0.1c0.5,0,0.8-0.3,0.8-0.9v-2.4h-3.8v4.1h-1v-4.1h-3.6C153.4,23.6,152.9,25.1,152,26.3z M153.6,15.1v2.4
						h3.6v-2.4H153.6z M153.6,20.9h3.6v-2.5h-3.6V20.9z M162,15.1h-3.8v2.4h3.8V15.1z M162,18.4h-3.8v2.5h3.8V18.4z"/>
					<path class="st1" d="M171.1,21c-0.2-0.3-0.3-0.7-0.6-1l0.9-0.3c0.2,0.4,0.4,0.8,0.6,1.3h5.5v0.9h-6.3c-0.5,0.5-1.1,1-1.9,1.5v2
						c1-0.3,2-0.5,2.9-0.9l0.2,0.9c-1.1,0.3-2.5,0.7-4.1,1l-0.2-0.8c0.2-0.1,0.3-0.2,0.3-0.4v-1.4c-0.8,0.4-1.8,0.8-2.8,1.1
						l-0.5-0.9c2.3-0.6,4-1.3,5.1-2.2h-4.6V21H171.1z M167.5,13.8v1.5h2.1v-1.8h1V20h-1v-2h-1.8c-0.1,1.1-0.6,1.9-1.5,2.4l-0.7-0.5
						c0.8-0.3,1.3-1,1.4-1.8h-1.2v-0.8h3.9v-1h-3v-2.3H167.5z M173.9,15.4v-1.9h1v1.9h2.8v0.9h-2.8v2.4h2.3v0.8h-5.6v-0.8h2.3v-2.4
						h-2.7v-0.9H173.9z M176.8,22.7c-0.6,0.6-1.3,1.1-2.2,1.6c1,0.6,2,1,3.3,1.4l-0.5,0.8c-2.6-0.8-4.5-2-5.7-3.7l0.7-0.4
						c0.4,0.5,0.9,1,1.4,1.4c0.9-0.5,1.7-1,2.3-1.7L176.8,22.7z"/>
					<path class="st1" d="M185.1,17.5l0.1-0.8h-4.6v-2.6h10.1v2.6h-4.5l-0.1,0.8h5.6v0.8H186c-0.1,0.3-0.1,0.5-0.2,0.8h4.1v6.2h2
						v0.8h-12.5v-0.8h2v-6.2h3.4c0.1-0.3,0.1-0.5,0.2-0.8h-5.3v-0.8H185.1z M183.6,14.8h-2.1V16h2.1V14.8z M188.9,20.7v-0.9h-6.5
						v0.9H188.9z M188.9,22.2v-0.9h-6.5v0.9H188.9z M188.9,23.7v-0.9h-6.5v0.9H188.9z M188.9,25.3v-0.9h-6.5v0.9H188.9z M186.8,14.8
						h-2.2V16h2.2V14.8z M189.8,14.8h-2.1V16h2.1V14.8z"/>
				</g>
				<g id="icon_x2F_blue_x2F_-g-icon_x5F_product_x5F_compatibility">
					<g id="Oval-7-Copy-17">
						<path class="st1" d="M21,41C10,41,1,32,1,21C1,10,10,1,21,1s20,9,20,20C41,32,32,41,21,41z M21,2C10.5,2,2,10.5,2,21
							s8.5,19,19,19s19-8.5,19-19S31.5,2,21,2z"/>
					</g>
					<g id="Group-2" transform="translate(3.000000, 3.000000)">
						<g id="Oval-7-Copy-17_1_">
						</g>
						<defs>
							<filter id="Adobe_OpacityMaskFilter" filterUnits="userSpaceOnUse" x="-5" y="6" width="46" height="24">
								<feColorMatrix  type="matrix" values="1 0 0 0 0  0 1 0 0 0  0 0 1 0 0  0 0 0 1 0"/>
							</filter>
						</defs>
						<mask maskUnits="userSpaceOnUse" x="-5" y="6" width="46" height="24" id="mask-2_1_">
							<g class="st2">
								<circle id="path-1_1_" class="st3" cx="18" cy="18" r="18"/>
							</g>
						</mask>
						<g id="Group" class="st4">
							<g transform="translate(-5.000000, 6.000000)">
								<g id="Rectangle">
									<path class="st1" d="M27.5,24h-9c-1.4,0-2.5-1.1-2.5-2.5v-19C16,1.1,17.1,0,18.5,0h9C28.9,0,30,1.1,30,2.5v19
										C30,22.9,28.9,24,27.5,24z M18.5,1C17.7,1,17,1.7,17,2.5v19c0,0.8,0.7,1.5,1.5,1.5h9c0.8,0,1.5-0.7,1.5-1.5v-19
										C29,1.7,28.3,1,27.5,1H18.5z"/>
								</g>
								<g id="Combined-Shape">
									<path class="st1" d="M27,22.5h-8c-0.8,0-1.5-0.7-1.5-1.5V3c0-0.8,0.7-1.5,1.5-1.5h1c0.3,0,0.5,0.2,0.5,0.5
										c0,0.3,0.2,0.5,0.5,0.5h4c0.3,0,0.5-0.2,0.5-0.5c0-0.3,0.2-0.5,0.5-0.5h1c0.8,0,1.5,0.7,1.5,1.5v18
										C28.5,21.8,27.8,22.5,27,22.5z M19,2.5c-0.3,0-0.5,0.2-0.5,0.5v18c0,0.3,0.2,0.5,0.5,0.5h8c0.3,0,0.5-0.2,0.5-0.5V3
										c0-0.3-0.2-0.5-0.5-0.5h-0.6c-0.2,0.6-0.8,1-1.4,1h-4c-0.7,0-1.2-0.4-1.4-1H19z"/>
								</g>
								<g id="Rectangle-Copy">
									<path class="st1" d="M43.5,24h-9c-1.4,0-2.5-1.1-2.5-2.5v-19C32,1.1,33.1,0,34.5,0h9C44.9,0,46,1.1,46,2.5v19
										C46,22.9,44.9,24,43.5,24z M34.5,1C33.7,1,33,1.7,33,2.5v19c0,0.8,0.7,1.5,1.5,1.5h9c0.8,0,1.5-0.7,1.5-1.5v-19
										C45,1.7,44.3,1,43.5,1H34.5z"/>
								</g>
								<g id="Rectangle-Copy_1_">
									<path class="st1" d="M43.5,22h-9c-1.4,0-2.5-1.1-2.5-2.5v-15C32,3.1,33.1,2,34.5,2h9C44.9,2,46,3.1,46,4.5v15
										C46,20.9,44.9,22,43.5,22z M34.5,3C33.7,3,33,3.7,33,4.5v15c0,0.8,0.7,1.5,1.5,1.5h9c0.8,0,1.5-0.7,1.5-1.5v-15
										C45,3.7,44.3,3,43.5,3H34.5z"/>
								</g>
								<g id="Rectangle-Copy-2">
									<path class="st1" d="M11.5,24h-9C1.1,24,0,22.9,0,21.5v-19C0,1.1,1.1,0,2.5,0h9C12.9,0,14,1.1,14,2.5v19
										C14,22.9,12.9,24,11.5,24z M2.5,1C1.7,1,1,1.7,1,2.5v19C1,22.3,1.7,23,2.5,23h9c0.8,0,1.5-0.7,1.5-1.5v-19
										C13,1.7,12.3,1,11.5,1H2.5z"/>
								</g>
								<g id="Rectangle-Copy-2_1_">
									<path class="st1" d="M10.5,22h-7C2.7,22,2,21.3,2,20.5v-17C2,2.7,2.7,2,3.5,2h7C11.3,2,12,2.7,12,3.5v17
										C12,21.3,11.3,22,10.5,22z M3.5,3C3.2,3,3,3.2,3,3.5v17C3,20.8,3.2,21,3.5,21h7c0.3,0,0.5-0.2,0.5-0.5v-17
										C11,3.2,10.8,3,10.5,3H3.5z"/>
								</g>
							</g>
						</g>
					</g>
				</g>
			</g>
		</g>
	</g>
</g>
</svg>
