<?xml version="1.0" encoding="utf-8"?>
<!-- Generator: Adobe Illustrator 22.1.0, SVG Export Plug-In . SVG Version: 6.00 Build 0)  -->
<svg version="1.1" id="Layer_1" xmlns="http://www.w3.org/2000/svg" xmlns:xlink="http://www.w3.org/1999/xlink" x="0px" y="0px"
	 viewBox="0 0 142 40" style="enable-background:new 0 0 142 40;" xml:space="preserve">
<style type="text/css">
	.st0{fill:#0075FF;}
	.st1{enable-background:new    ;}
</style>
<title>Group 38</title>
<desc>Created with Sketch.</desc>
<g id="Q1-Webpage">
	<g id="OMNIA_Q1_1920px_cn" transform="translate(-976.000000, -3912.000000)">
		<g id="Group-38" transform="translate(975.000000, 3911.000000)">
			<g id="icon_x2F_blue_x2F_-g-icon_x5F_qc">
				<g id="Group-2" transform="translate(1.000000, 1.000000)">
					<g id="Oval-7">
						<path class="st0" d="M20,40C9,40,0,31,0,20C0,9,9,0,20,0s20,9,20,20C40,31,31,40,20,40z M20,1C9.5,1,1,9.5,1,20s8.5,19,19,19
							s19-8.5,19-19S30.5,1,20,1z"/>
					</g>
					<g id="Group" transform="translate(7.000000, 8.000000)">
						<g id="Path-2">
							<path class="st0" d="M9.7,24.5c-0.1,0-0.1,0-0.2,0c-0.3-0.1-0.4-0.4-0.4-0.6l2-10.4H6.8c-0.2,0-0.3-0.1-0.4-0.2
								c-0.1-0.1-0.1-0.3-0.1-0.5l3.6-13c0.1-0.2,0.3-0.4,0.5-0.4h5.1c0.2,0,0.3,0.1,0.4,0.2C16-0.2,16.1,0,16,0.1l-2.4,8.7h4.4
								c0.2,0,0.4,0.1,0.5,0.3c0.1,0.2,0.1,0.4,0,0.5l-8.4,14.6C10.1,24.4,9.9,24.5,9.7,24.5z M7.5,12.4h4.3c0.2,0,0.3,0.1,0.4,0.2
								c0.1,0.1,0.1,0.3,0.1,0.5l-1.5,7.8L17.1,10h-4.2c-0.2,0-0.3-0.1-0.4-0.2c-0.1-0.1-0.1-0.3-0.1-0.5l2.4-8.7h-4L7.5,12.4z"/>
						</g>
						<g id="Rectangle-2">
							<path class="st0" d="M21.6,18.5h-4.1c-0.3,0-0.5-0.2-0.5-0.5s0.2-0.5,0.5-0.5h4.1c0.5,0,0.9-0.5,0.9-1.1V6.5
								c0-0.6-0.4-1.1-0.9-1.1h-3.3c-0.3,0-0.5-0.2-0.5-0.5s0.2-0.5,0.5-0.5h3.3c1.1,0,2,1,2,2.2v9.8C23.5,17.6,22.6,18.5,21.6,18.5
								z M6.1,18.5H2.1c-1.1,0-2.1-1-2.1-2.2V6.5c0-1.2,0.9-2.2,2.1-2.2h4c0.3,0,0.5,0.2,0.5,0.5S6.3,5.5,6,5.5h-4
								c-0.5,0-1,0.5-1,1.1v9.8c0,0.6,0.4,1.1,1,1.1h4.1c0.3,0,0.5,0.2,0.5,0.5S6.4,18.5,6.1,18.5z"/>
						</g>
						<g id="Rectangle-2_1_">
							<path class="st0" d="M25.8,15.3h-0.6c-0.3,0-0.5-0.2-0.5-0.5V8.2c0-0.3,0.2-0.5,0.5-0.5h0.6c1.2,0,2.2,1,2.2,2.2v3.2
								C28,14.3,27,15.3,25.8,15.3z M25.8,14.2L25.8,14.2c0.7,0,1.1-0.5,1.1-1.1V9.8c0-0.6-0.5-1.1-1.1-1.1h0V14.2z"/>
						</g>
					</g>
				</g>
			</g>
			<g class="st1">
				<path class="st0" d="M64.5,13.6v1.8H70v1h-5.5v2.1h3.8v0.9c-0.8,1.6-1.9,2.9-3.4,4c0.7,0.4,1.5,0.8,2.3,1.1c1,0.4,2.1,0.7,3.2,1
					l-0.6,0.9c-1.2-0.3-2.4-0.7-3.4-1.2c-0.9-0.4-1.6-0.8-2.3-1.2c-1.6,1-3.5,1.8-5.7,2.4l-0.6-0.9c2.1-0.5,4-1.2,5.5-2.1
					c-0.7-0.5-1.4-1.2-1.9-1.9c-0.5-0.6-0.9-1.4-1.1-2.1h-1.1v-0.9h4.4v-2.1H58v-1h5.4v-1.8H64.5z M67.1,19.5h-6
					c0.3,0.7,0.6,1.4,1.2,2c0.5,0.6,1.1,1.1,1.7,1.5C65.3,21.9,66.4,20.8,67.1,19.5z"/>
				<path class="st0" d="M75.7,20.2c-0.4,0.2-0.9,0.5-1.3,0.7v4.2c0,0.7-0.4,1.1-1.2,1.1H72l-0.2-1c0.4,0,0.8,0.1,1.1,0.1
					c0.3,0,0.5-0.2,0.5-0.5v-3.5c-0.5,0.2-1.1,0.4-1.6,0.6l-0.2-1c0.6-0.2,1.2-0.4,1.8-0.6v-3.2h-1.7v-1h1.7v-2.6h1v2.6H76v1h-1.6
					V20c0.4-0.2,0.9-0.5,1.3-0.7V20.2z M81.8,17.6c0.4-0.7,0.7-1.5,1-2.5l0.9,0.2c-0.3,0.8-0.6,1.6-0.9,2.2h1.1v0.9h-4.8
					c-0.1,0.4-0.1,0.8-0.2,1.2h5.2v0.9h-5.4c-0.1,0.4-0.2,0.7-0.2,1.1h4.8v0.8c-0.4,0.9-0.9,1.6-1.7,2.2c0.8,0.4,1.7,0.7,2.8,0.9
					L84,26.3c-1.2-0.3-2.3-0.7-3.2-1.2c-0.8,0.5-1.8,0.9-3,1.2l-0.5-0.8c1-0.3,1.9-0.6,2.7-0.9c-0.7-0.6-1.3-1.2-1.7-1.9l-0.2,0.4
					c-0.5,1.2-1.2,2.3-2.1,3.3l-0.6-0.8c0.9-0.9,1.5-1.8,1.9-2.9c0.2-0.6,0.4-1.3,0.6-2.2h-1.8v-0.9h2c0.1-0.4,0.1-0.8,0.1-1.2h-1.7
					v-0.9H81.8z M84.1,14.5c-1.9,0.5-4.4,0.8-7.5,0.8l-0.3-0.9c2.9,0,5.4-0.2,7.3-0.7L84.1,14.5z M78.6,17.1l-0.7,0.3
					c-0.3-0.6-0.6-1.1-0.9-1.6l0.7-0.3C78,16,78.3,16.6,78.6,17.1z M82.4,22.4h-3.3c0.5,0.7,1,1.2,1.7,1.7
					C81.5,23.6,82,23,82.4,22.4z M81,17.1l-0.7,0.3c-0.3-0.6-0.5-1.2-0.9-1.7l0.7-0.3C80.5,16,80.8,16.5,81,17.1z"/>
				<path class="st0" d="M98.6,16.3c0.8,1,1.2,2.2,1.2,3.7c0,1.5-0.4,2.7-1.2,3.7c0,0-0.1,0.1-0.1,0.1c0.4,0.5,0.8,1,1.1,1.6
					L98.9,26c-0.4-0.6-0.8-1.1-1.1-1.6c-0.8,0.5-1.7,0.8-2.7,0.8c-1.5,0-2.7-0.5-3.5-1.5c-0.8-1-1.2-2.2-1.2-3.7
					c0-1.5,0.4-2.7,1.2-3.7c0.9-1,2-1.5,3.6-1.5C96.5,14.8,97.7,15.3,98.6,16.3z M92.3,17c-0.6,0.8-0.9,1.8-0.9,3
					c0,1.2,0.3,2.2,0.9,3c0.6,0.8,1.6,1.2,2.7,1.2c0.8,0,1.5-0.2,2.1-0.6c-0.6-0.7-1.1-1.4-1.7-2l0.7-0.7c0.6,0.6,1.1,1.3,1.7,1.9
					c0.6-0.7,0.8-1.7,0.8-2.9c0-1.3-0.3-2.3-0.9-3c-0.6-0.8-1.5-1.1-2.7-1.1S93,16.2,92.3,17z"/>
				<path class="st0" d="M108.5,15.7c0.8,0.6,1.2,1.4,1.3,2.4h-1.1c-0.1-0.7-0.5-1.3-1.1-1.7c-0.5-0.4-1.2-0.6-2-0.6
					c-1.2,0-2.1,0.4-2.7,1.2c-0.6,0.8-0.9,1.8-0.9,3c0,1.2,0.3,2.2,0.9,3c0.6,0.8,1.5,1.2,2.7,1.2c0.8,0,1.5-0.2,2-0.6
					c0.6-0.4,1-1.1,1.2-2h1.1c-0.2,1.2-0.7,2.1-1.6,2.7c-0.8,0.6-1.7,0.9-2.8,0.9c-1.6,0-2.7-0.5-3.6-1.5c-0.8-0.9-1.1-2.1-1.1-3.6
					c0-1.5,0.4-2.7,1.1-3.7c0.8-1.1,2-1.6,3.6-1.6C106.8,14.8,107.8,15.1,108.5,15.7z"/>
				<path class="st0" d="M117.1,16.3c0,1.4-0.2,2.7-0.5,4l-0.8-0.2c0.3-1.2,0.5-2.5,0.5-3.8L117.1,16.3z M118.8,13.6v12.7h-1V13.6
					H118.8z M120.9,19l-0.8,0.2c-0.3-1-0.6-2.1-1-3l0.8-0.3C120.2,16.8,120.6,17.9,120.9,19z M123.4,15.7v-2.1h1v2.1h3v4.2h1.1v1
					H124c-0.6,2.5-1.9,4.3-3.9,5.4l-0.6-0.8c1.8-1,3-2.5,3.5-4.6h-2.7v-1h2.9c0.1-0.6,0.2-1.3,0.2-2.1v-1.2h-2.5v-0.9H123.4z
					 M124.4,17.6c0,0.8-0.1,1.6-0.2,2.3h2.2v-3.3h-2V17.6z M124.6,22.2l0.7-0.6c1,0.9,2.1,2.3,3.5,4.1l-0.7,0.7
					C126.9,24.8,125.7,23.4,124.6,22.2z"/>
				<path class="st0" d="M141.6,20.7l-0.8,0.6c-0.3-0.5-0.6-1-0.9-1.5c-0.6,0.1-1.3,0.2-1.9,0.2v4.6c0,0.4,0.2,0.6,0.6,0.6h1.7
					c0.3,0,0.5-0.1,0.7-0.2c0.2-0.2,0.4-0.9,0.5-2l1,0.3c-0.1,1.4-0.3,2.2-0.6,2.5c-0.3,0.2-0.7,0.4-1.2,0.4h-2.2
					c-0.9,0-1.3-0.5-1.3-1.4v-4.7c-0.7,0.1-1.3,0.1-2,0.2c-0.1,1.6-0.4,2.9-1,3.6c-0.6,0.9-1.6,1.7-3,2.4l-0.6-0.8
					c1.3-0.6,2.2-1.2,2.7-2c0.5-0.7,0.8-1.7,0.9-3.1c-0.8,0.1-1.5,0.1-2.3,0.1l-0.2-0.9c0.1,0,0.3-0.1,0.4-0.1
					c0.7-0.5,1.6-1.7,2.6-3.4h-4v-0.9h4.5c0.3-0.5,0.6-1.1,0.9-1.7l1,0.4c-0.3,0.4-0.5,0.9-0.7,1.3h5.9v0.9h-6.4
					c-0.9,1.5-1.8,2.6-2.5,3.4c2.1-0.2,4.2-0.4,6.2-0.6c-0.4-0.5-0.8-1.1-1.2-1.6l0.8-0.5C140.1,18.4,141,19.6,141.6,20.7z"/>
			</g>
		</g>
	</g>
</g>
</svg>
