<?xml version="1.0" encoding="utf-8"?>
<!-- Generator: Adobe Illustrator 22.1.0, SVG Export Plug-In . SVG Version: 6.00 Build 0)  -->
<svg version="1.1" id="Layer_1" xmlns="http://www.w3.org/2000/svg" xmlns:xlink="http://www.w3.org/1999/xlink" x="0px" y="0px"
	 viewBox="0 0 337 40" style="enable-background:new 0 0 337 40;" xml:space="preserve">
<style type="text/css">
	.st0{enable-background:new    ;}
	.st1{fill:#0075FF;}
</style>
<title>Group 57</title>
<desc>Created with Sketch.</desc>
<g id="Q1-Webpage">
	<g id="OMNIA_Q1_1440px_eng" transform="translate(-883.000000, -10048.000000)">
		<g id="Group-5" transform="translate(12.000000, 9381.000000)">
			<g id="Group-57" transform="translate(872.000000, 666.000000)">
				<g id="Group-32-Copy-3" transform="translate(199.000000, 0.000000)">
					<g class="st0">
						<path class="st1" d="M61.3,15.1c2.9,0,4.7,1.8,4.7,4.9c0,3.1-1.7,4.9-4.7,4.9H58v-9.9H61.3z M59.2,23.9h2
							c2.2,0,3.5-1.4,3.5-3.8c0-2.5-1.2-3.8-3.5-3.8h-2V23.9z"/>
						<path class="st1" d="M67.2,16c0-0.4,0.3-0.7,0.7-0.7c0.4,0,0.7,0.3,0.7,0.7c0,0.4-0.3,0.7-0.7,0.7
							C67.5,16.7,67.2,16.4,67.2,16z M67.3,17.9h1.2V25h-1.2V17.9z"/>
						<path class="st1" d="M70.1,17.9h1.1V19h0c0.3-0.8,1.1-1.3,2-1.3c1,0,1.7,0.5,2,1.4h0c0.4-0.8,1.2-1.4,2.2-1.4
							c1.4,0,2.3,0.9,2.3,2.3V25h-1.2v-4.6c0-1-0.5-1.5-1.5-1.5c-0.9,0-1.6,0.7-1.6,1.7V25h-1.2v-4.8c0-0.9-0.6-1.4-1.5-1.4
							c-0.9,0-1.6,0.7-1.6,1.7V25h-1.2V17.9z"/>
						<path class="st1" d="M85.5,23.8L85.5,23.8l0,1.2h-1.1v-9.9h1.2v3.9h0c0.4-0.8,1.3-1.3,2.3-1.3c1.8,0,3,1.4,3,3.7
							c0,2.2-1.2,3.7-3,3.7C86.7,25.1,85.9,24.6,85.5,23.8z M85.5,21.4c0,1.6,0.9,2.6,2.1,2.6c1.3,0,2-1,2-2.6c0-1.6-0.8-2.6-2-2.6
							C86.3,18.8,85.5,19.9,85.5,21.4z"/>
						<path class="st1" d="M92.1,15.1h1.2V25h-1.2V15.1z"/>
						<path class="st1" d="M100.7,25h-1.1v-1.2h0c-0.4,0.8-1.2,1.3-2.3,1.3c-1.6,0-2.5-1-2.5-2.6v-4.6H96v4.4c0,1.2,0.5,1.8,1.6,1.8
							c1.2,0,1.9-0.8,1.9-2v-4.2h1.2V25z"/>
						<path class="st1" d="M108.1,23c-0.2,1.2-1.4,2.2-3,2.2c-2,0-3.3-1.4-3.3-3.7c0-2.2,1.3-3.7,3.2-3.7c1.9,0,3.1,1.4,3.1,3.5v0.5
							h-5.1v0.1c0,1.4,0.8,2.3,2.1,2.3c0.9,0,1.6-0.5,1.8-1.1H108.1z M103.1,20.8h3.9c0-1.2-0.8-2-1.9-2
							C104,18.8,103.2,19.7,103.1,20.8z"/>
						<path class="st1" d="M112.3,15.1h1.2V25h-1.2V15.1z"/>
						<path class="st1" d="M115.1,16c0-0.4,0.3-0.7,0.7-0.7c0.4,0,0.7,0.3,0.7,0.7c0,0.4-0.3,0.7-0.7,0.7
							C115.4,16.7,115.1,16.4,115.1,16z M115.2,17.9h1.2V25h-1.2V17.9z"/>
						<path class="st1" d="M117.9,25.6h1.2c0.2,0.6,0.9,1.1,1.8,1.1c1.2,0,2-0.7,2-1.8v-1.1h0c-0.4,0.8-1.3,1.3-2.3,1.3
							c-1.8,0-3-1.4-3-3.6c0-2.2,1.2-3.7,3-3.7c1,0,1.8,0.5,2.3,1.3h0v-1.2h1.1v7c0,1.7-1.3,2.8-3.2,2.8
							C119.4,27.7,118.1,26.8,117.9,25.6z M122.9,21.4c0-1.6-0.8-2.6-2.1-2.6c-1.2,0-2,1-2,2.6s0.8,2.6,2,2.6
							C122.1,24,122.9,23,122.9,21.4z"/>
						<path class="st1" d="M125.7,15.1h1.2V19h0c0.4-0.8,1.2-1.3,2.3-1.3c1.6,0,2.5,1.1,2.5,2.6V25h-1.2v-4.4c0-1.1-0.6-1.8-1.7-1.8
							c-1.2,0-1.9,0.8-1.9,2V25h-1.2V15.1z"/>
						<path class="st1" d="M134.8,16.2v1.7h1.4v1h-1.4v4.2c0,0.6,0.3,0.9,0.9,0.9c0.1,0,0.4,0,0.5,0v1c-0.1,0-0.5,0.1-0.8,0.1
							c-1.3,0-1.8-0.5-1.8-1.9v-4.3h-1.1v-1h1.1v-1.7H134.8z"/>
					</g>
					<g id="icon_x2F_blue_x2F_-g-icon_x5F_light_x5F_design">
						<g id="Oval-7-Copy-20">
							<path class="st1" d="M21,41C10,41,1,32,1,21C1,10,10,1,21,1s20,9,20,20C41,32,32,41,21,41z M21,2C10.5,2,2,10.5,2,21
								s8.5,19,19,19s19-8.5,19-19S31.5,2,21,2z"/>
						</g>
						<g id="Group" transform="translate(8.000000, 13.000000)">
							<g id="Oval-2">
								<path class="st1" d="M13,14.6c-6.4,0-11.6-3.4-11.6-7.5c0-4.2,5.2-7.5,11.6-7.5s11.6,3.4,11.6,7.5
									C24.6,11.2,19.4,14.6,13,14.6z M13,0.5c-5.9,0-10.7,3-10.7,6.6c0,3.6,4.8,6.6,10.7,6.6s10.7-3,10.7-6.6
									C23.7,3.4,18.9,0.5,13,0.5z"/>
							</g>
							<g id="Oval-2_1_">
								<path class="st1" d="M13,17.5c-7.4,0-13.5-4-13.5-9s6-9,13.5-9s13.5,4,13.5,9S20.4,17.5,13,17.5z M13,0.5
									c-6.9,0-12.5,3.6-12.5,8s5.6,8,12.5,8s12.5-3.6,12.5-8S19.9,0.5,13,0.5z"/>
							</g>
							<g id="Oval-2_2_">
								<path class="st1" d="M13,11.8c-4.9,0-8.8-2.3-8.8-5.2c0-2.9,3.9-5.2,8.8-5.2s8.8,2.3,8.8,5.2C21.8,9.5,17.9,11.8,13,11.8z
									 M13,2.4c-4.3,0-7.9,1.9-7.9,4.3c0,2.3,3.6,4.3,7.9,4.3s7.9-1.9,7.9-4.3C20.9,4.3,17.3,2.4,13,2.4z"/>
							</g>
							<g id="Oval-2_3_">
								<path class="st1" d="M13,9c-2.9,0-5.1-1.2-5.1-2.8c0-1.6,2.2-2.8,5.1-2.8s5.1,1.2,5.1,2.8C18.1,7.7,15.9,9,13,9z M13,4.2
									c-2.5,0-4.2,1-4.2,1.9C8.8,7,10.5,8,13,8s4.2-1,4.2-1.9C17.2,5.2,15.5,4.2,13,4.2z"/>
							</g>
						</g>
						<g id="Line-2">
							<path class="st1" d="M20.9,38.9c-0.3,0-0.5-0.2-0.5-0.5v-2c0-0.3,0.2-0.5,0.5-0.5s0.5,0.2,0.5,0.5v2
								C21.5,38.7,21.2,38.9,20.9,38.9z M10.1,35.1c-0.1,0-0.2,0-0.3-0.1c-0.2-0.2-0.3-0.5-0.1-0.8l1.3-1.6c0.2-0.2,0.5-0.3,0.8-0.1
								c0.2,0.2,0.3,0.5,0.1,0.8l-1.3,1.6C10.4,35,10.3,35.1,10.1,35.1z M31.9,34.7c-0.2,0-0.3-0.1-0.4-0.2L30.2,33
								c-0.2-0.2-0.2-0.6,0.1-0.8c0.2-0.2,0.6-0.2,0.8,0.1l1.3,1.6c0.2,0.2,0.2,0.6-0.1,0.8C32.1,34.7,32,34.7,31.9,34.7z M4.5,24.9
								c-0.3,0-0.5-0.2-0.5-0.4c-0.1-0.3,0.1-0.6,0.4-0.6l2-0.4C6.7,23.5,7,23.7,7,24c0.1,0.3-0.1,0.6-0.4,0.6L4.5,24.9
								C4.6,24.9,4.5,24.9,4.5,24.9z M37.8,24.4C37.8,24.4,37.8,24.4,37.8,24.4L35.7,24c-0.3-0.1-0.5-0.3-0.4-0.6
								c0.1-0.3,0.3-0.5,0.6-0.4l2,0.4c0.3,0.1,0.5,0.3,0.4,0.6C38.3,24.2,38.1,24.4,37.8,24.4z M8.5,14.3c-0.1,0-0.2,0-0.3-0.1
								l-1.8-1c-0.3-0.1-0.3-0.5-0.2-0.7c0.1-0.3,0.5-0.3,0.7-0.2l1.8,1C9,13.5,9.1,13.8,8.9,14C8.8,14.2,8.7,14.3,8.5,14.3z
								 M34.3,13.8c-0.2,0-0.4-0.1-0.5-0.3c-0.1-0.3-0.1-0.6,0.2-0.7l1.8-1c0.3-0.1,0.6-0.1,0.7,0.2c0.1,0.3,0.1,0.6-0.2,0.7l-1.8,1
								C34.4,13.8,34.4,13.8,34.3,13.8z M16.4,7.5c-0.2,0-0.4-0.1-0.5-0.4l-0.7-1.9c-0.1-0.3,0-0.6,0.3-0.7c0.3-0.1,0.6,0,0.7,0.3
								l0.7,1.9c0.1,0.3,0,0.6-0.3,0.7C16.5,7.4,16.5,7.5,16.4,7.5z M26.6,7.3c-0.1,0-0.1,0-0.2,0c-0.3-0.1-0.4-0.4-0.3-0.7l0.7-1.9
								c0.1-0.3,0.4-0.4,0.7-0.3c0.3,0.1,0.4,0.4,0.3,0.7l-0.7,1.9C27,7.1,26.8,7.3,26.6,7.3z"/>
						</g>
					</g>
				</g>
				<g id="Line-2-Copy-2">
					<rect x="0" y="21" class="st1" width="183" height="1"/>
				</g>
			</g>
		</g>
	</g>
</g>
</svg>
