<?xml version="1.0" encoding="utf-8"?>
<!-- Generator: Adobe Illustrator 22.1.0, SVG Export Plug-In . SVG Version: 6.00 Build 0)  -->
<svg version="1.1" id="Layer_1" xmlns="http://www.w3.org/2000/svg" xmlns:xlink="http://www.w3.org/1999/xlink" x="0px" y="0px"
	 viewBox="0 0 198 40" style="enable-background:new 0 0 198 40;" xml:space="preserve">
<style type="text/css">
	.st0{fill:#0075FF;}
	.st1{enable-background:new    ;}
</style>
<title>Group 38</title>
<desc>Created with Sketch.</desc>
<g id="Q1-Webpage">
	<g id="OMNIA_Q1_1440px_eng" transform="translate(-736.000000, -3828.000000)">
		<g id="Group-38" transform="translate(735.000000, 3827.000000)">
			<g id="icon_x2F_blue_x2F_-g-icon_x5F_qc">
				<g id="Group-2" transform="translate(1.000000, 1.000000)">
					<g id="Oval-7">
						<path class="st0" d="M20,40C9,40,0,31,0,20C0,9,9,0,20,0s20,9,20,20C40,31,31,40,20,40z M20,1C9.5,1,1,9.5,1,20s8.5,19,19,19
							s19-8.5,19-19S30.5,1,20,1z"/>
					</g>
					<g id="Group" transform="translate(7.000000, 8.000000)">
						<g id="Path-2">
							<path class="st0" d="M9.7,24.5c-0.1,0-0.1,0-0.2,0c-0.3-0.1-0.4-0.4-0.4-0.6l2-10.4H6.8c-0.2,0-0.3-0.1-0.4-0.2
								c-0.1-0.1-0.1-0.3-0.1-0.5l3.6-13c0.1-0.2,0.3-0.4,0.5-0.4h5.1c0.2,0,0.3,0.1,0.4,0.2C16-0.2,16.1,0,16,0.1l-2.4,8.7h4.4
								c0.2,0,0.4,0.1,0.5,0.3c0.1,0.2,0.1,0.4,0,0.5l-8.4,14.6C10.1,24.4,9.9,24.5,9.7,24.5z M7.5,12.4h4.3c0.2,0,0.3,0.1,0.4,0.2
								c0.1,0.1,0.1,0.3,0.1,0.5l-1.5,7.8L17.1,10h-4.2c-0.2,0-0.3-0.1-0.4-0.2c-0.1-0.1-0.1-0.3-0.1-0.5l2.4-8.7h-4L7.5,12.4z"/>
						</g>
						<g id="Rectangle-2">
							<path class="st0" d="M21.6,18.5h-4.1c-0.3,0-0.5-0.2-0.5-0.5s0.2-0.5,0.5-0.5h4.1c0.5,0,0.9-0.5,0.9-1.1V6.5
								c0-0.6-0.4-1.1-0.9-1.1h-3.3c-0.3,0-0.5-0.2-0.5-0.5s0.2-0.5,0.5-0.5h3.3c1.1,0,2,1,2,2.2v9.8C23.5,17.6,22.6,18.5,21.6,18.5
								z M6.1,18.5H2.1c-1.1,0-2.1-1-2.1-2.2V6.5c0-1.2,0.9-2.2,2.1-2.2h4c0.3,0,0.5,0.2,0.5,0.5S6.3,5.5,6,5.5h-4
								c-0.5,0-1,0.5-1,1.1v9.8c0,0.6,0.4,1.1,1,1.1h4.1c0.3,0,0.5,0.2,0.5,0.5S6.4,18.5,6.1,18.5z"/>
						</g>
						<g id="Rectangle-2_1_">
							<path class="st0" d="M25.8,15.3h-0.6c-0.3,0-0.5-0.2-0.5-0.5V8.2c0-0.3,0.2-0.5,0.5-0.5h0.6c1.2,0,2.2,1,2.2,2.2v3.2
								C28,14.3,27,15.3,25.8,15.3z M25.8,14.2L25.8,14.2c0.7,0,1.1-0.5,1.1-1.1V9.8c0-0.6-0.5-1.1-1.1-1.1h0V14.2z"/>
						</g>
					</g>
				</g>
			</g>
			<g class="st1">
				<path class="st0" d="M58.7,22.3c0.1,1.1,1.1,1.8,2.5,1.8c1.3,0,2.3-0.7,2.3-1.7c0-0.8-0.6-1.3-1.9-1.7l-1.3-0.3
					c-1.8-0.5-2.6-1.3-2.6-2.6c0-1.6,1.4-2.8,3.5-2.8c2,0,3.4,1.2,3.4,2.8h-1.2c-0.1-1.1-1-1.7-2.2-1.7c-1.3,0-2.2,0.7-2.2,1.6
					c0,0.7,0.5,1.2,1.9,1.5l1,0.3c2,0.5,2.9,1.3,2.9,2.7c0,1.8-1.4,2.9-3.7,2.9c-2.1,0-3.5-1.1-3.7-2.9H58.7z"/>
				<path class="st0" d="M71.9,25h-1.1v-1.2h0c-0.4,0.8-1.2,1.3-2.3,1.3c-1.6,0-2.5-1-2.5-2.6v-4.6h1.2v4.4c0,1.2,0.5,1.8,1.6,1.8
					c1.2,0,1.9-0.8,1.9-2v-4.2h1.2V25z"/>
				<path class="st0" d="M80,21.4c0,2.2-1.2,3.7-3,3.7c-1,0-1.8-0.5-2.3-1.3h0v3.5h-1.2v-9.5h1.1v1.2h0c0.4-0.8,1.3-1.3,2.3-1.3
					C78.7,17.8,80,19.2,80,21.4z M78.7,21.4c0-1.6-0.8-2.6-2.1-2.6c-1.2,0-2,1.1-2,2.6c0,1.6,0.8,2.6,2,2.6
					C77.9,24.1,78.7,23.1,78.7,21.4z"/>
				<path class="st0" d="M87.6,21.4c0,2.2-1.2,3.7-3,3.7c-1,0-1.8-0.5-2.3-1.3h0v3.5h-1.2v-9.5h1.1v1.2h0c0.4-0.8,1.3-1.3,2.3-1.3
					C86.4,17.8,87.6,19.2,87.6,21.4z M86.4,21.4c0-1.6-0.8-2.6-2.1-2.6c-1.2,0-2,1.1-2,2.6c0,1.6,0.8,2.6,2,2.6
					C85.6,24.1,86.4,23.1,86.4,21.4z"/>
				<path class="st0" d="M88.5,21.4c0-2.3,1.3-3.7,3.3-3.7c2,0,3.3,1.4,3.3,3.7c0,2.3-1.3,3.7-3.3,3.7
					C89.8,25.1,88.5,23.7,88.5,21.4z M93.9,21.4c0-1.7-0.8-2.6-2.1-2.6s-2.1,1-2.1,2.6s0.8,2.6,2.1,2.6S93.9,23.1,93.9,21.4z"/>
				<path class="st0" d="M96.3,17.9h1.1v1.2h0c0.2-0.8,0.9-1.3,1.7-1.3c0.2,0,0.4,0,0.5,0V19c-0.1,0-0.3-0.1-0.6-0.1
					c-0.9,0-1.5,0.7-1.5,1.7V25h-1.2V17.9z"/>
				<path class="st0" d="M102.2,16.2v1.7h1.4v1h-1.4v4.2c0,0.6,0.3,0.9,0.9,0.9c0.1,0,0.4,0,0.5,0v1c-0.1,0-0.5,0.1-0.8,0.1
					c-1.3,0-1.8-0.5-1.8-1.9v-4.3h-1.1v-1h1.1v-1.7H102.2z"/>
				<path class="st0" d="M107.3,17.8c1.5,0,2.5,0.9,2.6,2.1h-1.1c-0.1-0.7-0.6-1.1-1.5-1.1c-0.9,0-1.4,0.4-1.4,1.1
					c0,0.5,0.4,0.8,1.2,1l1.1,0.3c1.4,0.4,2,0.9,2,1.9c0,1.2-1.2,2.1-2.8,2.1c-1.6,0-2.6-0.8-2.8-2.1h1.2c0.1,0.7,0.7,1.1,1.7,1.1
					s1.6-0.4,1.6-1.1c0-0.5-0.3-0.8-1.1-1l-1.3-0.3c-1.3-0.3-1.9-1-1.9-1.9C104.7,18.6,105.8,17.8,107.3,17.8z"/>
				<path class="st0" d="M119.2,19.1L119.2,19.1l0-1.2h1.1v9.5h-1.2v-3.6h0c-0.4,0.8-1.3,1.3-2.3,1.3c-1.8,0-3-1.4-3-3.7
					c0-2.2,1.2-3.7,3-3.7C117.9,17.8,118.7,18.3,119.2,19.1z M119.1,21.4c0-1.6-0.8-2.6-2.1-2.6c-1.2,0-2,1-2,2.6
					c0,1.6,0.8,2.6,2,2.6C118.3,24.1,119.1,23,119.1,21.4z"/>
				<path class="st0" d="M127.7,25h-1.1v-1.2h0c-0.4,0.8-1.2,1.3-2.3,1.3c-1.6,0-2.5-1-2.5-2.6v-4.6h1.2v4.4c0,1.2,0.5,1.8,1.6,1.8
					c1.2,0,1.9-0.8,1.9-2v-4.2h1.2V25z"/>
				<path class="st0" d="M129.2,16c0-0.4,0.3-0.7,0.7-0.7c0.4,0,0.7,0.3,0.7,0.7c0,0.4-0.3,0.7-0.7,0.7
					C129.5,16.7,129.2,16.4,129.2,16z M129.3,17.9h1.2V25h-1.2V17.9z"/>
				<path class="st0" d="M136.9,20.2c-0.2-0.8-0.8-1.4-1.8-1.4c-1.2,0-2.1,1-2.1,2.6c0,1.7,0.8,2.6,2.1,2.6c1,0,1.6-0.5,1.8-1.4h1.2
					c-0.2,1.4-1.4,2.4-3,2.4c-2,0-3.3-1.4-3.3-3.7c0-2.2,1.3-3.7,3.3-3.7c1.8,0,2.8,1.2,3,2.5H136.9z"/>
				<path class="st0" d="M143.5,17.9h1.4l-3.1,3.1l3.2,4h-1.4l-2.6-3.3l-0.7,0.6V25h-1.2v-9.9h1.2V21L143.5,17.9z"/>
				<path class="st0" d="M153.5,20.2c-0.2-0.8-0.8-1.4-1.8-1.4c-1.2,0-2.1,1-2.1,2.6c0,1.7,0.8,2.6,2.1,2.6c1,0,1.6-0.5,1.8-1.4h1.2
					c-0.2,1.4-1.4,2.4-3,2.4c-2,0-3.3-1.4-3.3-3.7c0-2.2,1.3-3.7,3.3-3.7c1.8,0,2.8,1.2,3,2.5H153.5z"/>
				<path class="st0" d="M155.9,15.1h1.2V19h0c0.4-0.8,1.2-1.3,2.3-1.3c1.6,0,2.5,1.1,2.5,2.6V25h-1.2v-4.4c0-1.1-0.6-1.8-1.7-1.8
					c-1.2,0-1.9,0.8-1.9,2V25h-1.2V15.1z"/>
				<path class="st0" d="M163.1,23c0-1.2,0.9-2,2.6-2.1l2-0.1v-0.6c0-0.9-0.6-1.4-1.6-1.4c-0.9,0-1.5,0.4-1.6,1.1h-1.1
					c0.1-1.2,1.1-2.2,2.8-2.2c1.7,0,2.7,0.9,2.7,2.3V25h-1.1v-1.2h0c-0.4,0.8-1.3,1.3-2.3,1.3C164,25.1,163.1,24.3,163.1,23z
					 M167.7,22.3v-0.6l-1.9,0.1c-1,0.1-1.5,0.5-1.5,1.2c0,0.7,0.6,1.1,1.4,1.1C166.8,24.1,167.7,23.3,167.7,22.3z"/>
				<path class="st0" d="M170.4,17.9h1.1v1.2h0c0.2-0.8,0.9-1.3,1.7-1.3c0.2,0,0.4,0,0.5,0V19c-0.1,0-0.3-0.1-0.6-0.1
					c-0.9,0-1.5,0.7-1.5,1.7V25h-1.2V17.9z"/>
				<path class="st0" d="M174.3,25.6h1.2c0.2,0.6,0.9,1.1,1.8,1.1c1.2,0,2-0.7,2-1.8v-1.1h0c-0.4,0.8-1.3,1.3-2.3,1.3
					c-1.8,0-3-1.4-3-3.6c0-2.2,1.2-3.7,3-3.7c1,0,1.8,0.5,2.3,1.3h0v-1.2h1.1v7c0,1.7-1.3,2.8-3.2,2.8
					C175.7,27.7,174.5,26.8,174.3,25.6z M179.3,21.4c0-1.6-0.8-2.6-2.1-2.6c-1.2,0-2,1-2,2.6s0.8,2.6,2,2.6
					C178.5,24,179.3,23,179.3,21.4z"/>
				<path class="st0" d="M182,16c0-0.4,0.3-0.7,0.7-0.7c0.4,0,0.7,0.3,0.7,0.7c0,0.4-0.3,0.7-0.7,0.7C182.3,16.7,182,16.4,182,16z
					 M182.1,17.9h1.2V25h-1.2V17.9z"/>
				<path class="st0" d="M184.9,17.9h1.1V19h0c0.4-0.8,1.2-1.3,2.3-1.3c1.6,0,2.5,1,2.5,2.6V25h-1.2v-4.4c0-1.1-0.5-1.8-1.6-1.8
					c-1.1,0-1.9,0.8-1.9,2V25h-1.2V17.9z"/>
				<path class="st0" d="M192.2,25.6h1.2c0.2,0.6,0.9,1.1,1.8,1.1c1.2,0,2-0.7,2-1.8v-1.1h0c-0.4,0.8-1.3,1.3-2.3,1.3
					c-1.8,0-3-1.4-3-3.6c0-2.2,1.2-3.7,3-3.7c1,0,1.8,0.5,2.3,1.3h0v-1.2h1.1v7c0,1.7-1.3,2.8-3.2,2.8
					C193.6,27.7,192.4,26.8,192.2,25.6z M197.2,21.4c0-1.6-0.8-2.6-2.1-2.6c-1.2,0-2,1-2,2.6s0.8,2.6,2,2.6
					C196.4,24,197.2,23,197.2,21.4z"/>
			</g>
		</g>
	</g>
</g>
</svg>
