<?xml version="1.0" encoding="utf-8"?>
<!-- Generator: Adobe Illustrator 22.1.0, SVG Export Plug-In . SVG Version: 6.00 Build 0)  -->
<svg version="1.1" id="Layer_1" xmlns="http://www.w3.org/2000/svg" xmlns:xlink="http://www.w3.org/1999/xlink" x="0px" y="0px"
	 viewBox="0 0 200 40" style="enable-background:new 0 0 200 40;" xml:space="preserve">
<style type="text/css">
	.st0{enable-background:new    ;}
	.st1{fill:#0075FF;}
</style>
<title>Group 32</title>
<desc>Created with Sketch.</desc>
<g id="Q1-Webpage">
	<g id="OMNIA_Q1_1920px_cn" transform="translate(-976.000000, -3845.000000)">
		<g id="Group-32_1_" transform="translate(975.000000, 3844.000000)">
			<g class="st0">
				<path class="st1" d="M65.9,16.3c0.8,1,1.2,2.2,1.2,3.7c0,1.5-0.4,2.7-1.2,3.7c0,0-0.1,0.1-0.1,0.1c0.4,0.5,0.8,1,1.1,1.6
					L66.2,26c-0.4-0.6-0.8-1.1-1.1-1.6c-0.8,0.5-1.7,0.8-2.7,0.8c-1.5,0-2.7-0.5-3.5-1.5c-0.8-1-1.2-2.2-1.2-3.7
					c0-1.5,0.4-2.7,1.2-3.7c0.9-1,2-1.5,3.6-1.5C63.9,14.8,65.1,15.3,65.9,16.3z M59.7,17c-0.6,0.8-0.9,1.8-0.9,3
					c0,1.2,0.3,2.2,0.9,3c0.6,0.8,1.6,1.2,2.7,1.2c0.8,0,1.5-0.2,2.1-0.6c-0.6-0.7-1.1-1.4-1.7-2l0.7-0.7c0.6,0.6,1.1,1.3,1.7,1.9
					c0.6-0.7,0.8-1.7,0.8-2.9c0-1.3-0.3-2.3-0.9-3c-0.6-0.8-1.5-1.1-2.7-1.1S60.3,16.2,59.7,17z"/>
				<path class="st1" d="M70.1,15.3c0.2,0.1,0.3,0.3,0.3,0.6c0,0.2-0.1,0.4-0.3,0.6c-0.2,0.2-0.4,0.2-0.6,0.2s-0.4-0.1-0.6-0.2
					c-0.2-0.2-0.2-0.4-0.2-0.6c0-0.3,0.1-0.4,0.2-0.6c0.2-0.2,0.4-0.2,0.6-0.2S70,15.1,70.1,15.3z M70.1,17.8V25H69v-7.2H70.1z"/>
				<path class="st1" d="M77.3,17.8l2.1,5.8l2.1-5.8h1.2L79.9,25h-1.1l-2.7-7.2H77.3z"/>
				<path class="st1" d="M86.9,15v10h-1.1v-8.6c-0.6,0.6-1.4,1.1-2.4,1.4v-1.1c0.4-0.1,0.9-0.3,1.4-0.6c0.5-0.3,0.9-0.6,1.2-1H86.9z
					"/>
				<path class="st1" d="M90.8,23.6c0.2,0.2,0.3,0.4,0.3,0.6c0,0.2-0.1,0.4-0.3,0.6c-0.2,0.2-0.4,0.3-0.6,0.3
					c-0.3,0-0.4-0.1-0.6-0.3c-0.2-0.2-0.3-0.4-0.3-0.6c0-0.3,0.1-0.4,0.3-0.6c0.2-0.2,0.4-0.3,0.6-0.3
					C90.4,23.3,90.6,23.4,90.8,23.6z"/>
				<path class="st1" d="M98.7,15.6c0.6,0.5,0.9,1.2,0.9,2.1c0,0.9-0.3,1.7-1,2.4c-0.4,0.4-1,0.9-2.1,1.6c-1.3,0.9-2,1.6-2.2,2.3
					h5.3v1h-6.7c0-0.9,0.3-1.7,1-2.5c0.4-0.4,1.1-1.1,2.2-1.8c0.8-0.6,1.3-1,1.6-1.2c0.5-0.5,0.8-1.1,0.8-1.8c0-0.6-0.2-1.1-0.5-1.4
					s-0.9-0.5-1.5-0.5c-0.7,0-1.2,0.2-1.6,0.7c-0.4,0.4-0.6,1.1-0.6,2H93c0-1.1,0.3-2,0.9-2.7c0.6-0.7,1.4-1,2.5-1
					C97.3,14.8,98.1,15.1,98.7,15.6z"/>
				<path class="st1" d="M102.9,23.6c0.2,0.2,0.3,0.4,0.3,0.6c0,0.2-0.1,0.4-0.3,0.6s-0.4,0.3-0.6,0.3c-0.3,0-0.4-0.1-0.6-0.3
					c-0.2-0.2-0.3-0.4-0.3-0.6c0-0.3,0.1-0.4,0.3-0.6c0.2-0.2,0.4-0.3,0.6-0.3C102.5,23.3,102.7,23.4,102.9,23.6z"/>
				<path class="st1" d="M110.6,15v6.8h1.6v0.9h-1.6V25h-1.1v-2.3h-5v-1.1l5-6.6H110.6z M105.4,21.8h4.1v-5.3h0L105.4,21.8z"/>
				<path class="st1" d="M118.5,17.2l-0.6-0.8c1.1-0.8,1.8-1.8,2.2-2.9l1,0.1c-0.1,0.4-0.3,0.8-0.5,1.2h9.3v1h-9.9
					C119.5,16.3,119,16.8,118.5,17.2z M120.9,16.6v1.8h1.6v-1.8h1v1.8h1.6v-1.8h1v1.8h1.6v-1.8h1v1.8h1.4v0.9h-1.4v2.3h1.6v0.9
					h-12.2v-0.9h1.8v-2.3h-1.6v-0.9h1.6v-1.8H120.9z M120.7,23.5c-0.5,1.1-1,2.1-1.7,2.9l-0.8-0.6c0.6-0.8,1.2-1.7,1.7-2.7
					L120.7,23.5z M122.5,21.6v-2.3h-1.6v2.3H122.5z M123.7,26.1l-1,0.2c-0.2-1.1-0.4-2-0.7-2.8l0.9-0.2
					C123.2,24.2,123.5,25.2,123.7,26.1z M125.2,21.6v-2.3h-1.6v2.3H125.2z M126.9,26.1l-1,0.2c-0.2-1.1-0.5-2-0.9-2.8l0.9-0.2
					C126.3,24.1,126.7,25.1,126.9,26.1z M127.7,21.6v-2.3h-1.6v2.3H127.7z M130.4,25.8l-0.8,0.6c-0.4-0.9-1.1-1.8-1.8-2.9l0.8-0.5
					C129.4,24.1,130,25,130.4,25.8z"/>
				<path class="st1" d="M136.8,21.9l-0.8,0.2l-0.1-0.7c-1.2,0.4-2.4,0.6-3.6,0.8l-0.3-0.9c0.2-0.1,0.3-0.2,0.5-0.3
					c0.5-0.5,1.1-1.4,1.8-2.5l-2.1,0.3l-0.2-0.9c0.1-0.1,0.3-0.2,0.4-0.4c0.7-1.1,1.3-2.5,1.8-4l1,0.4c-0.7,1.6-1.3,2.9-2,3.9
					c0.6-0.1,1.2-0.2,1.8-0.3c0.3-0.5,0.6-1.1,0.9-1.7l0.9,0.3c-1.3,2.3-2.4,4-3.2,5c0.7-0.1,1.5-0.3,2.2-0.5
					c-0.1-0.4-0.2-0.8-0.4-1.2l0.8-0.3C136.3,20,136.5,20.9,136.8,21.9z M133.3,23c-0.1,1.2-0.3,2.3-0.6,3.2l-0.9-0.3
					c0.3-0.9,0.5-1.9,0.6-3.1L133.3,23z M135.2,25.6l-0.9,0.2c-0.1-1.1-0.2-2.1-0.3-2.9l0.8-0.2C134.9,23.6,135.1,24.6,135.2,25.6z
					 M136.9,24.4l-0.7,0.3c-0.2-0.8-0.4-1.5-0.7-2.1l0.7-0.2C136.4,23,136.7,23.7,136.9,24.4z M139.6,21.1v0.7
					c-0.4,1.8-1.2,3.2-2.5,4.1l-0.5-0.7c1-0.8,1.7-1.9,2.1-3.3h-1.6v-0.8H139.6z M139.5,14.8c0.2-0.4,0.3-0.8,0.4-1.2l1,0.1
					c-0.1,0.4-0.3,0.8-0.4,1.1h3.2v5h-2.4v1c0.2,0.4,0.4,0.9,0.6,1.3c0.8-0.5,1.5-1,2.1-1.6l0.6,0.7c-0.6,0.5-1.3,1.1-2.2,1.5
					c0.6,0.9,1.4,1.7,2.4,2.5l-0.6,0.8c-1.2-1.1-2.2-2.3-2.9-3.6v2.9c0,0.8-0.4,1.1-1.1,1.1H139l-0.2-0.9c0.3,0,0.7,0.1,1,0.1
					s0.5-0.2,0.5-0.5v-5.2h-2.8v-5H139.5z M142.7,16.9v-1.2h-4.3v1.2H142.7z M142.7,17.7h-4.3v1.2h4.3V17.7z"/>
				<path class="st1" d="M157.6,20.7l-0.8,0.6c-0.3-0.5-0.6-1-0.9-1.5c-0.6,0.1-1.3,0.2-1.9,0.2v4.6c0,0.4,0.2,0.6,0.6,0.6h1.7
					c0.3,0,0.5-0.1,0.7-0.2c0.2-0.2,0.4-0.9,0.5-2l1,0.3c-0.1,1.4-0.3,2.2-0.6,2.5c-0.3,0.2-0.7,0.4-1.2,0.4h-2.2
					c-0.9,0-1.3-0.5-1.3-1.4v-4.7c-0.7,0.1-1.3,0.1-2,0.2c-0.1,1.6-0.4,2.9-1,3.6c-0.6,0.9-1.6,1.7-3,2.4l-0.6-0.8
					c1.3-0.6,2.2-1.2,2.7-2c0.5-0.7,0.8-1.7,0.9-3.1c-0.8,0.1-1.5,0.1-2.3,0.1l-0.2-0.9c0.1,0,0.3-0.1,0.4-0.1
					c0.7-0.5,1.6-1.7,2.6-3.4h-4v-0.9h4.5c0.3-0.5,0.6-1.1,0.9-1.7l1,0.4c-0.3,0.4-0.5,0.9-0.7,1.3h5.9v0.9h-6.4
					c-0.9,1.5-1.8,2.6-2.5,3.4c2.1-0.2,4.2-0.4,6.2-0.6c-0.4-0.5-0.8-1.1-1.2-1.6l0.8-0.5C156.1,18.4,157,19.6,157.6,20.7z"/>
				<path class="st1" d="M171.7,14.1v0.8h-5v0.8h5.4v2.8h-0.9v-2h-4.5v2.9h-1v-2.9h-4.5v2h-0.9v-2.8h5.4v-0.8h-5v-0.8H171.7z
					 M171.1,20v4.3h-4.4v0.9c0,0.3,0.1,0.4,0.4,0.4h3.5c0.4,0,0.6-0.1,0.8-0.2c0.2-0.2,0.3-0.6,0.4-1.4l0.9,0.3
					c-0.1,1-0.3,1.7-0.6,1.9c-0.3,0.2-0.7,0.3-1.3,0.3h-3.9c-0.8,0-1.1-0.3-1.1-1v-1.1h-4.5V20H171.1z M164.9,19.1
					c-0.6,0.1-1.5,0.2-2.8,0.3l-0.2-0.7c1.3-0.1,2.2-0.2,2.8-0.3L164.9,19.1z M164.9,17.4l-0.3,0.6c-0.9-0.2-1.8-0.3-2.7-0.3
					l0.3-0.6C163.2,17.1,164.1,17.3,164.9,17.4z M165.7,21.7v-1h-3.5v1H165.7z M165.7,22.5h-3.5v1h3.5V22.5z M166.7,21.7h3.4v-1
					h-3.4V21.7z M170.1,22.5h-3.4v1h3.4V22.5z M170.5,18.8l-0.3,0.7c-0.9-0.2-1.8-0.4-2.8-0.5l0.3-0.6
					C168.7,18.5,169.6,18.7,170.5,18.8z M167.5,17.4c1-0.1,1.8-0.2,2.6-0.4l0.3,0.7c-0.8,0.2-1.7,0.3-2.7,0.4L167.5,17.4z"/>
				<path class="st1" d="M176.9,26.4h-0.9V19c-0.4,1.4-1,2.6-1.7,3.8l-0.4-1.1c1-1.4,1.7-2.9,2.1-4.7h-1.7v-0.9h1.7v-2.5h0.9v2.5
					h1.5V17h-1.5v0.8c0.6,0.7,1.2,1.5,1.9,2.4l-0.6,0.9c-0.5-0.9-0.9-1.6-1.3-2.2V26.4z M180.9,23.9c-0.6,0.9-1.4,1.7-2.3,2.4
					l-0.6-0.7c0.9-0.6,1.6-1.3,2.2-2.2L180.9,23.9z M181,16v-1h-2.4v-0.9h7.8v0.9h-2.3v1h2.1v3.3H179V16H181z M186.4,21.9v0.9h-3.5
					v3.5H182v-3.5h-3.3v-0.9H186.4z M185.8,20.1V21h-6.5v-0.9H185.8z M181.1,16.8h-1.2v1.7h1.2V16.8z M181.9,14.9v1h1.3v-1H181.9z
					 M183.2,16.8h-1.3v1.7h1.3V16.8z M185.2,16.8H184v1.7h1.3V16.8z M186.7,25.6l-0.7,0.7c-0.5-0.7-1.2-1.5-2-2.3l0.6-0.6
					C185.4,24.1,186.1,24.9,186.7,25.6z"/>
				<path class="st1" d="M190.5,17.2L190,18c-0.7-0.5-1.4-1-2.2-1.3l0.5-0.8C189.1,16.3,189.8,16.7,190.5,17.2z M193.7,22.7v-1.1h1
					v1.1h5.7v0.9h-5.7v2.7h-1v-2.7H188v-0.9H193.7z M191.4,19.2c-0.7,1-1.6,1.9-2.7,2.7l-0.7-0.8c1.1-0.8,2.1-1.7,2.8-2.6
					L191.4,19.2z M191.6,15.1l-0.5,0.8c-0.8-0.6-1.5-1.1-2.3-1.5l0.5-0.7C190.1,14,190.9,14.5,191.6,15.1z M191.3,18.4l-0.3-0.9
					c1.2-1.2,2-2.5,2.5-3.9l0.9,0.2c-0.1,0.4-0.3,0.8-0.5,1.2h2.2c-0.2-0.4-0.3-0.9-0.5-1.2l1-0.2c0.2,0.4,0.3,0.9,0.4,1.4h3v0.8
					h-2.9v1h2.6v0.8h-2.6v1h2.7v0.8h-2.7v1h3.1v0.8h-7.7V17C192.2,17.5,191.8,18,191.3,18.4z M193.5,15.8v1h2.7v-1H193.5z
					 M193.5,17.6v1h2.7v-1H193.5z M193.5,19.3v1h2.7v-1H193.5z"/>
			</g>
			<g id="icon_x2F_blue_x2F_-g-icon_x5F_qi">
				<g id="Group" transform="translate(1.000000, 1.000000)">
					<g id="Oval-7">
						<path class="st1" d="M20,40C9,40,0,31,0,20C0,9,9,0,20,0s20,9,20,20C40,31,31,40,20,40z M20,1C9.5,1,1,9.5,1,20s8.5,19,19,19
							s19-8.5,19-19S30.5,1,20,1z"/>
					</g>
					<g id="Group-32" transform="translate(9.500000, 5.500000)">
						<g id="Combined-Shape">
							<path class="st1" d="M13.2,30.5c-2.3,0-4.1-1.9-4.1-4.1v-2.5c-5.3-0.3-9.5-4.6-9.5-10c0-5.5,4.5-10,10-10
								c1.3,0,2.6,0.3,3.8,0.8c0.2,0.1,0.3,0.3,0.3,0.4V30C13.6,30.3,13.4,30.5,13.2,30.5z M9.5,4.9c-5,0-9,4-9,9s4,9,9,9
								c0.3,0,0.5,0.2,0.5,0.5v2.9c0,1.6,1.2,2.9,2.7,3.1v-24C11.7,5.1,10.6,4.9,9.5,4.9z M16,21.3c-0.1,0-0.1,0-0.2,0
								c-0.2-0.1-0.3-0.3-0.3-0.4V7c0-0.2,0.1-0.4,0.3-0.4c0.2-0.1,0.4,0,0.5,0.1c2,1.9,3.1,4.5,3.1,7.3c0,2.8-1.1,5.4-3.1,7.3
								C16.2,21.3,16.1,21.3,16,21.3z M16.5,8.2v11.4c1.3-1.6,2-3.6,2-5.7S17.8,9.8,16.5,8.2z M9.5,20.2c-3.5,0-6.3-2.8-6.3-6.3
								S6,7.6,9.5,7.6C9.8,7.6,10,7.8,10,8v11.7C10,20,9.8,20.2,9.5,20.2z M9,8.6c-2.7,0.2-4.9,2.6-4.9,5.3c0,2.8,2.1,5.1,4.9,5.3
								V8.6z"/>
						</g>
						<g id="Oval-18">
							<path class="st1" d="M15,4.1c-1.3,0-2.3-1-2.3-2.3c0-1.3,1-2.3,2.3-2.3c1.3,0,2.3,1,2.3,2.3C17.3,3.1,16.3,4.1,15,4.1z
								 M15,0.5c-0.7,0-1.3,0.6-1.3,1.3s0.6,1.3,1.3,1.3c0.7,0,1.3-0.6,1.3-1.3S15.7,0.5,15,0.5z"/>
						</g>
					</g>
				</g>
			</g>
		</g>
	</g>
</g>
</svg>
