<?xml version="1.0" encoding="utf-8"?>
<!-- Generator: Adobe Illustrator 22.1.0, SVG Export Plug-In . SVG Version: 6.00 Build 0)  -->
<svg version="1.1" id="Layer_1" xmlns="http://www.w3.org/2000/svg" xmlns:xlink="http://www.w3.org/1999/xlink" x="0px" y="0px"
	 viewBox="0 0 284 40" style="enable-background:new 0 0 284 40;" xml:space="preserve">
<style type="text/css">
	.st0{enable-background:new    ;}
	.st1{fill:#0075FF;}
</style>
<title>Group 39</title>
<desc>Created with Sketch.</desc>
<g id="Q1-Webpage">
	<g id="OMNIA_Q1_1920px_cn" transform="translate(-1111.000000, -9901.000000)">
		<g id="Group-5" transform="translate(252.000000, 9461.000000)">
			<g id="Group-39" transform="translate(860.000000, 439.000000)">
				<g id="Group-32-Copy-2" transform="translate(128.000000, 0.000000)">
					<g class="st0">
						<path class="st1" d="M58.6,17.8v-0.6L58,17.9l-0.5-0.8c0.9-1,1.8-2.2,2.5-3.5h0.7c1,0.9,1.9,1.9,2.7,2.9l-0.6,0.7
							c-0.9-1.1-1.7-1.9-2.4-2.6c-0.5,0.8-1,1.6-1.6,2.3h3.3v0.9h-1.3v1.6h1.9v0.9h-1.9v4.2c0.8-0.2,1.5-0.3,2.2-0.5v1
							c-1.6,0.4-3.3,0.8-5.1,1.1l-0.3-1c0.7-0.1,1.5-0.2,2.2-0.3v-4.4H58v-0.9h1.9v-1.6H58.6z M59.3,23.8L58.6,24
							c-0.2-1-0.4-1.8-0.6-2.7l0.8-0.3C58.9,21.8,59.1,22.8,59.3,23.8z M62.8,21.1c-0.2,1-0.4,1.8-0.7,2.5l-0.7-0.3
							c0.2-0.6,0.4-1.5,0.6-2.5L62.8,21.1z M63.2,20V19h4.3c0.4-0.8,0.7-1.7,1-2.6l0.9,0.3c-0.3,0.8-0.6,1.6-1,2.3h2.1V20h-3.2v2
							h2.8v0.9h-2.8v3.5h-1v-3.5h-2.8V22h2.8v-2H63.2z M67.3,15.2h2.9v0.9h-6.8v-0.9h3c-0.2-0.6-0.4-1.1-0.6-1.5l1-0.2
							C66.9,14,67.1,14.6,67.3,15.2z M66,18.4l-0.8,0.3c-0.3-0.7-0.6-1.4-1-1.9l0.9-0.4C65.4,17.1,65.8,17.8,66,18.4z"/>
						<path class="st1" d="M78.4,13.5c1.8,2.1,3.8,3.7,6.2,4.9l-0.5,1c-2.3-1.3-4.3-2.9-6-4.9c-1.5,1.9-3.5,3.5-6,4.9l-0.5-1
							c2.5-1.3,4.6-2.9,6.2-4.9H78.4z M82.4,26.4h-1v-0.8h-6.9v0.8h-1v-5.6h8.9V26.4z M81.6,18v1h-7.3v-1H81.6z M81.4,24.6v-2.9
							h-6.9v2.9H81.4z"/>
						<path class="st1" d="M86.2,18.7l-0.6-0.8c2.4-1.1,4.4-2.5,6-4.2h0.8c1.3,1.7,3.3,3,5.9,4.1l-0.6,0.8c-0.7-0.3-1.4-0.7-2.1-1
							v0.8h-3.2v2h5v0.9h-5v3.7h1.6c0.5-0.9,0.9-1.9,1.3-2.9l0.9,0.3c-0.3,1-0.7,1.9-1.2,2.6H98v1H86v-1h2.9
							c-0.3-0.9-0.7-1.7-1.1-2.5l0.9-0.3c0.4,0.8,0.8,1.7,1.2,2.8h1.6v-3.7h-5v-0.9h5v-2h-3.2v-0.8C87.7,18,87,18.3,86.2,18.7z
							 M92,14.6c-1.1,1.1-2.2,2-3.5,2.8h7C94.1,16.7,92.9,15.7,92,14.6z"/>
						<path class="st1" d="M100,26.3l-0.2-0.9c0.3,0,0.6,0.1,0.8,0.1c0.3,0,0.5-0.2,0.5-0.6v-3.5c-0.4,0.2-0.9,0.4-1.3,0.6l-0.3-1.1
							c0.5-0.2,1-0.4,1.6-0.6v-3.2h-1.5v-0.9h1.5v-2.5h0.9v2.5h0.9v0.9h-0.9v2.7c0.4-0.3,0.8-0.5,1.2-0.8v1
							c-0.4,0.3-0.8,0.5-1.2,0.8v4.3c0,0.8-0.4,1.2-1.1,1.2H100z M104.7,16.4v-2.8h0.9v2.8h1.9v0.9h-1.9c-0.1,4.1-0.9,7.1-2.4,9.1
							l-0.7-0.6c1.3-1.8,2-4.7,2.2-8.5h-1.2v-0.9H104.7z M107.2,26.1c-0.8,0-1.1-0.4-1.1-1.2v-6.5h0.9v6.4c0,0.3,0.1,0.5,0.4,0.5
							h3.2c0.3,0,0.5-0.1,0.7-0.2c0.1-0.2,0.2-0.8,0.3-1.8l0.9,0.3c-0.1,1.2-0.2,2-0.4,2.2c-0.2,0.3-0.6,0.4-1.2,0.4H107.2z
							 M109.7,13.6v2.5h2c0,3.5-0.1,5.6-0.2,6.5c-0.1,0.9-0.6,1.3-1.5,1.3c-0.1,0-0.4,0-0.7,0l-0.2-0.9c0.3,0,0.5,0.1,0.7,0.1
							c0.5,0,0.7-0.3,0.8-0.8c0.1-0.6,0.1-2.3,0.2-5.2h-1.2c-0.1,3.2-0.8,5.6-1.9,7.2l-0.7-0.6c1-1.4,1.6-3.6,1.7-6.6h-1v-0.9h1
							v-2.5H109.7z"/>
						<path class="st1" d="M120.5,13.6v5.2h5.6v1h-4v4.7c0,0.4,0.2,0.6,0.6,0.6h1.7c0.3,0,0.5-0.1,0.7-0.3c0.2-0.3,0.3-1,0.3-2.2
							l1,0.3c-0.1,1.5-0.3,2.4-0.6,2.7c-0.3,0.3-0.7,0.4-1.2,0.4h-2.2c-0.9,0-1.3-0.5-1.3-1.4v-4.9h-2.4v0.1c0,1.8-0.4,3.2-1.1,4.2
							c-0.7,1-1.8,1.7-3.4,2.3l-0.6-0.9c1.5-0.5,2.6-1.2,3.2-2.1c0.6-0.9,0.9-2.1,0.9-3.5v-0.1h-3.8v-1h5.6v-5.2H120.5z M117.9,17.6
							l-0.9,0.5c-0.6-1.2-1.3-2.3-2-3.2l1-0.4C116.6,15.3,117.2,16.4,117.9,17.6z M125.1,14.7c-0.5,1.1-1.1,2.3-1.9,3.3l-0.9-0.5
							c0.8-1.1,1.4-2.2,1.8-3.3L125.1,14.7z"/>
						<path class="st1" d="M130.8,17.1v0.8c-0.4,0.8-1,1.7-1.6,2.5h1.8V21c-0.2,1.1-0.4,2.1-0.7,2.8c0.1,0.1,0.2,0.2,0.4,0.3
							c0.4,0.4,0.8,0.7,1.3,1c0.4,0.2,1,0.3,1.8,0.3c0.7,0,1.6,0,2.5,0c1.1,0,2.5,0,4.2-0.1l-0.2,0.9h-3.8c-1,0-1.9,0-2.7,0
							c-0.9,0-1.6-0.2-2.1-0.4c-0.6-0.3-1.1-0.6-1.5-1.1c-0.1-0.1-0.2-0.2-0.3-0.2c-0.3,0-0.8,0.6-1.4,1.9l-0.7-0.6
							c0.6-1.2,1.2-1.9,1.8-2.1c0.3-0.7,0.5-1.6,0.7-2.5h-2v-0.7c0.7-0.8,1.2-1.6,1.7-2.4h-2v-0.9H130.8z M131,15.6l-0.7,0.7
							c-0.5-0.6-1.3-1.2-2.3-1.8l0.7-0.6C129.6,14.4,130.4,15,131,15.6z M135.4,21.3c-0.1-0.3-0.2-0.5-0.4-0.7l0.8-0.1
							c0.1,0.3,0.3,0.6,0.4,0.9h3.9v0.7h-5.1c-0.1,0.2-0.2,0.4-0.3,0.6h4.5c0,1-0.2,1.6-0.5,1.8c-0.3,0.3-1,0.4-1.8,0.4
							c-0.3,0-0.6,0-0.8,0l-0.2-0.7c0.4,0,0.7,0.1,1,0.1c0.7,0,1.2-0.1,1.3-0.3c0.1-0.2,0.2-0.4,0.2-0.7h-3.9
							c-0.1,0.1-0.2,0.2-0.3,0.3c-0.4,0.5-1.1,0.9-2,1.3l-0.6-0.7c0.8-0.3,1.4-0.6,1.8-1c0.3-0.3,0.6-0.7,0.7-1.1h-2.7v-0.7H135.4z
							 M134.8,14.2c0.1-0.3,0.2-0.5,0.2-0.8l1,0.1c-0.1,0.2-0.1,0.4-0.2,0.6h3.3v4h-3l0.2,0.6h3.7v1.8h-0.8v-1.2h-1.9V20
							c0,0.1,0.1,0.2,0.3,0.2h1.1v0.5h-1.3c-0.6,0-0.8-0.2-0.8-0.6v-0.7h-1.3c-0.1,0.3-0.3,0.6-0.5,0.8c-0.3,0.3-0.8,0.5-1.4,0.7
							l-0.4-0.5c0.5-0.2,0.9-0.3,1.2-0.5c0.2-0.1,0.3-0.3,0.4-0.5h-2.1v1.2h-0.8v-1.8h3.9l-0.2-0.6h-2.8v-4H134.8z M138.3,15.4v-0.6
							h-4.9v0.6H138.3z M138.3,16.5v-0.6h-4.9v0.6H138.3z M138.3,17h-4.9v0.7h4.9V17z"/>
						<path class="st1" d="M144.5,26.4h-1v-6.9c-0.4,1.3-1,2.6-1.6,3.7l-0.4-1.1c1-1.4,1.6-3,2-4.8h-1.8v-1h1.8v-2.7h1v2.7h1.5v1
							h-1.5v0.9c0.6,0.7,1.2,1.5,1.8,2.4l-0.5,0.8c-0.5-0.9-0.9-1.6-1.2-2.1V26.4z M154.2,14v1h-6.4v10.1h6.7v1h-7.6V14H154.2z
							 M153.8,16.4v0.9h-2.1v2.3h1.8v0.9h-1.8V23h2.3v0.9h-5.5V23h2.3v-2.5H149v-0.9h1.8v-2.3h-2.1v-0.9H153.8z"/>
					</g>
					<g id="icon_x2F_blue_x2F_-g-icon_x5F_zinc_x5F_materials">
						<g id="Oval-7-Copy-20">
							<path class="st1" d="M21,41C10,41,1,32,1,21C1,10,10,1,21,1c11,0,20,9,20,20C41,32,32,41,21,41z M21,2C10.5,2,2,10.5,2,21
								s8.5,19,19,19s19-8.5,19-19S31.5,2,21,2z"/>
						</g>
						<g id="Group" transform="translate(7.000000, 10.000000)">
							<g id="Oval-2">
								<path class="st1" d="M13.9,17.9c-8,0-14.5-4.2-14.5-9.3c0-5.1,6.5-9.3,14.5-9.3c8,0,14.5,4.2,14.5,9.3
									C28.4,13.8,21.9,17.9,13.9,17.9z M13.9,0.6C6.6,0.6,0.6,4.2,0.6,8.7s6,8.1,13.3,8.1s13.3-3.6,13.3-8.1S21.3,0.6,13.9,0.6z"
									/>
							</g>
							<g id="Oval-2_1_">
								<path class="st1" d="M13.9,22.6c-8,0-14.5-4.2-14.5-9.3h1.2c0,4.5,6,8.1,13.3,8.1s13.3-3.6,13.3-8.1h1.2
									C28.4,18.4,21.9,22.6,13.9,22.6z"/>
							</g>
							<g id="Path">
								<path class="st1" d="M25.3,9c-0.2-0.2-0.3-0.3-0.5-0.5c-2.5-2.2-6.6-3.4-10.9-3.4c-4.6,0-8.8,1.4-11.3,3.8L2,8.2
									c2.7-2.5,7.2-4,12-4c4.6,0,8.8,1.3,11.6,3.7c0.2,0.2,0.4,0.3,0.6,0.5L25.3,9z"/>
							</g>
							<g id="Rectangle">
								<path class="st1" d="M28.4,13.9h-1.2V9.3h1.2V13.9z M0.6,13.9h-1.2V9.3h1.2V13.9z"/>
							</g>
							<g id="Oval-2_2_">
								<path class="st1" d="M13.9,15.6c-6.8,0-12.2-3-12.2-6.9c0-3.9,5.3-6.9,12.2-6.9s12.2,3,12.2,6.9
									C26.1,12.6,20.7,15.6,13.9,15.6z M13.9,2.9c-6,0-11,2.7-11,5.8c0,3.1,5,5.8,11,5.8c6,0,11-2.7,11-5.8
									C24.9,5.5,19.9,2.9,13.9,2.9z"/>
							</g>
						</g>
					</g>
				</g>
				<g id="Line-2-Copy">
					<rect x="0" y="21" class="st1" width="112" height="1"/>
				</g>
			</g>
		</g>
	</g>
</g>
</svg>
