<?xml version="1.0" encoding="utf-8"?>
<!-- Generator: Adobe Illustrator 22.1.0, SVG Export Plug-In . SVG Version: 6.00 Build 0)  -->
<svg version="1.1" id="Layer_1" xmlns="http://www.w3.org/2000/svg" xmlns:xlink="http://www.w3.org/1999/xlink" x="0px" y="0px"
	 viewBox="0 0 349 40" style="enable-background:new 0 0 349 40;" xml:space="preserve">
<style type="text/css">
	.st0{enable-background:new    ;}
	.st1{fill:#0075FF;}
</style>
<title>Group 40</title>
<desc>Created with Sketch.</desc>
<g id="Q1-Webpage">
	<g id="OMNIA_Q1_1920px_cn" transform="translate(-1123.000000, -10128.000000)">
		<g id="Group-5" transform="translate(252.000000, 9461.000000)">
			<g id="Group-40" transform="translate(872.000000, 666.000000)">
				<g id="Group-32-Copy-3" transform="translate(199.000000, 0.000000)">
					<g class="st0">
						<path class="st1" d="M62.7,23.7c-1.2,1-2.6,1.8-4.4,2.6l-0.6-0.8c1.7-0.7,3.1-1.5,4.3-2.4L62.7,23.7z M68.1,14.1v0.8
							c-0.8,0.7-1.7,1.2-2.7,1.8h4.1v0.8c-0.6,0.9-1.4,1.7-2.3,2.4l-0.7-0.6c0.6-0.4,1.2-1,1.8-1.7h-3.2v1.8c0,0.8-0.4,1.1-1.2,1.1
							h-1.6l-0.2-0.9c0.5,0,1.1,0.1,1.5,0.1c0.4,0,0.6-0.2,0.6-0.5v-1.6h-0.4c-1,1.2-2.7,2.2-5.4,3l-0.5-0.9c2.3-0.6,4-1.4,4.9-2.2
							h-4.3v-0.9h4.9c-0.6-0.3-1.2-0.7-2-1.1l0.6-0.5h-2.4v-0.9H68.1z M63.5,21.9v-1h1v1H70v0.9h-5.5v3.6h-1v-3.6H58v-0.9H63.5z
							 M64.4,16.3c0.8-0.4,1.6-0.8,2.3-1.3H62C62.9,15.4,63.7,15.9,64.4,16.3z M70.2,25.6l-0.6,0.7c-1.4-1-2.8-1.8-4.2-2.5l0.6-0.7
							C67.4,23.9,68.9,24.7,70.2,25.6z"/>
						<path class="st1" d="M74.4,17.4v-2c-0.7,0.1-1.4,0.2-2.1,0.3L72,14.7c2.1-0.2,3.8-0.5,5.2-1l0.5,0.8c-0.7,0.3-1.5,0.5-2.3,0.7
							v2.2h2.4v0.9h-2.4V19c0.8,0.7,1.6,1.5,2.5,2.5l-0.6,0.9c-0.7-1-1.3-1.8-1.9-2.4v6.3h-1v-6.2c-0.6,1.3-1.4,2.5-2.4,3.6
							l-0.4-1.1c1.3-1.2,2.2-2.6,2.8-4.2v-0.1H72v-0.9H74.4z M83.7,25.8h-1v-1.1h-3.4V26h-1V14.5h5.4V25.8z M82.8,23.8v-8.3h-3.4
							v8.3H82.8z"/>
						<path class="st1" d="M91.8,15v9h5.8v1h-6.9V15H91.8z"/>
						<path class="st1" d="M106,15v1h-5.9v3.3h5.6v1h-5.6V24h6.2v1h-7.3V15H106z"/>
						<path class="st1" d="M111.4,15c1.6,0,2.8,0.4,3.6,1.4c0.7,0.8,1.1,2.1,1.1,3.6c0,1.5-0.4,2.8-1.2,3.6c-0.8,0.9-2,1.4-3.6,1.4
							h-3.5V15H111.4z M109,24h2.1c1.3,0,2.3-0.4,2.9-1c0.6-0.7,0.9-1.7,0.9-3c0-1.3-0.3-2.3-0.9-3c-0.6-0.7-1.6-1-2.9-1H109V24z"/>
						<path class="st1" d="M128.9,13.6v5.2h5.6v1h-4v4.7c0,0.4,0.2,0.6,0.6,0.6h1.7c0.3,0,0.5-0.1,0.7-0.3c0.2-0.3,0.3-1,0.3-2.2
							l1,0.3c-0.1,1.5-0.3,2.4-0.6,2.7c-0.3,0.3-0.7,0.4-1.2,0.4h-2.2c-0.9,0-1.3-0.5-1.3-1.4v-4.9h-2.4v0.1c0,1.8-0.4,3.2-1.1,4.2
							c-0.7,1-1.8,1.7-3.4,2.3l-0.6-0.9c1.5-0.5,2.6-1.2,3.2-2.1c0.6-0.9,0.9-2.1,0.9-3.5v-0.1h-3.8v-1h5.6v-5.2H128.9z M126.2,17.6
							l-0.9,0.5c-0.6-1.2-1.3-2.3-2-3.2l1-0.4C125,15.3,125.6,16.4,126.2,17.6z M133.4,14.7c-0.5,1.1-1.1,2.3-1.9,3.3l-0.9-0.5
							c0.8-1.1,1.4-2.2,1.8-3.3L133.4,14.7z"/>
						<path class="st1" d="M139.1,19.3l-0.7,0.7c-0.6-0.7-1.3-1.4-2.3-2.1l0.7-0.7C137.6,18,138.4,18.7,139.1,19.3z M139.2,21.4
							c-0.6,1.8-1.3,3.4-2.1,5l-0.9-0.4c0.8-1.6,1.6-3.2,2.2-4.9L139.2,21.4z M139.5,16l-0.7,0.7c-0.6-0.7-1.5-1.4-2.5-2.2l0.7-0.7
							C138,14.6,138.8,15.3,139.5,16z M144.1,16.3c0.2-0.4,0.3-0.9,0.4-1.3h-3.4v4.1c-0.1,3-0.6,5.5-1.6,7.3l-0.8-0.7
							c0.9-1.6,1.3-3.8,1.4-6.6v-5h8.4V15h-3.1c-0.1,0.5-0.2,0.9-0.4,1.3h2.7v4.9h-2.3v4c0,0.8-0.4,1.1-1.1,1.1h-1.2l-0.2-0.9
							c0.4,0,0.7,0.1,1.1,0.1c0.3,0,0.5-0.2,0.5-0.5v-3.7h-2.4v-4.9H144.1z M143.3,22.5c-0.4,1.2-0.9,2.3-1.5,3.2l-0.8-0.5
							c0.7-0.9,1.1-1.8,1.4-2.9L143.3,22.5z M146.9,18.4v-1.3H143v1.3H146.9z M146.9,19.2H143v1.3h3.9V19.2z M148.7,25.3l-0.9,0.4
							c-0.4-1.2-1-2.3-1.5-3.2l0.8-0.3C147.8,23.2,148.3,24.2,148.7,25.3z"/>
					</g>
					<g id="icon_x2F_blue_x2F_-g-icon_x5F_light_x5F_design">
						<g id="Oval-7-Copy-20">
							<path class="st1" d="M21,41C10,41,1,32,1,21C1,10,10,1,21,1s20,9,20,20C41,32,32,41,21,41z M21,2C10.5,2,2,10.5,2,21
								s8.5,19,19,19s19-8.5,19-19S31.5,2,21,2z"/>
						</g>
						<g id="Group" transform="translate(8.000000, 13.000000)">
							<g id="Oval-2">
								<path class="st1" d="M13,14.6c-6.4,0-11.6-3.4-11.6-7.5c0-4.2,5.2-7.5,11.6-7.5s11.6,3.4,11.6,7.5
									C24.6,11.2,19.4,14.6,13,14.6z M13,0.5c-5.9,0-10.7,3-10.7,6.6c0,3.6,4.8,6.6,10.7,6.6s10.7-3,10.7-6.6
									C23.7,3.4,18.9,0.5,13,0.5z"/>
							</g>
							<g id="Oval-2_1_">
								<path class="st1" d="M13,17.5c-7.4,0-13.5-4-13.5-9s6-9,13.5-9s13.5,4,13.5,9S20.4,17.5,13,17.5z M13,0.5
									c-6.9,0-12.5,3.6-12.5,8s5.6,8,12.5,8s12.5-3.6,12.5-8S19.9,0.5,13,0.5z"/>
							</g>
							<g id="Oval-2_2_">
								<path class="st1" d="M13,11.8c-4.9,0-8.8-2.3-8.8-5.2c0-2.9,3.9-5.2,8.8-5.2s8.8,2.3,8.8,5.2C21.8,9.5,17.9,11.8,13,11.8z
									 M13,2.4c-4.3,0-7.9,1.9-7.9,4.3c0,2.3,3.6,4.3,7.9,4.3s7.9-1.9,7.9-4.3C20.9,4.3,17.3,2.4,13,2.4z"/>
							</g>
							<g id="Oval-2_3_">
								<path class="st1" d="M13,9c-2.9,0-5.1-1.2-5.1-2.8c0-1.6,2.2-2.8,5.1-2.8s5.1,1.2,5.1,2.8C18.1,7.7,15.9,9,13,9z M13,4.2
									c-2.5,0-4.2,1-4.2,1.9C8.8,7,10.5,8,13,8s4.2-1,4.2-1.9C17.2,5.2,15.5,4.2,13,4.2z"/>
							</g>
						</g>
						<g id="Line-2">
							<path class="st1" d="M20.9,38.9c-0.3,0-0.5-0.2-0.5-0.5v-2c0-0.3,0.2-0.5,0.5-0.5s0.5,0.2,0.5,0.5v2
								C21.5,38.7,21.2,38.9,20.9,38.9z M10.1,35.1c-0.1,0-0.2,0-0.3-0.1c-0.2-0.2-0.3-0.5-0.1-0.8l1.3-1.6c0.2-0.2,0.5-0.3,0.8-0.1
								c0.2,0.2,0.3,0.5,0.1,0.8l-1.3,1.6C10.4,35,10.3,35.1,10.1,35.1z M31.9,34.7c-0.2,0-0.3-0.1-0.4-0.2L30.2,33
								c-0.2-0.2-0.2-0.6,0.1-0.8c0.2-0.2,0.6-0.2,0.8,0.1l1.3,1.6c0.2,0.2,0.2,0.6-0.1,0.8C32.1,34.7,32,34.7,31.9,34.7z M4.5,24.9
								c-0.3,0-0.5-0.2-0.5-0.4c-0.1-0.3,0.1-0.6,0.4-0.6l2-0.4C6.7,23.5,7,23.7,7,24c0.1,0.3-0.1,0.6-0.4,0.6L4.5,24.9
								C4.6,24.9,4.5,24.9,4.5,24.9z M37.8,24.4C37.8,24.4,37.8,24.4,37.8,24.4L35.7,24c-0.3-0.1-0.5-0.3-0.4-0.6
								c0.1-0.3,0.3-0.5,0.6-0.4l2,0.4c0.3,0.1,0.5,0.3,0.4,0.6C38.3,24.2,38.1,24.4,37.8,24.4z M8.5,14.3c-0.1,0-0.2,0-0.3-0.1
								l-1.8-1c-0.3-0.1-0.3-0.5-0.2-0.7c0.1-0.3,0.5-0.3,0.7-0.2l1.8,1C9,13.5,9.1,13.8,8.9,14C8.8,14.2,8.7,14.3,8.5,14.3z
								 M34.3,13.8c-0.2,0-0.4-0.1-0.5-0.3c-0.1-0.3-0.1-0.6,0.2-0.7l1.8-1c0.3-0.1,0.6-0.1,0.7,0.2c0.1,0.3,0.1,0.6-0.2,0.7l-1.8,1
								C34.4,13.8,34.4,13.8,34.3,13.8z M16.4,7.5c-0.2,0-0.4-0.1-0.5-0.4l-0.7-1.9c-0.1-0.3,0-0.6,0.3-0.7c0.3-0.1,0.6,0,0.7,0.3
								l0.7,1.9c0.1,0.3,0,0.6-0.3,0.7C16.5,7.4,16.5,7.5,16.4,7.5z M26.6,7.3c-0.1,0-0.1,0-0.2,0c-0.3-0.1-0.4-0.4-0.3-0.7l0.7-1.9
								c0.1-0.3,0.4-0.4,0.7-0.3c0.3,0.1,0.4,0.4,0.3,0.7l-0.7,1.9C27,7.1,26.8,7.3,26.6,7.3z"/>
						</g>
					</g>
				</g>
				<g id="Line-2-Copy-2">
					<rect x="0" y="21" class="st1" width="183" height="1"/>
				</g>
			</g>
		</g>
	</g>
</g>
</svg>
