<?xml version="1.0" encoding="utf-8"?>
<!-- Generator: Adobe Illustrator 22.1.0, SVG Export Plug-In . SVG Version: 6.00 Build 0)  -->
<svg version="1.1" id="Layer_1" xmlns="http://www.w3.org/2000/svg" xmlns:xlink="http://www.w3.org/1999/xlink" x="0px" y="0px"
	 viewBox="0 0 148 40" style="enable-background:new 0 0 148 40;" xml:space="preserve">
<style type="text/css">
	.st0{enable-background:new    ;}
	.st1{fill:#0075FF;}
</style>
<title>Group 32 Copy</title>
<desc>Created with Sketch.</desc>
<g id="Q1-Webpage">
	<g id="OMNIA_Q1_1920px_cn" transform="translate(-488.000000, -8393.000000)">
		<g id="Group-29" transform="translate(40.000000, 7680.000000)">
			<g id="Group-32-Copy" transform="translate(447.000000, 712.000000)">
				<g class="st0">
					<path class="st1" d="M63.5,17.7v-0.9H58v-0.9h5.5v-1c-1.4,0.1-2.9,0.2-4.4,0.2l-0.2-0.8c3.6-0.1,6.9-0.3,9.7-0.6l0.3,0.8
						c-1.3,0.1-2.8,0.3-4.4,0.4v1.1H70v0.9h-5.5v0.9h4.3v4.7h-4.3v1h5v0.8h-5v1.1h5.7V26H57.8v-0.9h5.7v-1.1h-5v-0.8h5v-1h-4.3v-4.7
						H63.5z M63.5,19.6v-1.1h-3.4v1.1H63.5z M63.5,20.4h-3.4v1.1h3.4V20.4z M64.5,19.6h3.4v-1.1h-3.4V19.6z M67.9,20.4h-3.4v1.1h3.4
						V20.4z"/>
					<path class="st1" d="M84.3,18v0.8H71.7V18H84.3z M82.9,19.4V23h-4.4v0.8h4.7v0.7h-4.7v0.8h5.8v0.8H71.7v-0.8h5.7v-0.8h-4.7
						v-0.7h4.7V23h-4.3v-3.6H82.9z M82.6,13.8v3.5h-9.1v-3.5H82.6z M77.5,20.9v-0.9h-3.4v0.9H77.5z M77.5,21.5h-3.4v0.9h3.4V21.5z
						 M81.6,15.2v-0.8h-7.2v0.8H81.6z M81.6,15.8h-7.2v0.8h7.2V15.8z M78.5,20.9h3.4v-0.9h-3.4V20.9z M81.9,21.5h-3.4v0.9h3.4V21.5z
						"/>
					<path class="st1" d="M92.6,16.7c0.2,0.2,0.3,0.4,0.3,0.6c0,0.2-0.1,0.4-0.3,0.6s-0.4,0.3-0.6,0.3c-0.3,0-0.4-0.1-0.6-0.3
						c-0.2-0.2-0.2-0.4-0.2-0.6c0-0.3,0.1-0.4,0.2-0.6c0.2-0.2,0.4-0.3,0.6-0.3C92.2,16.5,92.5,16.6,92.6,16.7z M92.6,21.9
						c0.2,0.2,0.3,0.4,0.3,0.6c0,0.2-0.1,0.4-0.3,0.6c-0.2,0.2-0.4,0.3-0.6,0.3c-0.3,0-0.4-0.1-0.6-0.3c-0.2-0.2-0.2-0.4-0.2-0.6
						c0-0.3,0.1-0.4,0.2-0.6c0.2-0.2,0.4-0.3,0.6-0.3C92.2,21.6,92.5,21.7,92.6,21.9z"/>
					<path class="st1" d="M103.1,15v10H102v-8.6c-0.6,0.6-1.4,1.1-2.4,1.4v-1.1c0.4-0.1,0.9-0.3,1.4-0.6c0.5-0.3,0.9-0.6,1.2-1
						H103.1z"/>
					<path class="st1" d="M111.2,15.5c0.6,0.5,0.9,1.1,0.9,2c0,1.1-0.5,1.9-1.6,2.2c0.6,0.2,1,0.5,1.3,0.9c0.3,0.4,0.5,0.9,0.5,1.5
						c0,0.9-0.3,1.7-1,2.2c-0.6,0.6-1.5,0.9-2.5,0.9c-1,0-1.7-0.3-2.3-0.7c-0.7-0.6-1.1-1.4-1.2-2.6h1.2c0,0.8,0.3,1.4,0.8,1.8
						c0.4,0.3,0.9,0.5,1.6,0.5c0.7,0,1.3-0.2,1.7-0.6c0.4-0.4,0.6-0.9,0.6-1.5c0-0.6-0.2-1.1-0.6-1.4s-0.9-0.5-1.6-0.5h-0.8v-0.9
						h0.8c0.7,0,1.2-0.2,1.5-0.4c0.3-0.3,0.5-0.7,0.5-1.3s-0.2-1-0.5-1.3c-0.4-0.3-0.9-0.5-1.5-0.5c-0.7,0-1.2,0.2-1.6,0.5
						c-0.4,0.4-0.6,0.9-0.7,1.6h-1.1c0.1-1,0.4-1.7,1.1-2.3c0.6-0.5,1.4-0.8,2.3-0.8S110.7,15,111.2,15.5z"/>
					<path class="st1" d="M119.9,16.4c0.5,0.9,0.8,2.1,0.8,3.6s-0.3,2.7-0.8,3.6c-0.6,1.1-1.5,1.6-2.7,1.6c-1.2,0-2.1-0.5-2.7-1.6
						c-0.5-0.9-0.8-2.1-0.8-3.6s0.3-2.7,0.8-3.6c0.6-1.1,1.5-1.6,2.7-1.6C118.4,14.8,119.3,15.3,119.9,16.4z M115.3,17.2
						c-0.3,0.7-0.4,1.6-0.4,2.8c0,1.2,0.1,2.1,0.4,2.8c0.4,1,1,1.4,1.9,1.4s1.5-0.5,1.9-1.4c0.3-0.7,0.4-1.6,0.4-2.8
						c0-1.2-0.2-2.1-0.4-2.8c-0.4-1-1-1.4-1.9-1.4S115.7,16.3,115.3,17.2z"/>
					<path class="st1" d="M127,14.5c-1,2.8-2.4,4.9-4,6.4l-0.8-0.7c1.7-1.5,3-3.5,3.9-6.1L127,14.5z M133.6,26l-0.9,0.4
						c-0.2-0.5-0.4-0.9-0.6-1.3c-2.5,0.4-5.2,0.7-8.3,0.9l-0.2-1c1.1-0.6,2.5-2.8,4.2-6.6l1,0.3c-1.2,2.6-2.4,4.7-3.6,6.2
						c2.3-0.1,4.4-0.4,6.4-0.7c-0.5-1-1.1-1.9-1.7-2.8l0.9-0.3C131.9,22.6,132.8,24.3,133.6,26z M131.3,14c0.5,2.5,1.6,4.5,3.4,6
						l-0.8,0.7c-1.7-1.5-2.8-3.5-3.4-5.8h-2.4V14H131.3z"/>
					<path class="st1" d="M142.9,13.5V15h5.5v1h-5.5v1.5h3.9v4.1h-2.4v3c0,0.4,0.2,0.7,0.7,0.7h1.7c0.2,0,0.4-0.1,0.6-0.2
						c0.2-0.2,0.3-0.7,0.4-1.6l1,0.3c-0.1,1.1-0.3,1.8-0.6,2.1c-0.3,0.2-0.6,0.3-1.1,0.3h-2.3c-0.9,0-1.4-0.5-1.4-1.5v-3.1h-2.3
						c-0.1,1.3-0.5,2.3-1,2.9c-0.7,0.8-1.8,1.4-3.3,2l-0.6-0.8c1.4-0.4,2.4-1,3-1.6c0.5-0.5,0.8-1.4,1-2.5H138v-4.1h3.9V16h-5.5v-1
						h5.5v-1.5H142.9z M145.8,18.4H139v2.2h6.8V18.4z"/>
				</g>
				<g id="icon_x2F_blue_x2F_-g-icon_x5F_spec_x5F_weight">
					<g id="Oval-7-Copy-17">
						<path class="st1" d="M21,41C10,41,1,32,1,21C1,10,10,1,21,1s20,9,20,20C41,32,32,41,21,41z M21,2C10.5,2,2,10.5,2,21
							s8.5,19,19,19s19-8.5,19-19S31.5,2,21,2z"/>
					</g>
					<g id="Oval">
						<path class="st1" d="M21,31.5c-3,0-5.5-2.5-5.5-5.5s2.5-5.5,5.5-5.5s5.5,2.5,5.5,5.5S24,31.5,21,31.5z M21,21.5
							c-2.5,0-4.5,2-4.5,4.5s2,4.5,4.5,4.5s4.5-2,4.5-4.5S23.5,21.5,21,21.5z"/>
					</g>
					<g id="Oval_1_">
						<path class="st1" d="M25.1,28.9c-0.1,0-0.2,0-0.3-0.1c-2.2-1.6-5.4-1.7-7.6-0.1c-0.2,0.2-0.5,0.1-0.7-0.1
							c-0.2-0.2-0.1-0.5,0.1-0.7c2.6-1.8,6.2-1.8,8.8,0.1c0.2,0.2,0.3,0.5,0.1,0.7C25.4,28.8,25.3,28.9,25.1,28.9z"/>
					</g>
					<g id="Rectangle-7">
						<path class="st1" d="M25,35.5h-8c-3,0-5.5-2.5-5.5-5.5V18c0-0.3,0.2-0.5,0.5-0.5h18c0.3,0,0.5,0.2,0.5,0.5v12
							C30.5,33,28,35.5,25,35.5z M12.5,18.5V30c0,2.5,2,4.5,4.5,4.5h8c2.5,0,4.5-2,4.5-4.5V18.5H12.5z"/>
					</g>
					<g id="Rectangle-7-Copy">
						<path class="st1" d="M28,14.5H14c-1.4,0-2.5-1.1-2.5-2.5c0-0.3,0.2-0.5,0.5-0.5h18c0.3,0,0.5,0.2,0.5,0.5
							C30.5,13.4,29.4,14.5,28,14.5z M12.6,12.5c0.2,0.6,0.8,1,1.4,1h14c0.7,0,1.2-0.4,1.4-1H12.6z"/>
					</g>
					<g id="Group" transform="translate(19.000000, 14.000000)">
						<g id="Line-3">
							<rect x="2.5" y="-0.5" class="st1" width="1" height="5"/>
						</g>
						<g id="Line-3-Copy">
							<rect x="0.5" y="-0.5" class="st1" width="1" height="5"/>
						</g>
					</g>
					<g id="Line-4">
						<path class="st1" d="M31,10.5H11c-0.3,0-0.5-0.2-0.5-0.5s0.2-0.5,0.5-0.5h20c0.3,0,0.5,0.2,0.5,0.5S31.3,10.5,31,10.5z"/>
					</g>
					<g id="Path-5">
						<path class="st1" d="M21,27.3c-0.1,0-0.2,0-0.3-0.1c-0.2-0.2-0.3-0.5-0.1-0.7l1.8-2.8c0.2-0.2,0.5-0.3,0.7-0.1
							c0.2,0.2,0.3,0.5,0.1,0.7l-1.8,2.8C21.3,27.3,21.2,27.3,21,27.3z"/>
					</g>
				</g>
			</g>
		</g>
	</g>
</g>
</svg>
