<?xml version="1.0" encoding="utf-8"?>
<!-- Generator: Adobe Illustrator 22.1.0, SVG Export Plug-In . SVG Version: 6.00 Build 0)  -->
<svg version="1.1" id="Layer_1" xmlns="http://www.w3.org/2000/svg" xmlns:xlink="http://www.w3.org/1999/xlink" x="0px" y="0px"
	 viewBox="0 0 303 40" style="enable-background:new 0 0 303 40;" xml:space="preserve">
<style type="text/css">
	.st0{enable-background:new    ;}
	.st1{fill:#0075FF;}
</style>
<title>Group 56</title>
<desc>Created with Sketch.</desc>
<g id="Q1-Webpage">
	<g id="OMNIA_Q1_1440px_eng" transform="translate(-871.000000, -9821.000000)">
		<g id="Group-5" transform="translate(12.000000, 9381.000000)">
			<g id="Group-56" transform="translate(860.000000, 439.000000)">
				<g id="Group-32-Copy-2" transform="translate(128.000000, 0.000000)">
					<g class="st0">
						<path class="st1" d="M57.7,24.1l5.6-7.8v0h-5.4v-1.1h7V16l-5.6,7.8v0H65V25h-7.3V24.1z"/>
						<path class="st1" d="M66.3,16c0-0.4,0.3-0.7,0.7-0.7c0.4,0,0.7,0.3,0.7,0.7c0,0.4-0.3,0.7-0.7,0.7
							C66.7,16.7,66.3,16.4,66.3,16z M66.5,17.9h1.2V25h-1.2V17.9z"/>
						<path class="st1" d="M69.3,17.9h1.1V19h0c0.4-0.8,1.2-1.3,2.3-1.3c1.6,0,2.5,1,2.5,2.6V25h-1.2v-4.4c0-1.1-0.5-1.8-1.6-1.8
							c-1.1,0-1.9,0.8-1.9,2V25h-1.2V17.9z"/>
						<path class="st1" d="M81.4,20.2c-0.2-0.8-0.8-1.4-1.8-1.4c-1.2,0-2.1,1-2.1,2.6c0,1.7,0.8,2.6,2.1,2.6c1,0,1.6-0.5,1.8-1.4
							h1.2c-0.2,1.4-1.4,2.4-3,2.4c-2,0-3.3-1.4-3.3-3.7c0-2.2,1.3-3.7,3.3-3.7c1.8,0,2.8,1.2,3,2.5H81.4z"/>
						<path class="st1" d="M83.6,21.6v-1.1h4.5v1.1H83.6z"/>
						<path class="st1" d="M89.4,23c0-1.2,0.9-2,2.6-2.1l2-0.1v-0.6c0-0.9-0.6-1.4-1.6-1.4c-0.9,0-1.5,0.4-1.6,1.1h-1.1
							c0.1-1.2,1.1-2.2,2.8-2.2c1.7,0,2.7,0.9,2.7,2.3V25H94v-1.2h0c-0.4,0.8-1.3,1.3-2.3,1.3C90.3,25.1,89.4,24.3,89.4,23z
							 M94,22.3v-0.6l-1.9,0.1c-1,0.1-1.5,0.5-1.5,1.2c0,0.7,0.6,1.1,1.4,1.1C93.1,24.1,94,23.3,94,22.3z"/>
						<path class="st1" d="M96.7,15.1h1.2V25h-1.2V15.1z"/>
						<path class="st1" d="M99.6,15.1h1.2V25h-1.2V15.1z"/>
						<path class="st1" d="M102,21.4c0-2.3,1.3-3.7,3.3-3.7c2,0,3.3,1.4,3.3,3.7c0,2.3-1.3,3.7-3.3,3.7
							C103.4,25.1,102,23.7,102,21.4z M107.4,21.4c0-1.7-0.8-2.6-2.1-2.6s-2.1,1-2.1,2.6s0.8,2.6,2.1,2.6S107.4,23.1,107.4,21.4z"/>
						<path class="st1" d="M109.7,27.6v-1c0.1,0,0.3,0,0.5,0c0.7,0,1-0.3,1.3-1.1l0.2-0.5l-2.6-7.1h1.3l2,5.9h0l2-5.9h1.3l-2.8,7.6
							c-0.6,1.7-1.2,2.2-2.5,2.2C110.1,27.7,109.8,27.6,109.7,27.6z"/>
						<path class="st1" d="M118.9,21.4c0-2.3,1.3-3.7,3.3-3.7c2,0,3.3,1.4,3.3,3.7c0,2.3-1.3,3.7-3.3,3.7
							C120.3,25.1,118.9,23.7,118.9,21.4z M124.3,21.4c0-1.7-0.8-2.6-2.1-2.6s-2.1,1-2.1,2.6s0.8,2.6,2.1,2.6S124.3,23.1,124.3,21.4
							z"/>
						<path class="st1" d="M132.6,25h-1.1v-1.2h0c-0.4,0.8-1.2,1.3-2.3,1.3c-1.6,0-2.5-1-2.5-2.6v-4.6h1.2v4.4
							c0,1.2,0.5,1.8,1.6,1.8c1.2,0,1.9-0.8,1.9-2v-4.2h1.2V25z"/>
						<path class="st1" d="M135.7,16.2v1.7h1.4v1h-1.4v4.2c0,0.6,0.3,0.9,0.9,0.9c0.1,0,0.4,0,0.5,0v1c-0.1,0-0.5,0.1-0.8,0.1
							c-1.3,0-1.8-0.5-1.8-1.9v-4.3h-1.1v-1h1.1v-1.7H135.7z"/>
						<path class="st1" d="M144,23c-0.2,1.2-1.4,2.2-3,2.2c-2,0-3.3-1.4-3.3-3.7c0-2.2,1.3-3.7,3.2-3.7c1.9,0,3.1,1.4,3.1,3.5v0.5
							H139v0.1c0,1.4,0.8,2.3,2.1,2.3c0.9,0,1.6-0.5,1.8-1.1H144z M139,20.8h3.9c0-1.2-0.8-2-1.9-2C139.9,18.8,139.1,19.7,139,20.8z
							"/>
						<path class="st1" d="M145.3,17.9h1.1v1.2h0c0.2-0.8,0.9-1.3,1.7-1.3c0.2,0,0.4,0,0.5,0V19c-0.1,0-0.3-0.1-0.6-0.1
							c-0.9,0-1.5,0.7-1.5,1.7V25h-1.2V17.9z"/>
						<path class="st1" d="M152.5,17.9h1.1v1.2h0c0.2-0.8,0.9-1.3,1.7-1.3c0.2,0,0.4,0,0.5,0V19c-0.1,0-0.3-0.1-0.6-0.1
							c-0.9,0-1.5,0.7-1.5,1.7V25h-1.2V17.9z"/>
						<path class="st1" d="M156.7,16c0-0.4,0.3-0.7,0.7-0.7c0.4,0,0.7,0.3,0.7,0.7c0,0.4-0.3,0.7-0.7,0.7
							C157,16.7,156.7,16.4,156.7,16z M156.8,17.9h1.2V25h-1.2V17.9z"/>
						<path class="st1" d="M159.6,17.9h1.1V19h0c0.4-0.8,1.2-1.3,2.3-1.3c1.6,0,2.5,1,2.5,2.6V25h-1.2v-4.4c0-1.1-0.5-1.8-1.6-1.8
							c-1.1,0-1.9,0.8-1.9,2V25h-1.2V17.9z"/>
						<path class="st1" d="M166.9,25.6h1.2c0.2,0.6,0.9,1.1,1.8,1.1c1.2,0,2-0.7,2-1.8v-1.1h0c-0.4,0.8-1.3,1.3-2.3,1.3
							c-1.8,0-3-1.4-3-3.6c0-2.2,1.2-3.7,3-3.7c1,0,1.8,0.5,2.3,1.3h0v-1.2h1.1v7c0,1.7-1.3,2.8-3.2,2.8
							C168.4,27.7,167.1,26.8,166.9,25.6z M172,21.4c0-1.6-0.8-2.6-2.1-2.6c-1.2,0-2,1-2,2.6s0.8,2.6,2,2.6
							C171.1,24,172,23,172,21.4z"/>
					</g>
					<g id="icon_x2F_blue_x2F_-g-icon_x5F_zinc_x5F_materials">
						<g id="Oval-7-Copy-20">
							<path class="st1" d="M21,41C10,41,1,32,1,21C1,10,10,1,21,1c11,0,20,9,20,20C41,32,32,41,21,41z M21,2C10.5,2,2,10.5,2,21
								s8.5,19,19,19s19-8.5,19-19S31.5,2,21,2z"/>
						</g>
						<g id="Group" transform="translate(7.000000, 10.000000)">
							<g id="Oval-2">
								<path class="st1" d="M13.9,17.9c-8,0-14.5-4.2-14.5-9.3c0-5.1,6.5-9.3,14.5-9.3c8,0,14.5,4.2,14.5,9.3
									C28.4,13.8,21.9,17.9,13.9,17.9z M13.9,0.6C6.6,0.6,0.6,4.2,0.6,8.7s6,8.1,13.3,8.1s13.3-3.6,13.3-8.1S21.3,0.6,13.9,0.6z"
									/>
							</g>
							<g id="Oval-2_1_">
								<path class="st1" d="M13.9,22.6c-8,0-14.5-4.2-14.5-9.3h1.2c0,4.5,6,8.1,13.3,8.1s13.3-3.6,13.3-8.1h1.2
									C28.4,18.4,21.9,22.6,13.9,22.6z"/>
							</g>
							<g id="Path">
								<path class="st1" d="M25.3,9c-0.2-0.2-0.3-0.3-0.5-0.5c-2.5-2.2-6.6-3.4-10.9-3.4c-4.6,0-8.8,1.4-11.3,3.8L2,8.2
									c2.7-2.5,7.2-4,12-4c4.6,0,8.8,1.3,11.6,3.7c0.2,0.2,0.4,0.3,0.6,0.5L25.3,9z"/>
							</g>
							<g id="Rectangle">
								<path class="st1" d="M28.4,13.9h-1.2V9.3h1.2V13.9z M0.6,13.9h-1.2V9.3h1.2V13.9z"/>
							</g>
							<g id="Oval-2_2_">
								<path class="st1" d="M13.9,15.6c-6.8,0-12.2-3-12.2-6.9c0-3.9,5.3-6.9,12.2-6.9s12.2,3,12.2,6.9
									C26.1,12.6,20.7,15.6,13.9,15.6z M13.9,2.9c-6,0-11,2.7-11,5.8c0,3.1,5,5.8,11,5.8c6,0,11-2.7,11-5.8
									C24.9,5.5,19.9,2.9,13.9,2.9z"/>
							</g>
						</g>
					</g>
				</g>
				<g id="Line-2-Copy">
					<rect x="0" y="18" class="st1" width="112" height="1"/>
				</g>
			</g>
		</g>
	</g>
</g>
</svg>
