<?xml version="1.0" encoding="utf-8"?>
<!-- Generator: Adobe Illustrator 22.1.0, SVG Export Plug-In . SVG Version: 6.00 Build 0)  -->
<svg version="1.1" id="Layer_1" xmlns="http://www.w3.org/2000/svg" xmlns:xlink="http://www.w3.org/1999/xlink" x="0px" y="0px"
	 viewBox="0 0 428 40" style="enable-background:new 0 0 428 40;" xml:space="preserve">
<style type="text/css">
	.st0{fill:#0075FF;}
	.st1{enable-background:new    ;}
</style>
<title>Group 23</title>
<desc>Created with Sketch.</desc>
<g id="Q1-Webpage">
	<g id="OMNIA_Q1_1920px_cn" transform="translate(-961.000000, -9675.000000)">
		<g id="Group-5" transform="translate(252.000000, 9461.000000)">
			<g id="Group-23" transform="translate(710.000000, 213.000000)">
				<g id="Line-2">
					<rect x="0" y="21" class="st0" width="188.7" height="1"/>
				</g>
				<g id="Group-32-Copy" transform="translate(216.000000, 0.000000)">
					<g class="st1">
						<path class="st0" d="M66.5,26.3l-0.3-1l1.8,0c0.3,0,0.5-0.2,0.5-0.6v-9.7h-9.2v11.3h-1V14.1h11.2V25c0,0.9-0.4,1.4-1.2,1.4
							H66.5z M67.6,16.7v0.9h-7.2v-0.9H67.6z M66.8,19.1v4.5h-5.6v-4.5H66.8z M65.8,20.1h-3.7v2.7h3.7V20.1z"/>
						<path class="st0" d="M74.1,18.2c-0.4,2.4-1,4.5-1.7,6.2l-0.9-0.5c0.7-1.8,1.2-3.7,1.6-5.9L74.1,18.2z M76.7,25.9
							c-1,0-1.5-0.5-1.5-1.4v-8h1v7.8c0,0.4,0.3,0.6,0.8,0.6h2.6c0.3,0,0.6-0.1,0.7-0.4c0.2-0.3,0.3-1.3,0.4-3l1,0.3
							c-0.1,1.9-0.3,3.1-0.6,3.5c-0.3,0.4-0.7,0.5-1.2,0.5H76.7z M80.1,17.2l-0.8,0.6c-0.7-1.1-1.7-2.3-3-3.6l0.8-0.5
							C78.4,15,79.4,16.2,80.1,17.2z M84.5,23.4l-0.9,0.4c-0.7-2.2-1.5-4.2-2.4-5.9l1-0.3C83.1,19.4,83.8,21.3,84.5,23.4z"/>
						<path class="st0" d="M97.8,26.4h-0.9v-0.6h-9.7v0.6h-0.9V14.1h11.6V26.4z M96.9,25V14.9h-9.7V25H96.9z M91.4,23.5
							c-0.8,0.5-1.7,1-2.9,1.4L88,24.3c1.1-0.4,2-0.8,2.8-1.3L91.4,23.5z M95.3,18.4v4.6h-6.5v-4.6H95.3z M94.8,15.6v2.2h-5.5v-2.2
							H94.8z M94.4,19.7V19h-4.8v0.7H94.4z M94.4,20.9v-0.7h-4.8v0.7H94.4z M94.4,21.5h-4.8v0.8h4.8V21.5z M93.9,16.2h-3.8v1h3.8
							V16.2z M95.9,24.3l-0.6,0.6c-0.6-0.4-1.5-0.9-2.6-1.4l0.5-0.5C94.3,23.4,95.1,23.9,95.9,24.3z"/>
						<path class="st0" d="M104.9,21.8l-0.8,0.2c-0.1-0.3-0.1-0.5-0.2-0.8c-1.4,0.4-2.7,0.8-3.9,0.9l-0.3-0.9
							c0.2-0.1,0.3-0.2,0.5-0.3c0.5-0.5,1.2-1.4,1.9-2.5c-0.7,0.1-1.4,0.2-2.1,0.4l-0.2-0.9c0.1-0.1,0.3-0.2,0.4-0.4
							c0.7-1.1,1.3-2.4,1.9-3.9l0.9,0.4c-0.7,1.6-1.3,2.8-2,3.8c0.6-0.1,1.2-0.2,1.8-0.3c0.3-0.5,0.6-1.1,1-1.7l0.9,0.3
							c-1.3,2.4-2.4,4-3.3,5c0.9-0.2,1.7-0.3,2.5-0.6c-0.1-0.4-0.2-0.9-0.4-1.2l0.8-0.2C104.4,19.8,104.7,20.8,104.9,21.8z
							 M101.1,22.9c-0.1,1.2-0.2,2.3-0.5,3.2l-0.9-0.3c0.3-0.9,0.4-1.9,0.5-3.1L101.1,22.9z M103.1,25.5l-0.9,0.2
							c-0.1-1.1-0.3-2.1-0.5-2.9l0.8-0.2C102.8,23.5,103,24.5,103.1,25.5z M104.9,24.6l-0.8,0.4c-0.2-0.9-0.5-1.7-0.7-2.4l0.8-0.3
							C104.4,23,104.7,23.7,104.9,24.6z M109,15.6h3.2v1h-1.1c-0.4,2.5-1.1,4.5-2.2,6.1c0.9,1.1,2.1,2.1,3.5,2.9l-0.6,0.8
							c-1.4-0.8-2.6-1.8-3.5-2.9c-1,1.2-2.2,2.2-3.7,2.8l-0.5-0.9c1.5-0.6,2.7-1.6,3.6-2.8c-1.1-1.5-1.7-3.3-2-5.3l0.9-0.3
							c0.2,1.7,0.8,3.3,1.7,4.6c0.9-1.5,1.5-3.2,1.8-5.3h-5.3v-1h3.2c-0.2-0.7-0.4-1.3-0.7-1.9l1-0.2
							C108.6,14.1,108.8,14.8,109,15.6z"/>
						<path class="st0" d="M118.6,14.1v4.4h-1.4v2.3h1.5v1h-1.5v2.6c0.6-0.2,1.2-0.4,1.8-0.6v1c-1.5,0.5-3.2,1.1-5.1,1.5l-0.3-1
							l0.7-0.2V20h0.9v4.9c0.4-0.1,0.7-0.2,1-0.3v-6.1h-2v-4.4H118.6z M117.6,15h-2.4v2.5h2.4V15z M122.2,13.7
							c-0.1,0.4-0.2,0.7-0.4,1h3.5v0.7c-0.5,1.2-1.2,2.2-2.1,3.1c0.9,0.8,2,1.3,3.3,1.8l-0.6,0.8c-1.4-0.4-2.5-1.1-3.5-1.9
							c-1,0.8-2.1,1.4-3.4,2l-0.6-0.8c1.3-0.5,2.4-1.1,3.3-1.9c-0.5-0.5-0.9-1.1-1.3-1.8c-0.4,0.4-0.8,0.8-1.2,1.2l-0.6-0.8
							c1.2-1,2.1-2.2,2.5-3.6L122.2,13.7z M125.3,26.4h-1v-0.6h-3.5v0.6h-1v-5.2h5.5V26.4z M124.3,24.8v-2.7h-3.5v2.7H124.3z
							 M122.5,17.9c0.7-0.7,1.3-1.5,1.7-2.3h-2.9c-0.1,0.1-0.2,0.2-0.2,0.4C121.5,16.7,122,17.4,122.5,17.9z"/>
						<path class="st0" d="M128.1,26.3l-0.2-1c0.4,0,0.8,0.1,1.1,0.1c0.3,0,0.5-0.2,0.5-0.5v-3.4c-0.5,0.2-1.1,0.4-1.6,0.6l-0.2-1
							c0.6-0.2,1.2-0.4,1.9-0.6v-3.2h-1.7v-1h1.7v-2.6h1v2.6h1.4v1h-1.4v2.7c0.4-0.2,0.8-0.4,1.2-0.6v1c-0.4,0.2-0.8,0.4-1.2,0.6
							v4.1c0,0.8-0.4,1.2-1.2,1.2H128.1z M140.1,19.9v0.9h-3.5v1.6h2.9v0.9h-2.9v1.8c0.6,0.1,1.2,0.1,2,0.1c0.7,0,1.4,0,1.9-0.1
							l-0.3,1c-0.6,0-1.1,0-1.5,0c-1.8,0-3.1-0.2-3.8-0.5c-0.5-0.3-1-0.8-1.4-1.6c-0.3,0.9-0.8,1.7-1.4,2.4l-0.7-0.6
							c1.1-1.3,1.7-2.7,1.8-4.3l0.9,0.1c0,0.5-0.1,1-0.2,1.5c0.4,0.9,1,1.5,1.6,1.8c0.1,0,0.2,0.1,0.3,0.1v-4.1H132v-0.9H140.1z
							 M139.1,14v4.9H133V14H139.1z M138.2,16.1v-1.2H134v1.2H138.2z M138.2,16.9H134v1.2h4.1V16.9z"/>
						<path class="st0" d="M148.7,14.5c-0.8,0.4-1.7,0.7-2.5,0.9v3.5h3.8v-5.2h1v5.2h3.2v1H151v6.5h-1v-6.5h-3.8
							c-0.2,3-1.3,5.1-3.5,6.5l-0.8-0.7c2-1.3,3.1-3.2,3.2-5.9h-3.4v-1h3.4v-3.3c-0.9,0.2-1.8,0.3-2.8,0.4l-0.3-0.9
							c2.5-0.2,4.5-0.7,6.2-1.5L148.7,14.5z"/>
						<path class="st0" d="M157.3,14.9v-1.4h0.9v1.4h1.9v-1.4h0.9v1.4h1.3v0.9h-1.3v1.4h1.5v0.9h-6.9v-0.9h1.6v-1.4H156v-0.9H157.3z
							 M161.7,25.2c0,0.7-0.4,1.1-1.2,1.1h-1.3l-0.2-0.9c0.5,0,0.9,0.1,1.3,0.1c0.4,0,0.5-0.2,0.5-0.6v-1.3
							c-0.8,0.3-1.6,0.6-2.5,0.9l-0.2-0.8c1-0.3,1.9-0.5,2.8-0.9V20h-3.1v0.9c0.8,0.2,1.6,0.4,2.4,0.7l-0.3,0.8
							c-0.7-0.3-1.4-0.5-2.1-0.7c0,2-0.4,3.6-1.2,4.8l-0.7-0.6c0.6-1.1,1-2.5,1-4.2v-2.5h4.9V25.2z M160.2,17.3v-1.4h-1.9v1.4H160.2
							z M165.4,21.7c0.6-1.4,1-3.1,1.1-5.1h-2.1c-0.4,1.5-1,2.8-1.7,3.8l-0.6-0.8c1-1.5,1.6-3.6,1.9-6.2l1,0.2
							c-0.1,0.7-0.2,1.4-0.4,2h3.7v1h-0.9c-0.1,2.4-0.5,4.4-1.4,6c0.7,1.1,1.6,2.1,2.6,2.9l-0.7,0.8c-1-0.8-1.8-1.8-2.4-2.8
							c-0.8,1.1-1.7,2.1-2.9,2.8l-0.5-0.9c1.2-0.7,2.1-1.7,2.9-2.9c-0.6-1.1-1.1-2.3-1.5-3.5l0.8-0.4
							C164.5,19.8,164.9,20.8,165.4,21.7z"/>
						<path class="st0" d="M173.3,13.6v0.8h2.1v0.8h-2.1v1.1h2.6v0.8h-1.4v0.7c0,0.2,0.1,0.3,0.4,0.3h0.8v0.7h-1.1
							c-0.6,0-0.9-0.3-0.9-0.9v-0.8h-1.4c-0.2,1-0.8,1.7-1.9,2.3l-0.6-0.6c0.9-0.4,1.5-1,1.7-1.7h-1.6v-0.8h2.6v-1.1h-2.1v-0.8h2.1
							v-0.8H173.3z M172.3,23.8c-0.5,1-1.1,1.9-1.7,2.6l-0.8-0.6c0.7-0.7,1.2-1.5,1.7-2.4L172.3,23.8z M173.4,18.6v1.1h2v0.9h-2v1.2
							c0.8-0.1,1.6-0.2,2.3-0.3v0.8c-1.7,0.2-3.5,0.4-5.7,0.6l-0.1-0.9c0.9-0.1,1.7-0.1,2.5-0.2v-1.3h-2.1v-0.9h2.1v-1.1H173.4z
							 M175.2,26.2l-1,0.2c-0.2-1-0.4-1.9-0.6-2.6l0.9-0.2C174.8,24.4,175,25.2,175.2,26.2z M180.5,22.4c-0.3-0.3-0.4-0.7-0.6-1.3
							c-0.1-0.7-0.2-1.4-0.2-2.4c0-0.8,0-1.8,0.1-2.8h-1.3v0.2c0,1.1-0.1,2.1-0.3,3c0.5,0.4,0.9,0.8,1.3,1.2l-0.6,0.7
							c-0.3-0.4-0.6-0.7-1-1c-0.3,1.2-0.8,2.1-1.5,2.9l-0.7-0.6c0.7-0.7,1.2-1.7,1.5-2.9c-0.4-0.3-0.9-0.7-1.3-1l0.6-0.7
							c0.3,0.2,0.7,0.4,1,0.7c0.1-0.7,0.2-1.5,0.2-2.4v-0.2h-1.4V15h1.4v-1.4h0.9V15h2.3c-0.1,1.3-0.1,2.6-0.1,3.7
							c0,0.9,0,1.6,0.1,2.2c0.1,0.5,0.3,0.8,0.4,0.8c0.1,0,0.2-0.2,0.3-0.5c0.1-0.3,0.1-0.7,0.2-1.4l0.8,0.4
							c-0.1,1.1-0.3,1.8-0.5,2.1c-0.2,0.3-0.4,0.4-0.6,0.4C181,22.8,180.7,22.7,180.5,22.4z M178.4,26.1l-1,0.2
							c-0.2-1-0.5-1.9-0.9-2.7l0.9-0.2C177.9,24.2,178.1,25.1,178.4,26.1z M182.1,25.8l-0.8,0.6c-0.5-0.8-1.1-1.8-1.9-2.8l0.8-0.5
							C181,24.1,181.6,25,182.1,25.8z"/>
						<path class="st0" d="M186.4,17c-0.6,1.3-1.4,2.5-2.3,3.4l-0.8-0.6c0.9-0.9,1.6-2,2.2-3.3L186.4,17z M187.2,21.6
							c0.4-0.7,0.6-1.4,0.9-2.1l0.8,0.4c-0.3,0.9-0.6,1.7-1,2.5c0.6,0.6,1.1,1.2,1.6,1.8l-0.7,0.8c-0.5-0.6-1-1.1-1.5-1.7
							c-0.9,1.3-2,2.4-3.4,3.1l-0.6-0.9c1.3-0.7,2.4-1.7,3.3-3c-0.6-0.6-1.2-1.2-1.9-1.7l0.6-0.7C186.1,20.5,186.7,21,187.2,21.6z
							 M187.5,15h2.7v1h-6.5v-1h2.8c-0.2-0.5-0.4-1-0.7-1.4l1-0.2C187.1,13.9,187.3,14.5,187.5,15z M187.3,17.1l0.6-0.6
							c0.6,0.4,1.2,1.1,2,2l-0.6,0.7C188.6,18.4,188,17.7,187.3,17.1z M190.8,19.6c-0.2,0.4-0.5,0.7-0.7,1.1l-0.6-0.8
							c1.1-1.6,1.9-3.7,2.3-6.4l1,0.2c-0.1,0.7-0.3,1.4-0.4,2.1h4v1h-1c-0.1,2.3-0.6,4.3-1.7,6c0.8,1,1.8,2,3,2.8l-0.7,0.8
							c-1.1-0.8-2.1-1.7-2.9-2.7c-0.9,1.1-2,2-3.4,2.8l-0.6-0.9c1.4-0.7,2.5-1.6,3.4-2.7C191.7,21.8,191.2,20.8,190.8,19.6z
							 M190.9,19.5l0.7-0.4c0.4,1,0.8,1.9,1.4,2.8c0.8-1.4,1.3-3.1,1.4-5.1H192C191.7,17.8,191.3,18.7,190.9,19.5z"/>
						<path class="st0" d="M203.5,14.7c-0.2-0.4-0.4-0.8-0.6-1.2l1-0.2c0.2,0.4,0.4,0.8,0.6,1.3h5.5v1h-5.9c-0.4,0.8-0.9,1.5-1.4,2
							l1.8-0.2c0.3-0.4,0.6-0.8,1-1.3l0.9,0.4c-1.3,1.7-2.5,3-3.5,3.8c0.9-0.1,1.8-0.2,2.6-0.4c-0.2-0.4-0.3-0.7-0.5-1l0.9-0.3
							c0.5,0.8,0.9,1.7,1.2,2.6l-0.9,0.4c-0.1-0.3-0.2-0.7-0.4-1c-0.4,0.1-0.9,0.2-1.4,0.2v1.6h5.7v1h-5.7v2.9h-1v-2.9h-5.7v-1h5.7
							v-1.5c-0.6,0.1-1.3,0.1-2,0.2l-0.2-0.9l0.4-0.1c0.6-0.4,1.4-1,2.2-2c-0.8,0.1-1.5,0.1-2.4,0.2l-0.2-0.8c0.7-0.4,1.3-1.1,1.8-2
							H198v-1H203.5z M201.1,19.5c-0.7,0.9-1.5,1.6-2.3,2.2l-0.7-0.8c0.8-0.6,1.6-1.2,2.2-2L201.1,19.5z M200.9,17.9l-0.7,0.7
							c-0.5-0.5-1.1-1.1-2-1.7l0.7-0.7C199.7,16.7,200.4,17.3,200.9,17.9z M209.6,16.7c-0.6,0.7-1.3,1.4-2,1.9l-0.6-0.7
							c0.7-0.5,1.3-1.1,1.8-1.7L209.6,16.7z M209.9,21l-0.7,0.7c-0.5-0.7-1.2-1.4-2.1-2.2l0.6-0.6C208.6,19.6,209.3,20.3,209.9,21z"
							/>
					</g>
					<g id="icon_x2F_blue_x2F_-g-icon_x5F_cd_x5F_texture">
						<g id="Oval-7-Copy-20">
							<path class="st0" d="M21,41C10,41,1,32,1,21C1,10,10,1,21,1s20,9,20,20C41,32,32,41,21,41z M21,2C10.5,2,2,10.5,2,21
								s8.5,19,19,19s19-8.5,19-19S31.5,2,21,2z"/>
						</g>
						
							<g id="Group-2" transform="translate(21.000000, 21.000000) rotate(-270.000000) translate(-21.000000, -21.000000) translate(7.000000, 5.000000)">
							<g id="Oval-7-Copy-20_1_">
								<path class="st0" d="M26.7,6.6c0,0.1-0.1,0.3-0.2,0.4c-0.2,0.2-0.5,0.1-0.7-0.1C22.9,3.2,18.6,1.1,14,1.1
									c-4.6,0-8.9,2.1-11.7,5.7C2.1,7.1,1.8,7.1,1.6,6.9C1.4,6.8,1.3,6.4,1.5,6.2c3-3.9,7.6-6.1,12.5-6.1c5,0,9.5,2.2,12.6,6.2
									C26.6,6.4,26.7,6.5,26.7,6.6z M26.6,25.5c0,0.1,0,0.2-0.1,0.3c-3,3.9-7.6,6.1-12.5,6.1c-4.9,0-9.5-2.2-12.5-6.1
									c-0.2-0.2-0.1-0.5,0.1-0.7c0.2-0.2,0.5-0.1,0.7,0.1c2.8,3.6,7.1,5.7,11.7,5.7c4.6,0,8.9-2.1,11.7-5.7
									c0.2-0.2,0.5-0.3,0.7-0.1C26.5,25.2,26.6,25.3,26.6,25.5z"/>
							</g>
							<g id="Oval-7-Copy-20_2_">
								<path class="st0" d="M23.2,24.9c0,0.1-0.1,0.3-0.2,0.4C20.6,27.7,17.4,29,14,29c-3.4,0-6.7-1.3-9.1-3.7
									c-0.2-0.2-0.2-0.5,0-0.7c0.2-0.2,0.5-0.2,0.7,0C7.9,26.8,10.8,28,14,28c3.2,0,6.1-1.2,8.4-3.4c0.2-0.2,0.5-0.2,0.7,0
									C23.2,24.7,23.2,24.8,23.2,24.9z M23.2,7c0,0.1,0,0.2-0.1,0.3c-0.2,0.2-0.5,0.2-0.7,0C20.1,5.2,17.1,4,14,4
									c-3.1,0-6.1,1.2-8.3,3.4c-0.2,0.2-0.5,0.2-0.7,0C4.8,7.2,4.8,6.9,5,6.7C7.4,4.3,10.6,3,14,3c3.4,0,6.6,1.3,9,3.6
									C23.1,6.7,23.2,6.9,23.2,7z"/>
							</g>
							<g id="Oval-7-Copy-20_3_">
								<path class="st0" d="M19.2,24.3c0,0.2-0.1,0.3-0.3,0.4C17.4,25.6,15.7,26,14,26c-1.8,0-3.5-0.5-5-1.3
									c-0.2-0.1-0.3-0.4-0.2-0.7c0.1-0.2,0.4-0.3,0.7-0.2c1.4,0.8,2.9,1.2,4.5,1.2c1.6,0,3.1-0.4,4.4-1.2c0.2-0.1,0.5-0.1,0.7,0.2
									C19.1,24.1,19.2,24.2,19.2,24.3z M19.1,7.7c0,0.1,0,0.2-0.1,0.2c-0.1,0.2-0.4,0.3-0.7,0.2C17,7.4,15.5,7,14,7
									c-1.5,0-3.1,0.4-4.4,1.1c-0.2,0.1-0.5,0-0.7-0.2c-0.1-0.2,0-0.5,0.2-0.7C10.6,6.4,12.3,6,14,6c1.7,0,3.4,0.4,4.8,1.2
									C19,7.3,19.1,7.5,19.1,7.7z"/>
							</g>
						</g>
						<g id="Rectangle">
							<path class="st0" d="M26.5,36h-11c-1.4,0-2.5-1.1-2.5-2.5v-25C13,7.1,14.1,6,15.5,6h11C27.9,6,29,7.1,29,8.5v25
								C29,34.9,27.9,36,26.5,36z M15.5,7C14.7,7,14,7.7,14,8.5v25c0,0.8,0.7,1.5,1.5,1.5h11c0.8,0,1.5-0.7,1.5-1.5v-25
								C28,7.7,27.3,7,26.5,7H15.5z"/>
						</g>
						<g id="Combined-Shape">
							<path class="st0" d="M26,34.5H16c-0.8,0-1.5-0.7-1.5-1.5V9c0-0.8,0.7-1.5,1.5-1.5h1.4c0.3,0,0.5,0.2,0.5,0.5v0.2
								c0,0.3,0.2,0.5,0.5,0.5h5.2c0.3,0,0.5-0.2,0.5-0.5V8c0-0.3,0.2-0.5,0.5-0.5H26c0.8,0,1.5,0.7,1.5,1.5v24
								C27.5,33.8,26.8,34.5,26,34.5z M16,8.5c-0.3,0-0.5,0.2-0.5,0.5v24c0,0.3,0.2,0.5,0.5,0.5h10c0.3,0,0.5-0.2,0.5-0.5V9
								c0-0.3-0.2-0.5-0.5-0.5h-0.9c-0.1,0.7-0.7,1.2-1.5,1.2h-5.2c-0.7,0-1.4-0.5-1.5-1.2H16z"/>
						</g>
					</g>
				</g>
			</g>
		</g>
	</g>
</g>
</svg>
