<?xml version="1.0" encoding="utf-8"?>
<!-- Generator: Adobe Illustrator 22.1.0, SVG Export Plug-In . SVG Version: 6.00 Build 0)  -->
<svg version="1.1" id="Layer_1" xmlns="http://www.w3.org/2000/svg" xmlns:xlink="http://www.w3.org/1999/xlink" x="0px" y="0px"
	 viewBox="0 0 169 40" style="enable-background:new 0 0 169 40;" xml:space="preserve">
<style type="text/css">
	.st0{enable-background:new    ;}
	.st1{fill:#0075FF;}
</style>
<title>Group 32</title>
<desc>Created with Sketch.</desc>
<g id="Q1-Webpage">
	<g id="OMNIA_Q1_1440px_eng" transform="translate(-248.000000, -8136.000000)">
		<g id="Group-32" transform="translate(247.000000, 8135.000000)">
			<g class="st0">
				<path class="st1" d="M61.3,15.1c2.9,0,4.7,1.8,4.7,4.9c0,3.1-1.7,4.9-4.7,4.9H58v-9.9H61.3z M59.2,23.9h2c2.2,0,3.5-1.4,3.5-3.8
					c0-2.5-1.2-3.8-3.5-3.8h-2V23.9z"/>
				<path class="st1" d="M67.2,16c0-0.4,0.3-0.7,0.7-0.7c0.4,0,0.7,0.3,0.7,0.7c0,0.4-0.3,0.7-0.7,0.7C67.5,16.7,67.2,16.4,67.2,16z
					 M67.3,17.9h1.2V25h-1.2V17.9z"/>
				<path class="st1" d="M69.8,23c0-1.2,0.9-2,2.6-2.1l2-0.1v-0.6c0-0.9-0.6-1.4-1.6-1.4c-0.9,0-1.5,0.4-1.6,1.1h-1.1
					c0.1-1.2,1.1-2.2,2.8-2.2c1.7,0,2.7,0.9,2.7,2.3V25h-1.1v-1.2h0c-0.4,0.8-1.3,1.3-2.3,1.3C70.8,25.1,69.8,24.3,69.8,23z
					 M74.5,22.3v-0.6l-1.9,0.1c-1,0.1-1.5,0.5-1.5,1.2c0,0.7,0.6,1.1,1.4,1.1C73.6,24.1,74.5,23.3,74.5,22.3z"/>
				<path class="st1" d="M77.2,17.9h1.1V19h0c0.3-0.8,1.1-1.3,2-1.3c1,0,1.7,0.5,2,1.4h0c0.4-0.8,1.2-1.4,2.2-1.4
					c1.4,0,2.3,0.9,2.3,2.3V25h-1.2v-4.6c0-1-0.5-1.5-1.5-1.5c-0.9,0-1.6,0.7-1.6,1.7V25h-1.2v-4.8c0-0.9-0.6-1.4-1.5-1.4
					c-0.9,0-1.6,0.7-1.6,1.7V25h-1.2V17.9z"/>
				<path class="st1" d="M94.3,23c-0.2,1.2-1.4,2.2-3,2.2c-2,0-3.3-1.4-3.3-3.7c0-2.2,1.3-3.7,3.2-3.7c1.9,0,3.1,1.4,3.1,3.5v0.5
					h-5.1v0.1c0,1.4,0.8,2.3,2.1,2.3c0.9,0,1.6-0.5,1.8-1.1H94.3z M89.3,20.8h3.9c0-1.2-0.8-2-1.9-2C90.1,18.8,89.4,19.7,89.3,20.8z
					"/>
				<path class="st1" d="M97.1,16.2v1.7h1.4v1h-1.4v4.2c0,0.6,0.3,0.9,0.9,0.9c0.1,0,0.4,0,0.5,0v1c-0.1,0-0.5,0.1-0.8,0.1
					c-1.3,0-1.8-0.5-1.8-1.9v-4.3h-1.1v-1H96v-1.7H97.1z"/>
				<path class="st1" d="M105.5,23c-0.2,1.2-1.4,2.2-3,2.2c-2,0-3.3-1.4-3.3-3.7c0-2.2,1.3-3.7,3.2-3.7c1.9,0,3.1,1.4,3.1,3.5v0.5
					h-5.1v0.1c0,1.4,0.8,2.3,2.1,2.3c0.9,0,1.6-0.5,1.8-1.1H105.5z M100.5,20.8h3.9c0-1.2-0.8-2-1.9-2
					C101.3,18.8,100.5,19.7,100.5,20.8z"/>
				<path class="st1" d="M106.8,17.9h1.1v1.2h0c0.2-0.8,0.9-1.3,1.7-1.3c0.2,0,0.4,0,0.5,0V19c-0.1,0-0.3-0.1-0.6-0.1
					c-0.9,0-1.5,0.7-1.5,1.7V25h-1.2V17.9z"/>
			</g>
			<g class="st0">
			</g>
			<g class="st0">
				<path class="st1" d="M118.1,16.8c0.2,0.2,0.3,0.4,0.3,0.6c0,0.2-0.1,0.4-0.3,0.6s-0.4,0.3-0.6,0.3c-0.3,0-0.4-0.1-0.6-0.3
					c-0.2-0.2-0.2-0.4-0.2-0.6c0-0.3,0.1-0.4,0.2-0.6c0.2-0.2,0.4-0.3,0.6-0.3C117.7,16.6,118,16.7,118.1,16.8z M118.1,22
					c0.2,0.2,0.3,0.4,0.3,0.6c0,0.2-0.1,0.4-0.3,0.6c-0.2,0.2-0.4,0.3-0.6,0.3c-0.3,0-0.4-0.1-0.6-0.3c-0.2-0.2-0.2-0.4-0.2-0.6
					c0-0.3,0.1-0.4,0.2-0.6c0.2-0.2,0.4-0.3,0.6-0.3C117.7,21.7,118,21.8,118.1,22z"/>
			</g>
			<g class="st0">
			</g>
			<g class="st0">
				<path class="st1" d="M127.8,16.4L127.8,16.4l-2.6,1.9V17l2.6-1.9h1.2V25h-1.2V16.4z"/>
				<path class="st1" d="M134,16.4L134,16.4l-2.6,1.9V17l2.6-1.9h1.2V25H134V16.4z"/>
				<path class="st1" d="M137.5,20.1c0-3.1,1.3-5.1,3.6-5.1s3.6,2,3.6,5.1c0,3.1-1.3,5.1-3.6,5.1C138.9,25.2,137.5,23.2,137.5,20.1z
					 M143.5,20.1c0-2.4-0.9-4-2.4-4s-2.4,1.6-2.4,4c0,2.5,0.9,4,2.4,4C142.7,24.1,143.5,22.5,143.5,20.1z"/>
				<path class="st1" d="M149,17.9h1.1V19h0c0.3-0.8,1.1-1.3,2-1.3c1,0,1.7,0.5,2,1.4h0c0.4-0.8,1.2-1.4,2.2-1.4
					c1.4,0,2.3,0.9,2.3,2.3V25h-1.2v-4.6c0-1-0.5-1.5-1.5-1.5c-0.9,0-1.6,0.7-1.6,1.7V25h-1.2v-4.8c0-0.9-0.6-1.4-1.5-1.4
					c-0.9,0-1.6,0.7-1.6,1.7V25H149V17.9z"/>
				<path class="st1" d="M160.3,17.9h1.1V19h0c0.3-0.8,1.1-1.3,2-1.3c1,0,1.7,0.5,2,1.4h0c0.4-0.8,1.2-1.4,2.2-1.4
					c1.4,0,2.3,0.9,2.3,2.3V25h-1.2v-4.6c0-1-0.5-1.5-1.5-1.5c-0.9,0-1.6,0.7-1.6,1.7V25h-1.2v-4.8c0-0.9-0.6-1.4-1.5-1.4
					c-0.9,0-1.6,0.7-1.6,1.7V25h-1.2V17.9z"/>
			</g>
			<g id="icon_x2F_blue_x2F_-g-icon_x5F_width">
				<g id="Oval-7">
					<path class="st1" d="M21,41C10,41,1,32,1,21C1,10,10,1,21,1s20,9,20,20C41,32,32,41,21,41z M21,2C10.5,2,2,10.5,2,21
						s8.5,19,19,19s19-8.5,19-19S31.5,2,21,2z"/>
				</g>
				<g id="Line">
					<path class="st1" d="M33,21.5h-3c-0.3,0-0.5-0.2-0.5-0.5s0.2-0.5,0.5-0.5h3c0.3,0,0.5,0.2,0.5,0.5S33.3,21.5,33,21.5z M26,21.5
						h-3c-0.3,0-0.5-0.2-0.5-0.5s0.2-0.5,0.5-0.5h3c0.3,0,0.5,0.2,0.5,0.5S26.3,21.5,26,21.5z M19,21.5h-3c-0.3,0-0.5-0.2-0.5-0.5
						s0.2-0.5,0.5-0.5h3c0.3,0,0.5,0.2,0.5,0.5S19.3,21.5,19,21.5z M12,21.5H9c-0.3,0-0.5-0.2-0.5-0.5s0.2-0.5,0.5-0.5h3
						c0.3,0,0.5,0.2,0.5,0.5S12.3,21.5,12,21.5z"/>
				</g>
				<g id="Line-Copy">
					<path class="st1" d="M9,31.5c-0.3,0-0.5-0.2-0.5-0.5v-4c0-0.3,0.2-0.5,0.5-0.5s0.5,0.2,0.5,0.5v4C9.5,31.3,9.3,31.5,9,31.5z
						 M9,23.5c-0.3,0-0.5-0.2-0.5-0.5v-4c0-0.3,0.2-0.5,0.5-0.5s0.5,0.2,0.5,0.5v4C9.5,23.3,9.3,23.5,9,23.5z M9,15.5
						c-0.3,0-0.5-0.2-0.5-0.5v-4c0-0.3,0.2-0.5,0.5-0.5s0.5,0.2,0.5,0.5v4C9.5,15.3,9.3,15.5,9,15.5z"/>
				</g>
				<g id="Line-Copy-2">
					<path class="st1" d="M33,31.5c-0.3,0-0.5-0.2-0.5-0.5v-4c0-0.3,0.2-0.5,0.5-0.5s0.5,0.2,0.5,0.5v4C33.5,31.3,33.3,31.5,33,31.5
						z M33,23.5c-0.3,0-0.5-0.2-0.5-0.5v-4c0-0.3,0.2-0.5,0.5-0.5s0.5,0.2,0.5,0.5v4C33.5,23.3,33.3,23.5,33,23.5z M33,15.5
						c-0.3,0-0.5-0.2-0.5-0.5v-4c0-0.3,0.2-0.5,0.5-0.5s0.5,0.2,0.5,0.5v4C33.5,15.3,33.3,15.5,33,15.5z"/>
				</g>
				<g id="Oval-7_1_">
					<path class="st1" d="M21,33c-4.7,0-9-2.8-11-7.2c-0.1-0.3,0-0.5,0.3-0.7c0.3-0.1,0.5,0,0.7,0.3c1.8,4,5.7,6.6,10,6.6
						s8.3-2.6,10-6.6c0.1-0.3,0.4-0.4,0.7-0.3c0.3,0.1,0.4,0.4,0.3,0.7C30,30.2,25.7,33,21,33z M31.6,16.9c-0.2,0-0.4-0.1-0.5-0.3
						c-1.7-4-5.7-6.6-10.1-6.6c-4.3,0-8.3,2.6-10,6.6c-0.1,0.3-0.4,0.4-0.7,0.3c-0.3-0.1-0.4-0.4-0.3-0.7C12,11.8,16.3,9,21,9
						c4.8,0,9.2,2.8,11.1,7.2c0.1,0.3,0,0.5-0.3,0.7C31.7,16.9,31.7,16.9,31.6,16.9z"/>
				</g>
			</g>
		</g>
	</g>
</g>
</svg>
