<?xml version="1.0" encoding="utf-8"?>
<!-- Generator: Adobe Illustrator 22.1.0, SVG Export Plug-In . SVG Version: 6.00 Build 0)  -->
<svg version="1.1" id="Layer_1" xmlns="http://www.w3.org/2000/svg" xmlns:xlink="http://www.w3.org/1999/xlink" x="0px" y="0px"
	 viewBox="0 0 267 40" style="enable-background:new 0 0 267 40;" xml:space="preserve">
<style type="text/css">
	.st0{enable-background:new    ;}
	.st1{fill:#0075FF;}
</style>
<title>Group 32</title>
<desc>Created with Sketch.</desc>
<g id="Q1-Webpage">
	<g id="OMNIA_Q1_1440px_eng" transform="translate(-736.000000, -3761.000000)">
		<g id="Group-32_1_" transform="translate(735.000000, 3760.000000)">
			<g class="st0">
				<path class="st1" d="M57.6,20.1c0-3.1,1.8-5.1,4.5-5.1s4.5,2,4.5,5.1c0,1.9-0.6,3.4-1.8,4.2l1.3,1.8h-1.4l-0.9-1.3
					c-0.5,0.2-1.1,0.3-1.8,0.3C59.3,25.2,57.6,23.2,57.6,20.1z M63.2,23.9l-1.2-1.7h1.4l0.8,1.1c0.8-0.7,1.2-1.8,1.2-3.3
					c0-2.4-1.3-4-3.3-4s-3.3,1.5-3.3,4c0,2.4,1.3,4,3.3,4C62.5,24,62.8,24,63.2,23.9z"/>
				<path class="st1" d="M67.9,16c0-0.4,0.3-0.7,0.7-0.7c0.4,0,0.7,0.3,0.7,0.7c0,0.4-0.3,0.7-0.7,0.7C68.3,16.7,67.9,16.4,67.9,16z
					 M68.1,17.9h1.2V25h-1.2V17.9z"/>
				<path class="st1" d="M77,25h-1.2l-2.6-7.1h1.3l2,5.8h0l2-5.8h1.2L77,25z"/>
				<path class="st1" d="M83,16.4L83,16.4l-2.6,1.9V17l2.6-1.9h1.2V25H83V16.4z"/>
				<path class="st1" d="M86.6,24.3c0-0.4,0.3-0.8,0.8-0.8s0.8,0.3,0.8,0.8s-0.3,0.8-0.8,0.8S86.6,24.7,86.6,24.3z"/>
				<path class="st1" d="M93.1,15c1.8,0,3.2,1.2,3.2,2.7c0,1.1-0.5,1.9-2.1,3.6l-2.5,2.6v0h4.8V25h-6.5v-0.8l3.5-3.7
					c1.3-1.4,1.6-1.9,1.6-2.7c0-1-0.9-1.7-2-1.7c-1.2,0-2,0.8-2,1.9v0h-1.2v0C89.9,16.3,91.3,15,93.1,15z"/>
				<path class="st1" d="M98.1,24.3c0-0.4,0.3-0.8,0.8-0.8s0.8,0.3,0.8,0.8s-0.3,0.8-0.8,0.8S98.1,24.7,98.1,24.3z"/>
				<path class="st1" d="M106.1,22.9h-5v-1.1c0.8-1.6,2-3.4,4.3-6.7h1.8v6.7h1.4v1.1h-1.4V25h-1.2V22.9z M102.4,21.9h3.7v-5.7h0
					C104.2,18.8,103.2,20.5,102.4,21.9L102.4,21.9z"/>
				<path class="st1" d="M119.8,25h-1.2l-1.6-5.5h0l-1.6,5.5h-1.2l-2-7.1h1.2l1.4,5.8h0l1.6-5.8h1.1l1.6,5.8h0l1.4-5.8h1.2L119.8,25
					z"/>
				<path class="st1" d="M122.7,16c0-0.4,0.3-0.7,0.7-0.7c0.4,0,0.7,0.3,0.7,0.7c0,0.4-0.3,0.7-0.7,0.7
					C123,16.7,122.7,16.4,122.7,16z M122.8,17.9h1.2V25h-1.2V17.9z"/>
				<path class="st1" d="M125.6,17.9h1.1v1.2h0c0.2-0.8,0.9-1.3,1.7-1.3c0.2,0,0.4,0,0.5,0V19c-0.1,0-0.3-0.1-0.6-0.1
					c-0.9,0-1.5,0.7-1.5,1.7V25h-1.2V17.9z"/>
				<path class="st1" d="M135.5,23c-0.2,1.2-1.4,2.2-3,2.2c-2,0-3.3-1.4-3.3-3.7c0-2.2,1.3-3.7,3.2-3.7c1.9,0,3.1,1.4,3.1,3.5v0.5
					h-5.1v0.1c0,1.4,0.8,2.3,2.1,2.3c0.9,0,1.6-0.5,1.8-1.1H135.5z M130.5,20.8h3.9c0-1.2-0.8-2-1.9-2
					C131.3,18.8,130.5,19.7,130.5,20.8z"/>
				<path class="st1" d="M136.8,15.1h1.2V25h-1.2V15.1z"/>
				<path class="st1" d="M145.5,23c-0.2,1.2-1.4,2.2-3,2.2c-2,0-3.3-1.4-3.3-3.7c0-2.2,1.3-3.7,3.2-3.7c1.9,0,3.1,1.4,3.1,3.5v0.5
					h-5.1v0.1c0,1.4,0.8,2.3,2.1,2.3c0.9,0,1.6-0.5,1.8-1.1H145.5z M140.5,20.8h3.9c0-1.2-0.8-2-1.9-2
					C141.3,18.8,140.6,19.7,140.5,20.8z"/>
				<path class="st1" d="M149.3,17.8c1.5,0,2.5,0.9,2.6,2.1h-1.1c-0.1-0.7-0.6-1.1-1.5-1.1c-0.9,0-1.4,0.4-1.4,1.1
					c0,0.5,0.4,0.8,1.2,1l1.1,0.3c1.4,0.4,2,0.9,2,1.9c0,1.2-1.2,2.1-2.8,2.1c-1.6,0-2.6-0.8-2.8-2.1h1.2c0.1,0.7,0.7,1.1,1.7,1.1
					s1.6-0.4,1.6-1.1c0-0.5-0.3-0.8-1.1-1l-1.3-0.3c-1.3-0.3-1.9-1-1.9-1.9C146.7,18.6,147.7,17.8,149.3,17.8z"/>
				<path class="st1" d="M155.8,17.8c1.5,0,2.5,0.9,2.6,2.1h-1.1c-0.1-0.7-0.6-1.1-1.5-1.1c-0.9,0-1.4,0.4-1.4,1.1
					c0,0.5,0.4,0.8,1.2,1l1.1,0.3c1.4,0.4,2,0.9,2,1.9c0,1.2-1.2,2.1-2.8,2.1c-1.6,0-2.6-0.8-2.8-2.1h1.2c0.1,0.7,0.7,1.1,1.7,1.1
					s1.6-0.4,1.6-1.1c0-0.5-0.3-0.8-1.1-1l-1.3-0.3c-1.3-0.3-1.9-1-1.9-1.9C153.2,18.6,154.3,17.8,155.8,17.8z"/>
				<path class="st1" d="M167.4,20.2c-0.2-0.8-0.8-1.4-1.8-1.4c-1.2,0-2.1,1-2.1,2.6c0,1.7,0.8,2.6,2.1,2.6c1,0,1.6-0.5,1.8-1.4h1.2
					c-0.2,1.4-1.4,2.4-3,2.4c-2,0-3.3-1.4-3.3-3.7c0-2.2,1.3-3.7,3.3-3.7c1.8,0,2.8,1.2,3,2.5H167.4z"/>
				<path class="st1" d="M169.8,15.1h1.2V19h0c0.4-0.8,1.2-1.3,2.3-1.3c1.6,0,2.5,1.1,2.5,2.6V25h-1.2v-4.4c0-1.1-0.6-1.8-1.7-1.8
					c-1.2,0-1.9,0.8-1.9,2V25h-1.2V15.1z"/>
				<path class="st1" d="M177,23c0-1.2,0.9-2,2.6-2.1l2-0.1v-0.6c0-0.9-0.6-1.4-1.6-1.4c-0.9,0-1.5,0.4-1.6,1.1h-1.1
					c0.1-1.2,1.1-2.2,2.8-2.2c1.7,0,2.7,0.9,2.7,2.3V25h-1.1v-1.2h0c-0.4,0.8-1.3,1.3-2.3,1.3C177.9,25.1,177,24.3,177,23z
					 M181.6,22.3v-0.6l-1.9,0.1c-1,0.1-1.5,0.5-1.5,1.2c0,0.7,0.6,1.1,1.4,1.1C180.7,24.1,181.6,23.3,181.6,22.3z"/>
				<path class="st1" d="M184.3,17.9h1.1v1.2h0c0.2-0.8,0.9-1.3,1.7-1.3c0.2,0,0.4,0,0.5,0V19c-0.1,0-0.3-0.1-0.6-0.1
					c-0.9,0-1.5,0.7-1.5,1.7V25h-1.2V17.9z"/>
				<path class="st1" d="M188.2,25.6h1.2c0.2,0.6,0.9,1.1,1.8,1.1c1.2,0,2-0.7,2-1.8v-1.1h0c-0.4,0.8-1.3,1.3-2.3,1.3
					c-1.8,0-3-1.4-3-3.6c0-2.2,1.2-3.7,3-3.7c1,0,1.8,0.5,2.3,1.3h0v-1.2h1.1v7c0,1.7-1.3,2.8-3.2,2.8
					C189.6,27.7,188.4,26.8,188.2,25.6z M193.2,21.4c0-1.6-0.8-2.6-2.1-2.6c-1.2,0-2,1-2,2.6s0.8,2.6,2,2.6
					C192.4,24,193.2,23,193.2,21.4z"/>
				<path class="st1" d="M195.9,16c0-0.4,0.3-0.7,0.7-0.7c0.4,0,0.7,0.3,0.7,0.7c0,0.4-0.3,0.7-0.7,0.7
					C196.2,16.7,195.9,16.4,195.9,16z M196,17.9h1.2V25H196V17.9z"/>
				<path class="st1" d="M198.8,17.9h1.1V19h0c0.4-0.8,1.2-1.3,2.3-1.3c1.6,0,2.5,1,2.5,2.6V25h-1.2v-4.4c0-1.1-0.5-1.8-1.6-1.8
					c-1.1,0-1.9,0.8-1.9,2V25h-1.2V17.9z"/>
				<path class="st1" d="M206.1,25.6h1.2c0.2,0.6,0.9,1.1,1.8,1.1c1.2,0,2-0.7,2-1.8v-1.1h0c-0.4,0.8-1.3,1.3-2.3,1.3
					c-1.8,0-3-1.4-3-3.6c0-2.2,1.2-3.7,3-3.7c1,0,1.8,0.5,2.3,1.3h0v-1.2h1.1v7c0,1.7-1.3,2.8-3.2,2.8
					C207.5,27.7,206.3,26.8,206.1,25.6z M211.1,21.4c0-1.6-0.8-2.6-2.1-2.6c-1.2,0-2,1-2,2.6s0.8,2.6,2,2.6
					C210.3,24,211.1,23,211.1,21.4z"/>
				<path class="st1" d="M219.3,17.8c1.5,0,2.5,0.9,2.6,2.1h-1.1c-0.1-0.7-0.6-1.1-1.5-1.1c-0.9,0-1.4,0.4-1.4,1.1
					c0,0.5,0.4,0.8,1.2,1l1.1,0.3c1.4,0.4,2,0.9,2,1.9c0,1.2-1.2,2.1-2.8,2.1c-1.6,0-2.6-0.8-2.8-2.1h1.2c0.1,0.7,0.7,1.1,1.7,1.1
					s1.6-0.4,1.6-1.1c0-0.5-0.3-0.8-1.1-1l-1.3-0.3c-1.3-0.3-1.9-1-1.9-1.9C216.6,18.6,217.7,17.8,219.3,17.8z"/>
				<path class="st1" d="M224.8,16.2v1.7h1.4v1h-1.4v4.2c0,0.6,0.3,0.9,0.9,0.9c0.1,0,0.4,0,0.5,0v1c-0.1,0-0.5,0.1-0.8,0.1
					c-1.3,0-1.8-0.5-1.8-1.9v-4.3h-1.1v-1h1.1v-1.7H224.8z"/>
				<path class="st1" d="M227,23c0-1.2,0.9-2,2.6-2.1l2-0.1v-0.6c0-0.9-0.6-1.4-1.6-1.4c-0.9,0-1.5,0.4-1.6,1.1h-1.1
					c0.1-1.2,1.1-2.2,2.8-2.2c1.7,0,2.7,0.9,2.7,2.3V25h-1.1v-1.2h0c-0.4,0.8-1.3,1.3-2.3,1.3C228,25.1,227,24.3,227,23z
					 M231.7,22.3v-0.6l-1.9,0.1c-1,0.1-1.5,0.5-1.5,1.2c0,0.7,0.6,1.1,1.4,1.1C230.8,24.1,231.7,23.3,231.7,22.3z"/>
				<path class="st1" d="M234.4,17.9h1.1V19h0c0.4-0.8,1.2-1.3,2.3-1.3c1.6,0,2.5,1,2.5,2.6V25H239v-4.4c0-1.1-0.5-1.8-1.6-1.8
					c-1.1,0-1.9,0.8-1.9,2V25h-1.2V17.9z"/>
				<path class="st1" d="M241.4,21.4c0-2.2,1.2-3.7,3-3.7c1,0,1.8,0.5,2.3,1.3h0v-3.9h1.2V25h-1.1v-1.2h0c-0.5,0.8-1.3,1.3-2.3,1.3
					C242.6,25.1,241.4,23.7,241.4,21.4z M242.6,21.4c0,1.6,0.8,2.6,2.1,2.6c1.2,0,2-1,2-2.6c0-1.6-0.8-2.6-2-2.6
					C243.4,18.8,242.6,19.8,242.6,21.4z"/>
				<path class="st1" d="M249.2,23c0-1.2,0.9-2,2.6-2.1l2-0.1v-0.6c0-0.9-0.6-1.4-1.6-1.4c-0.9,0-1.5,0.4-1.6,1.1h-1.1
					c0.1-1.2,1.1-2.2,2.8-2.2c1.7,0,2.7,0.9,2.7,2.3V25h-1.1v-1.2h0c-0.4,0.8-1.3,1.3-2.3,1.3C250.1,25.1,249.2,24.3,249.2,23z
					 M253.8,22.3v-0.6l-1.9,0.1c-1,0.1-1.5,0.5-1.5,1.2c0,0.7,0.6,1.1,1.4,1.1C252.9,24.1,253.8,23.3,253.8,22.3z"/>
				<path class="st1" d="M256.5,17.9h1.1v1.2h0c0.2-0.8,0.9-1.3,1.7-1.3c0.2,0,0.4,0,0.5,0V19c-0.1,0-0.3-0.1-0.6-0.1
					c-0.9,0-1.5,0.7-1.5,1.7V25h-1.2V17.9z"/>
				<path class="st1" d="M260.1,21.4c0-2.2,1.2-3.7,3-3.7c1,0,1.8,0.5,2.3,1.3h0v-3.9h1.2V25h-1.1v-1.2h0c-0.5,0.8-1.3,1.3-2.3,1.3
					C261.4,25.1,260.1,23.7,260.1,21.4z M261.3,21.4c0,1.6,0.8,2.6,2.1,2.6c1.2,0,2-1,2-2.6c0-1.6-0.8-2.6-2-2.6
					C262.1,18.8,261.3,19.8,261.3,21.4z"/>
			</g>
			<g id="icon_x2F_blue_x2F_-g-icon_x5F_qi">
				<g id="Group" transform="translate(1.000000, 1.000000)">
					<g id="Oval-7">
						<path class="st1" d="M20,40C9,40,0,31,0,20C0,9,9,0,20,0s20,9,20,20C40,31,31,40,20,40z M20,1C9.5,1,1,9.5,1,20s8.5,19,19,19
							s19-8.5,19-19S30.5,1,20,1z"/>
					</g>
					<g id="Group-32" transform="translate(9.500000, 5.500000)">
						<g id="Combined-Shape">
							<path class="st1" d="M13.2,30.5c-2.3,0-4.1-1.9-4.1-4.1v-2.5c-5.3-0.3-9.5-4.6-9.5-10c0-5.5,4.5-10,10-10
								c1.3,0,2.6,0.3,3.8,0.8c0.2,0.1,0.3,0.3,0.3,0.4V30C13.6,30.3,13.4,30.5,13.2,30.5z M9.5,4.9c-5,0-9,4-9,9s4,9,9,9
								c0.3,0,0.5,0.2,0.5,0.5v2.9c0,1.6,1.2,2.9,2.7,3.1v-24C11.7,5.1,10.6,4.9,9.5,4.9z M16,21.3c-0.1,0-0.1,0-0.2,0
								c-0.2-0.1-0.3-0.3-0.3-0.4V7c0-0.2,0.1-0.4,0.3-0.4c0.2-0.1,0.4,0,0.5,0.1c2,1.9,3.1,4.5,3.1,7.3c0,2.8-1.1,5.4-3.1,7.3
								C16.2,21.3,16.1,21.3,16,21.3z M16.5,8.2v11.4c1.3-1.6,2-3.6,2-5.7S17.8,9.8,16.5,8.2z M9.5,20.2c-3.5,0-6.3-2.8-6.3-6.3
								S6,7.6,9.5,7.6C9.8,7.6,10,7.8,10,8v11.7C10,20,9.8,20.2,9.5,20.2z M9,8.6c-2.7,0.2-4.9,2.6-4.9,5.3c0,2.8,2.1,5.1,4.9,5.3
								V8.6z"/>
						</g>
						<g id="Oval-18">
							<path class="st1" d="M15,4.1c-1.3,0-2.3-1-2.3-2.3c0-1.3,1-2.3,2.3-2.3c1.3,0,2.3,1,2.3,2.3C17.3,3.1,16.3,4.1,15,4.1z
								 M15,0.5c-0.7,0-1.3,0.6-1.3,1.3s0.6,1.3,1.3,1.3c0.7,0,1.3-0.6,1.3-1.3S15.7,0.5,15,0.5z"/>
						</g>
					</g>
				</g>
			</g>
		</g>
	</g>
</g>
</svg>
