<?xml version="1.0" encoding="utf-8"?>
<!-- Generator: Adobe Illustrator 22.1.0, SVG Export Plug-In . SVG Version: 6.00 Build 0)  -->
<svg version="1.1" id="Layer_1" xmlns="http://www.w3.org/2000/svg" xmlns:xlink="http://www.w3.org/1999/xlink" x="0px" y="0px"
	 viewBox="0 0 175 40" style="enable-background:new 0 0 175 40;" xml:space="preserve">
<style type="text/css">
	.st0{enable-background:new    ;}
	.st1{fill:#0075FF;}
</style>
<title>Group 32 Copy</title>
<desc>Created with Sketch.</desc>
<g id="Q1-Webpage">
	<g id="OMNIA_Q1_1440px_eng" transform="translate(-248.000000, -8203.000000)">
		<g id="Group-32-Copy" transform="translate(247.000000, 8202.000000)">
			<g class="st0">
				<path class="st1" d="M61.2,26H60l-2.7-9.9h1.3l2,8.1h0.1l2.2-8.1h1.2l2.2,8.1h0.1l2-8.1h1.3L66.9,26h-1.2l-2.3-7.8h-0.1L61.2,26
					z"/>
				<path class="st1" d="M75.8,24c-0.2,1.2-1.4,2.2-3,2.2c-2,0-3.3-1.4-3.3-3.7c0-2.2,1.3-3.7,3.2-3.7c1.9,0,3.1,1.4,3.1,3.5v0.5
					h-5.1v0.1c0,1.4,0.8,2.3,2.1,2.3c0.9,0,1.6-0.5,1.8-1.1H75.8z M70.8,21.8h3.9c0-1.2-0.8-2-1.9-2C71.7,19.8,70.9,20.7,70.8,21.8z
					"/>
				<path class="st1" d="M77,17c0-0.4,0.3-0.7,0.7-0.7c0.4,0,0.7,0.3,0.7,0.7c0,0.4-0.3,0.7-0.7,0.7C77.4,17.7,77,17.4,77,17z
					 M77.2,18.9h1.2V26h-1.2V18.9z"/>
				<path class="st1" d="M79.9,26.6h1.2c0.2,0.6,0.9,1.1,1.8,1.1c1.2,0,2-0.7,2-1.8v-1.1h0c-0.4,0.8-1.3,1.3-2.3,1.3
					c-1.8,0-3-1.4-3-3.6c0-2.2,1.2-3.6,3-3.6c1,0,1.8,0.5,2.3,1.3h0v-1.2h1.1v7c0,1.7-1.3,2.8-3.2,2.8
					C81.3,28.7,80.1,27.8,79.9,26.6z M84.9,22.4c0-1.6-0.8-2.6-2.1-2.6c-1.2,0-2,1-2,2.6c0,1.6,0.8,2.6,2,2.6
					C84.1,25,84.9,24,84.9,22.4z"/>
				<path class="st1" d="M87.7,16.1h1.2V20h0c0.4-0.8,1.2-1.3,2.3-1.3c1.6,0,2.5,1.1,2.5,2.6V26h-1.2v-4.4c0-1.1-0.6-1.8-1.7-1.8
					c-1.2,0-1.9,0.8-1.9,2V26h-1.2V16.1z"/>
				<path class="st1" d="M96.8,17.2v1.7h1.4v1h-1.4v4.2c0,0.6,0.3,0.9,0.9,0.9c0.1,0,0.4,0,0.5,0v1c-0.1,0-0.5,0.1-0.8,0.1
					c-1.3,0-1.8-0.5-1.8-1.9v-4.3h-1.1v-1h1.1v-1.7H96.8z"/>
			</g>
			<g>
			</g>
			<g class="st0">
				<path class="st1" d="M107,17.8c0.2,0.2,0.3,0.4,0.3,0.6c0,0.2-0.1,0.4-0.3,0.6s-0.4,0.3-0.6,0.3c-0.3,0-0.4-0.1-0.6-0.3
					s-0.2-0.4-0.2-0.6c0-0.3,0.1-0.4,0.2-0.6c0.2-0.2,0.4-0.3,0.6-0.3C106.7,17.6,106.9,17.7,107,17.8z M107,23
					c0.2,0.2,0.3,0.4,0.3,0.6c0,0.2-0.1,0.4-0.3,0.6c-0.2,0.2-0.4,0.3-0.6,0.3c-0.3,0-0.4-0.1-0.6-0.3c-0.2-0.2-0.2-0.4-0.2-0.6
					c0-0.3,0.1-0.4,0.2-0.6c0.2-0.2,0.4-0.3,0.6-0.3C106.7,22.7,106.9,22.8,107,23z"/>
			</g>
			<g>
			</g>
			<g class="st0">
				<path class="st1" d="M116.7,17.4L116.7,17.4l-2.6,1.9V18l2.6-1.9h1.2V26h-1.2V17.4z"/>
				<path class="st1" d="M122.4,20.4h1.2c1.1,0,1.9-0.7,1.9-1.7c0-1-0.7-1.6-1.9-1.6c-1.1,0-1.9,0.6-2,1.7h-1.2
					c0.1-1.7,1.4-2.7,3.2-2.7c1.8,0,3.1,1.1,3.1,2.5c0,1.2-0.8,2.1-2,2.3v0c1.5,0.1,2.4,1,2.4,2.4c0,1.7-1.5,2.9-3.5,2.9
					c-2.1,0-3.4-1.1-3.5-2.8h1.2c0.1,1,1,1.7,2.3,1.7c1.3,0,2.2-0.7,2.2-1.8c0-1.2-0.9-1.9-2.3-1.9h-1.2V20.4z"/>
				<path class="st1" d="M128.5,21.1c0-3.1,1.3-5.1,3.6-5.1s3.6,2,3.6,5.1c0,3.1-1.3,5.1-3.6,5.1C129.9,26.2,128.5,24.2,128.5,21.1z
					 M134.5,21.1c0-2.4-0.9-4-2.4-4s-2.4,1.6-2.4,4c0,2.5,0.9,4,2.4,4C133.7,25.1,134.5,23.5,134.5,21.1z"/>
				<path class="st1" d="M140,26.6h1.2c0.2,0.6,0.9,1.1,1.8,1.1c1.2,0,2-0.7,2-1.8v-1.1h0c-0.4,0.8-1.3,1.3-2.3,1.3
					c-1.8,0-3-1.4-3-3.6c0-2.2,1.2-3.6,3-3.6c1,0,1.8,0.5,2.3,1.3h0v-1.2h1.1v7c0,1.7-1.3,2.8-3.2,2.8
					C141.4,28.7,140.2,27.8,140,26.6z M145,22.4c0-1.6-0.8-2.6-2.1-2.6c-1.2,0-2,1-2,2.6c0,1.6,0.8,2.6,2,2.6
					C144.2,25,145,24,145,22.4z"/>
				<path class="st1" d="M147.7,18.9h1.1v1.2h0c0.2-0.8,0.9-1.3,1.7-1.3c0.2,0,0.4,0,0.5,0V20c-0.1,0-0.3-0.1-0.6-0.1
					c-0.9,0-1.5,0.7-1.5,1.7V26h-1.2V18.9z"/>
				<path class="st1" d="M151.6,24c0-1.2,0.9-2,2.6-2.1l2-0.1v-0.6c0-0.9-0.6-1.4-1.6-1.4c-0.9,0-1.5,0.4-1.6,1.1h-1.1
					c0.1-1.2,1.1-2.2,2.8-2.2c1.7,0,2.7,0.9,2.7,2.3V26h-1.1v-1.2h0c-0.4,0.8-1.3,1.3-2.3,1.3C152.6,26.1,151.6,25.3,151.6,24z
					 M156.2,23.3v-0.6l-1.9,0.1c-1,0.1-1.5,0.5-1.5,1.2c0,0.7,0.6,1.1,1.4,1.1C155.4,25.1,156.2,24.3,156.2,23.3z"/>
				<path class="st1" d="M158.9,18.9h1.1V20h0c0.3-0.8,1.1-1.3,2-1.3c1,0,1.7,0.5,2,1.4h0c0.4-0.8,1.2-1.4,2.2-1.4
					c1.4,0,2.3,0.9,2.3,2.3V26h-1.2v-4.6c0-1-0.5-1.5-1.5-1.5c-0.9,0-1.6,0.7-1.6,1.7V26h-1.2v-4.8c0-0.9-0.6-1.4-1.5-1.4
					c-0.9,0-1.6,0.7-1.6,1.7V26h-1.2V18.9z"/>
				<path class="st1" d="M172.7,18.8c1.5,0,2.5,0.9,2.6,2.1h-1.1c-0.1-0.7-0.6-1.1-1.5-1.1c-0.9,0-1.4,0.4-1.4,1.1
					c0,0.5,0.4,0.8,1.2,1l1.1,0.3c1.4,0.4,2,0.9,2,1.9c0,1.2-1.2,2.1-2.8,2.1c-1.6,0-2.6-0.8-2.8-2.1h1.2c0.1,0.7,0.7,1.1,1.7,1.1
					s1.6-0.4,1.6-1.1c0-0.5-0.3-0.8-1.1-1l-1.3-0.3c-1.3-0.3-1.9-1-1.9-1.9C170.1,19.6,171.1,18.8,172.7,18.8z"/>
			</g>
			<g id="icon_x2F_blue_x2F_-g-icon_x5F_spec_x5F_weight">
				<g id="Oval-7-Copy-17">
					<path class="st1" d="M21,41C10,41,1,32,1,21C1,10,10,1,21,1s20,9,20,20C41,32,32,41,21,41z M21,2C10.5,2,2,10.5,2,21
						s8.5,19,19,19s19-8.5,19-19S31.5,2,21,2z"/>
				</g>
				<g id="Oval">
					<path class="st1" d="M21,31.5c-3,0-5.5-2.5-5.5-5.5s2.5-5.5,5.5-5.5s5.5,2.5,5.5,5.5S24,31.5,21,31.5z M21,21.5
						c-2.5,0-4.5,2-4.5,4.5s2,4.5,4.5,4.5s4.5-2,4.5-4.5S23.5,21.5,21,21.5z"/>
				</g>
				<g id="Oval_1_">
					<path class="st1" d="M25.1,28.9c-0.1,0-0.2,0-0.3-0.1c-2.2-1.6-5.4-1.7-7.6-0.1c-0.2,0.2-0.5,0.1-0.7-0.1
						c-0.2-0.2-0.1-0.5,0.1-0.7c2.6-1.8,6.2-1.8,8.8,0.1c0.2,0.2,0.3,0.5,0.1,0.7C25.4,28.8,25.3,28.9,25.1,28.9z"/>
				</g>
				<g id="Rectangle-7">
					<path class="st1" d="M25,35.5h-8c-3,0-5.5-2.5-5.5-5.5V18c0-0.3,0.2-0.5,0.5-0.5h18c0.3,0,0.5,0.2,0.5,0.5v12
						C30.5,33,28,35.5,25,35.5z M12.5,18.5V30c0,2.5,2,4.5,4.5,4.5h8c2.5,0,4.5-2,4.5-4.5V18.5H12.5z"/>
				</g>
				<g id="Rectangle-7-Copy">
					<path class="st1" d="M28,14.5H14c-1.4,0-2.5-1.1-2.5-2.5c0-0.3,0.2-0.5,0.5-0.5h18c0.3,0,0.5,0.2,0.5,0.5
						C30.5,13.4,29.4,14.5,28,14.5z M12.6,12.5c0.2,0.6,0.8,1,1.4,1h14c0.7,0,1.2-0.4,1.4-1H12.6z"/>
				</g>
				<g id="Group" transform="translate(19.000000, 14.000000)">
					<g id="Line-3">
						<rect x="2.5" y="-0.5" class="st1" width="1" height="5"/>
					</g>
					<g id="Line-3-Copy">
						<rect x="0.5" y="-0.5" class="st1" width="1" height="5"/>
					</g>
				</g>
				<g id="Line-4">
					<path class="st1" d="M31,10.5H11c-0.3,0-0.5-0.2-0.5-0.5s0.2-0.5,0.5-0.5h20c0.3,0,0.5,0.2,0.5,0.5S31.3,10.5,31,10.5z"/>
				</g>
				<g id="Path-5">
					<path class="st1" d="M21,27.3c-0.1,0-0.2,0-0.3-0.1c-0.2-0.2-0.3-0.5-0.1-0.7l1.8-2.8c0.2-0.2,0.5-0.3,0.7-0.1
						c0.2,0.2,0.3,0.5,0.1,0.7l-1.8,2.8C21.3,27.3,21.2,27.3,21,27.3z"/>
				</g>
			</g>
		</g>
	</g>
</g>
</svg>
