<?xml version="1.0" encoding="utf-8"?>
<!-- Generator: Adobe Illustrator 22.1.0, SVG Export Plug-In . SVG Version: 6.00 Build 0)  -->
<svg version="1.1" id="Layer_1" xmlns="http://www.w3.org/2000/svg" xmlns:xlink="http://www.w3.org/1999/xlink" x="0px" y="0px"
	 viewBox="0 0 352 40" style="enable-background:new 0 0 352 40;" xml:space="preserve">
<style type="text/css">
	.st0{fill:#0075FF;}
	.st1{enable-background:new    ;}
</style>
<title>Group 55</title>
<desc>Created with Sketch.</desc>
<g id="Q1-Webpage">
	<g id="OMNIA_Q1_1440px_eng" transform="translate(-721.000000, -9595.000000)">
		<g id="Group-5" transform="translate(12.000000, 9381.000000)">
			<g id="Group-55" transform="translate(710.000000, 213.000000)">
				<g id="Line-2">
					<rect x="0" y="20.5" class="st0" width="188.7" height="1"/>
				</g>
				<g id="Group-32-Copy" transform="translate(216.000000, 0.000000)">
					<g class="st1">
						<path class="st0" d="M61.2,25H60l-2.7-9.9h1.3l2,8.1h0.1l2.2-8.1h1.2l2.2,8.1h0.1l2-8.1h1.3L66.9,25h-1.2l-2.3-7.8h-0.1
							L61.2,25z"/>
						<path class="st0" d="M69.5,23c0-1.2,0.9-2,2.6-2.1l2-0.1v-0.6c0-0.9-0.6-1.4-1.6-1.4c-0.9,0-1.5,0.4-1.6,1.1h-1.1
							c0.1-1.2,1.1-2.2,2.8-2.2c1.7,0,2.7,0.9,2.7,2.3V25h-1.1v-1.2h0c-0.4,0.8-1.3,1.3-2.3,1.3C70.4,25.1,69.5,24.3,69.5,23z
							 M74.1,22.3v-0.6l-1.9,0.1c-1,0.1-1.5,0.5-1.5,1.2c0,0.7,0.6,1.1,1.4,1.1C73.2,24.1,74.1,23.3,74.1,22.3z"/>
						<path class="st0" d="M80,25h-1.2l-2.6-7.1h1.3l2,5.8h0l2-5.8h1.2L80,25z"/>
						<path class="st0" d="M89.2,23c-0.2,1.2-1.4,2.2-3,2.2c-2,0-3.3-1.4-3.3-3.7c0-2.2,1.3-3.7,3.2-3.7c1.9,0,3.1,1.4,3.1,3.5v0.5
							h-5.1v0.1c0,1.4,0.8,2.3,2.1,2.3c0.9,0,1.6-0.5,1.8-1.1H89.2z M84.2,20.8h3.9c0-1.2-0.8-2-1.9-2
							C85.1,18.8,84.3,19.7,84.2,20.8z"/>
						<path class="st0" d="M99.9,21.4c0,2.2-1.2,3.7-3,3.7c-1,0-1.8-0.5-2.3-1.3h0v3.5h-1.2v-9.5h1.1v1.2h0c0.4-0.8,1.3-1.3,2.3-1.3
							C98.6,17.8,99.9,19.2,99.9,21.4z M98.7,21.4c0-1.6-0.8-2.6-2.1-2.6c-1.2,0-2,1.1-2,2.6c0,1.6,0.8,2.6,2,2.6
							C97.9,24.1,98.7,23.1,98.7,21.4z"/>
						<path class="st0" d="M100.8,23c0-1.2,0.9-2,2.6-2.1l2-0.1v-0.6c0-0.9-0.6-1.4-1.6-1.4c-0.9,0-1.5,0.4-1.6,1.1H101
							c0.1-1.2,1.1-2.2,2.8-2.2c1.7,0,2.7,0.9,2.7,2.3V25h-1.1v-1.2h0c-0.4,0.8-1.3,1.3-2.3,1.3C101.7,25.1,100.8,24.3,100.8,23z
							 M105.4,22.3v-0.6l-1.9,0.1c-1,0.1-1.5,0.5-1.5,1.2c0,0.7,0.6,1.1,1.4,1.1C104.5,24.1,105.4,23.3,105.4,22.3z"/>
						<path class="st0" d="M109.7,16.2v1.7h1.4v1h-1.4v4.2c0,0.6,0.3,0.9,0.9,0.9c0.1,0,0.4,0,0.5,0v1c-0.1,0-0.5,0.1-0.8,0.1
							c-1.3,0-1.8-0.5-1.8-1.9v-4.3h-1.1v-1h1.1v-1.7H109.7z"/>
						<path class="st0" d="M113.9,16.2v1.7h1.4v1h-1.4v4.2c0,0.6,0.3,0.9,0.9,0.9c0.1,0,0.4,0,0.5,0v1c-0.1,0-0.5,0.1-0.8,0.1
							c-1.3,0-1.8-0.5-1.8-1.9v-4.3h-1.1v-1h1.1v-1.7H113.9z"/>
						<path class="st0" d="M122.2,23c-0.2,1.2-1.4,2.2-3,2.2c-2,0-3.3-1.4-3.3-3.7c0-2.2,1.3-3.7,3.2-3.7c1.9,0,3.1,1.4,3.1,3.5v0.5
							h-5.1v0.1c0,1.4,0.8,2.3,2.1,2.3c0.9,0,1.6-0.5,1.8-1.1H122.2z M117.2,20.8h3.9c0-1.2-0.8-2-1.9-2
							C118.1,18.8,117.3,19.7,117.2,20.8z"/>
						<path class="st0" d="M123.5,17.9h1.1v1.2h0c0.2-0.8,0.9-1.3,1.7-1.3c0.2,0,0.4,0,0.5,0V19c-0.1,0-0.3-0.1-0.6-0.1
							c-0.9,0-1.5,0.7-1.5,1.7V25h-1.2V17.9z"/>
						<path class="st0" d="M127.8,17.9h1.1V19h0c0.4-0.8,1.2-1.3,2.3-1.3c1.6,0,2.5,1,2.5,2.6V25h-1.2v-4.4c0-1.1-0.5-1.8-1.6-1.8
							c-1.1,0-1.9,0.8-1.9,2V25h-1.2V17.9z"/>
					</g>
					<g id="icon_x2F_blue_x2F_-g-icon_x5F_cd_x5F_texture">
						<g id="Oval-7-Copy-20">
							<path class="st0" d="M21,41C10,41,1,32,1,21C1,10,10,1,21,1s20,9,20,20C41,32,32,41,21,41z M21,2C10.5,2,2,10.5,2,21
								s8.5,19,19,19s19-8.5,19-19S31.5,2,21,2z"/>
						</g>
						
							<g id="Group-2" transform="translate(21.000000, 21.000000) rotate(-270.000000) translate(-21.000000, -21.000000) translate(7.000000, 5.000000)">
							<g id="Oval-7-Copy-20_1_">
								<path class="st0" d="M26.7,6.6c0,0.1-0.1,0.3-0.2,0.4c-0.2,0.2-0.5,0.1-0.7-0.1C22.9,3.2,18.6,1.1,14,1.1
									c-4.6,0-8.9,2.1-11.7,5.7C2.1,7.1,1.8,7.1,1.6,6.9C1.4,6.8,1.3,6.4,1.5,6.2c3-3.9,7.6-6.1,12.5-6.1c5,0,9.5,2.2,12.6,6.2
									C26.6,6.4,26.7,6.5,26.7,6.6z M26.6,25.5c0,0.1,0,0.2-0.1,0.3c-3,3.9-7.6,6.1-12.5,6.1c-4.9,0-9.5-2.2-12.5-6.1
									c-0.2-0.2-0.1-0.5,0.1-0.7c0.2-0.2,0.5-0.1,0.7,0.1c2.8,3.6,7.1,5.7,11.7,5.7c4.6,0,8.9-2.1,11.7-5.7
									c0.2-0.2,0.5-0.3,0.7-0.1C26.5,25.2,26.6,25.3,26.6,25.5z"/>
							</g>
							<g id="Oval-7-Copy-20_2_">
								<path class="st0" d="M23.2,24.9c0,0.1-0.1,0.3-0.2,0.4C20.6,27.7,17.4,29,14,29c-3.4,0-6.7-1.3-9.1-3.7
									c-0.2-0.2-0.2-0.5,0-0.7c0.2-0.2,0.5-0.2,0.7,0C7.9,26.8,10.8,28,14,28c3.2,0,6.1-1.2,8.4-3.4c0.2-0.2,0.5-0.2,0.7,0
									C23.2,24.7,23.2,24.8,23.2,24.9z M23.2,7c0,0.1,0,0.2-0.1,0.3c-0.2,0.2-0.5,0.2-0.7,0C20.1,5.2,17.1,4,14,4
									c-3.1,0-6.1,1.2-8.3,3.4c-0.2,0.2-0.5,0.2-0.7,0C4.8,7.2,4.8,6.9,5,6.7C7.4,4.3,10.6,3,14,3c3.4,0,6.6,1.3,9,3.6
									C23.1,6.7,23.2,6.9,23.2,7z"/>
							</g>
							<g id="Oval-7-Copy-20_3_">
								<path class="st0" d="M19.2,24.3c0,0.2-0.1,0.3-0.3,0.4C17.4,25.6,15.7,26,14,26c-1.8,0-3.5-0.5-5-1.3
									c-0.2-0.1-0.3-0.4-0.2-0.7c0.1-0.2,0.4-0.3,0.7-0.2c1.4,0.8,2.9,1.2,4.5,1.2c1.6,0,3.1-0.4,4.4-1.2c0.2-0.1,0.5-0.1,0.7,0.2
									C19.1,24.1,19.2,24.2,19.2,24.3z M19.1,7.7c0,0.1,0,0.2-0.1,0.2c-0.1,0.2-0.4,0.3-0.7,0.2C17,7.4,15.5,7,14,7
									c-1.5,0-3.1,0.4-4.4,1.1c-0.2,0.1-0.5,0-0.7-0.2c-0.1-0.2,0-0.5,0.2-0.7C10.6,6.4,12.3,6,14,6c1.7,0,3.4,0.4,4.8,1.2
									C19,7.3,19.1,7.5,19.1,7.7z"/>
							</g>
						</g>
						<g id="Rectangle">
							<path class="st0" d="M26.5,36h-11c-1.4,0-2.5-1.1-2.5-2.5v-25C13,7.1,14.1,6,15.5,6h11C27.9,6,29,7.1,29,8.5v25
								C29,34.9,27.9,36,26.5,36z M15.5,7C14.7,7,14,7.7,14,8.5v25c0,0.8,0.7,1.5,1.5,1.5h11c0.8,0,1.5-0.7,1.5-1.5v-25
								C28,7.7,27.3,7,26.5,7H15.5z"/>
						</g>
						<g id="Combined-Shape">
							<path class="st0" d="M26,34.5H16c-0.8,0-1.5-0.7-1.5-1.5V9c0-0.8,0.7-1.5,1.5-1.5h1.4c0.3,0,0.5,0.2,0.5,0.5v0.2
								c0,0.3,0.2,0.5,0.5,0.5h5.2c0.3,0,0.5-0.2,0.5-0.5V8c0-0.3,0.2-0.5,0.5-0.5H26c0.8,0,1.5,0.7,1.5,1.5v24
								C27.5,33.8,26.8,34.5,26,34.5z M16,8.5c-0.3,0-0.5,0.2-0.5,0.5v24c0,0.3,0.2,0.5,0.5,0.5h10c0.3,0,0.5-0.2,0.5-0.5V9
								c0-0.3-0.2-0.5-0.5-0.5h-0.9c-0.1,0.7-0.7,1.2-1.5,1.2h-5.2c-0.7,0-1.4-0.5-1.5-1.2H16z"/>
						</g>
					</g>
				</g>
			</g>
		</g>
	</g>
</g>
</svg>
