<?xml version="1.0" encoding="utf-8"?>
<!-- Generator: Adobe Illustrator 22.1.0, SVG Export Plug-In . SVG Version: 6.00 Build 0)  -->
<svg version="1.1" id="Layer_1" xmlns="http://www.w3.org/2000/svg" xmlns:xlink="http://www.w3.org/1999/xlink" x="0px" y="0px"
	 viewBox="0 0 253 40" style="enable-background:new 0 0 253 40;" xml:space="preserve">
<style type="text/css">
	.st0{enable-background:new    ;}
	.st1{fill:#0075FF;}
	.st2{filter:url(#Adobe_OpacityMaskFilter);}
	.st3{fill:#FFFFFF;}
	.st4{mask:url(#mask-2_1_);}
</style>
<title>Group 2</title>
<desc>Created with Sketch.</desc>
<g id="Q1-Webpage">
	<g id="OMNIA_Q1_1440px_eng" transform="translate(-248.000000, -3293.000000)">
		<g id="Group-2_1_" transform="translate(247.000000, 3292.000000)">
			<g class="st0">
				<path class="st1" d="M65.1,16.7c0.8,0.6,1.2,1.4,1.3,2.4h-1.1c-0.1-0.7-0.5-1.3-1.1-1.7c-0.5-0.4-1.2-0.6-2-0.6
					c-1.2,0-2.1,0.4-2.7,1.2c-0.6,0.8-0.9,1.8-0.9,3c0,1.2,0.3,2.2,0.9,3c0.6,0.8,1.5,1.2,2.7,1.2c0.8,0,1.5-0.2,2-0.6
					c0.6-0.4,1-1.1,1.2-2h1.1c-0.2,1.2-0.7,2.1-1.6,2.7c-0.8,0.6-1.7,0.9-2.8,0.9c-1.6,0-2.7-0.5-3.6-1.5c-0.8-0.9-1.1-2.1-1.1-3.6
					c0-1.5,0.4-2.7,1.1-3.7c0.8-1.1,2-1.6,3.6-1.6C63.4,15.8,64.4,16.1,65.1,16.7z"/>
				<path class="st1" d="M73.9,19.7c0.6,0.7,0.9,1.6,0.9,2.7c0,1.1-0.3,2-0.9,2.7c-0.7,0.8-1.5,1.1-2.6,1.1c-1.1,0-1.9-0.4-2.6-1.1
					c-0.6-0.7-0.9-1.6-0.9-2.7c0-1.1,0.3-2,0.9-2.7c0.6-0.8,1.5-1.1,2.6-1.1C72.4,18.6,73.2,18.9,73.9,19.7z M69.5,20.4
					c-0.4,0.5-0.6,1.2-0.6,2c0,0.8,0.2,1.5,0.6,2c0.4,0.6,1,0.9,1.8,0.9c0.8,0,1.4-0.3,1.8-0.9c0.4-0.5,0.6-1.2,0.6-2
					c0-0.8-0.2-1.5-0.6-2c-0.4-0.6-1.1-0.9-1.8-0.9C70.5,19.5,69.9,19.8,69.5,20.4z"/>
				<path class="st1" d="M81.7,19.9c0.3-0.5,0.6-0.8,1-1c0.4-0.2,0.8-0.3,1.3-0.3c0.8,0,1.4,0.2,1.8,0.7c0.4,0.5,0.7,1.1,0.7,2V26
					h-1.1v-4.6c0-0.6-0.1-1.1-0.4-1.4c-0.3-0.3-0.7-0.5-1.3-0.5c-0.5,0-0.9,0.2-1.2,0.5c-0.3,0.4-0.5,0.8-0.5,1.4V26h-1.1v-4.6
					c0-1.3-0.6-1.9-1.7-1.9c-0.5,0-0.9,0.2-1.3,0.6c-0.3,0.4-0.5,0.9-0.5,1.5V26h-1.1v-7.2h1.1v1c0.5-0.8,1.2-1.2,2-1.2
					C80.5,18.6,81.3,19,81.7,19.9z"/>
				<path class="st1" d="M94.2,19.7c0.5,0.7,0.8,1.6,0.8,2.7c0,1.1-0.3,1.9-0.8,2.6c-0.6,0.8-1.4,1.1-2.4,1.1s-1.8-0.5-2.4-1.5v4.1
					h-1.1v-10h1.1v1.2c0.5-0.9,1.3-1.4,2.4-1.4C92.7,18.6,93.6,18.9,94.2,19.7z M89.9,20.3c-0.4,0.5-0.5,1.2-0.5,2v0.1
					c0,0.8,0.2,1.5,0.6,2c0.4,0.5,0.9,0.8,1.6,0.8c0.8,0,1.4-0.3,1.8-0.8c0.4-0.5,0.5-1.2,0.5-2.1c0-0.9-0.2-1.5-0.5-2
					c-0.4-0.6-1-0.9-1.8-0.9C90.8,19.5,90.3,19.8,89.9,20.3z"/>
				<path class="st1" d="M101.9,19.4c0.4,0.5,0.6,1.1,0.6,2V26h-1.1v-1.2c-0.3,0.4-0.7,0.7-1.1,1c-0.5,0.3-1.1,0.4-1.8,0.4
					c-0.7,0-1.3-0.2-1.7-0.5c-0.4-0.4-0.7-0.9-0.7-1.5c0-0.8,0.3-1.4,1-1.9c0.6-0.4,1.4-0.6,2.5-0.6l1.7,0v-0.4
					c0-1.2-0.6-1.8-1.9-1.8c-0.5,0-1,0.1-1.3,0.3c-0.4,0.2-0.6,0.6-0.7,1l-1.1-0.1c0.2-0.8,0.5-1.3,1.1-1.7c0.5-0.3,1.2-0.5,2.1-0.5
					C100.6,18.6,101.4,18.8,101.9,19.4z M99.7,22.6c-1.6,0-2.4,0.6-2.4,1.6c0,0.3,0.1,0.6,0.4,0.8c0.3,0.2,0.6,0.3,1.1,0.3
					c0.7,0,1.3-0.2,1.8-0.7c0.5-0.4,0.8-0.9,0.8-1.5v-0.6L99.7,22.6z"/>
				<path class="st1" d="M106.2,18.8h1.8v0.9h-1.8v4.6c0,0.3,0,0.5,0.2,0.6c0.1,0.1,0.3,0.2,0.5,0.2h0.9V26h-1.1
					c-0.6,0-1-0.2-1.3-0.5c-0.2-0.3-0.4-0.7-0.4-1.2v-4.6h-1.5v-0.9h1.5v-1.9l1.1-0.5V18.8z"/>
				<path class="st1" d="M110.8,16.3c0.2,0.1,0.3,0.3,0.3,0.6c0,0.2-0.1,0.4-0.3,0.6c-0.2,0.2-0.4,0.2-0.6,0.2s-0.4-0.1-0.6-0.2
					c-0.2-0.2-0.2-0.4-0.2-0.6c0-0.3,0.1-0.4,0.2-0.6c0.2-0.2,0.4-0.2,0.6-0.2S110.6,16.1,110.8,16.3z M110.7,18.8V26h-1.1v-7.2
					H110.7z"/>
				<path class="st1" d="M113.9,15.8v4.3c0.6-1,1.4-1.5,2.4-1.5c1,0,1.8,0.4,2.4,1.2c0.5,0.7,0.8,1.6,0.8,2.6c0,1.1-0.3,2-0.8,2.7
					c-0.6,0.8-1.4,1.1-2.5,1.1c-1.1,0-1.9-0.5-2.4-1.4V26h-1.1V15.8H113.9z M114.5,20.3c-0.4,0.5-0.6,1.2-0.6,2v0.1
					c0,0.8,0.2,1.5,0.5,2c0.4,0.6,1,0.8,1.7,0.8c0.8,0,1.4-0.3,1.8-0.9c0.3-0.5,0.5-1.2,0.5-2.1c0-0.9-0.2-1.5-0.5-2
					c-0.4-0.6-1-0.8-1.8-0.8C115.4,19.5,114.9,19.7,114.5,20.3z"/>
				<path class="st1" d="M122.4,15.8V26h-1.1V15.8H122.4z"/>
				<path class="st1" d="M129.9,19.7c0.5,0.7,0.8,1.7,0.8,3h-5.7c0.1,0.8,0.3,1.4,0.7,1.9c0.4,0.4,0.9,0.7,1.6,0.7
					c0.6,0,1.1-0.2,1.4-0.4c0.3-0.3,0.5-0.6,0.7-1.1h1.1c-0.2,0.7-0.5,1.3-1,1.7c-0.6,0.5-1.4,0.8-2.3,0.8c-1,0-1.9-0.4-2.5-1
					c-0.6-0.7-1-1.6-1-2.8c0-1.1,0.3-2,0.9-2.7c0.6-0.8,1.4-1.1,2.5-1.1C128.5,18.6,129.3,19,129.9,19.7z M125.8,20.1
					c-0.4,0.4-0.6,1-0.7,1.7h4.5c-0.1-1.6-0.9-2.3-2.3-2.3C126.7,19.5,126.2,19.7,125.8,20.1z"/>
				<path class="st1" d="M137.2,18.8l1.8,5.9l1.7-5.9h1l1.7,5.9l1.8-5.9h1.2l-2.5,7.2h-1.1l-1.7-5.8l-1.7,5.8h-1.1l-2.5-7.2H137.2z"
					/>
				<path class="st1" d="M148.8,16.3c0.2,0.1,0.3,0.3,0.3,0.6c0,0.2-0.1,0.4-0.3,0.6c-0.2,0.2-0.4,0.2-0.6,0.2s-0.4-0.1-0.6-0.2
					c-0.2-0.2-0.2-0.4-0.2-0.6c0-0.3,0.1-0.4,0.2-0.6c0.2-0.2,0.4-0.2,0.6-0.2S148.7,16.1,148.8,16.3z M148.8,18.8V26h-1.1v-7.2
					H148.8z"/>
				<path class="st1" d="M152.8,18.8h1.8v0.9h-1.8v4.6c0,0.3,0,0.5,0.2,0.6c0.1,0.1,0.3,0.2,0.5,0.2h0.9V26h-1.1
					c-0.6,0-1-0.2-1.3-0.5c-0.2-0.3-0.4-0.7-0.4-1.2v-4.6h-1.5v-0.9h1.5v-1.9l1.1-0.5V18.8z"/>
				<path class="st1" d="M157,15.8v4.1c0.3-0.5,0.6-0.8,1-1.1c0.4-0.2,0.8-0.3,1.3-0.3c0.8,0,1.5,0.2,1.9,0.7
					c0.4,0.5,0.7,1.2,0.7,2.1V26h-1.1v-4.4c0-0.7-0.2-1.2-0.5-1.6c-0.3-0.4-0.8-0.5-1.4-0.5c-0.6,0-1,0.2-1.4,0.7
					c-0.4,0.4-0.6,1-0.6,1.7V26h-1.1V15.8H157z"/>
				<path class="st1" d="M173.8,19.4c0.4,0.5,0.6,1.1,0.6,2V26h-1.1v-1.2c-0.3,0.4-0.7,0.7-1.1,1c-0.5,0.3-1.1,0.4-1.8,0.4
					c-0.7,0-1.3-0.2-1.7-0.5c-0.4-0.4-0.7-0.9-0.7-1.5c0-0.8,0.3-1.4,1-1.9c0.6-0.4,1.4-0.6,2.5-0.6l1.7,0v-0.4
					c0-1.2-0.6-1.8-1.9-1.8c-0.5,0-1,0.1-1.3,0.3c-0.4,0.2-0.6,0.6-0.7,1l-1.1-0.1c0.2-0.8,0.5-1.3,1.1-1.7c0.5-0.3,1.2-0.5,2.1-0.5
					C172.5,18.6,173.3,18.8,173.8,19.4z M171.6,22.6c-1.6,0-2.4,0.6-2.4,1.6c0,0.3,0.1,0.6,0.4,0.8c0.3,0.2,0.6,0.3,1.1,0.3
					c0.7,0,1.3-0.2,1.8-0.7c0.5-0.4,0.8-0.9,0.8-1.5v-0.6L171.6,22.6z"/>
				<path class="st1" d="M177.5,15.8V26h-1.1V15.8H177.5z"/>
				<path class="st1" d="M180.8,15.8V26h-1.1V15.8H180.8z"/>
				<path class="st1" d="M195.4,17.3c0.8,1,1.2,2.2,1.2,3.7c0,1.5-0.4,2.7-1.2,3.7c0,0-0.1,0.1-0.1,0.1c0.4,0.5,0.8,1,1.1,1.6
					l-0.8,0.7c-0.4-0.6-0.8-1.1-1.1-1.6c-0.8,0.5-1.7,0.8-2.7,0.8c-1.5,0-2.7-0.5-3.5-1.5c-0.8-1-1.2-2.2-1.2-3.7
					c0-1.5,0.4-2.7,1.2-3.7c0.9-1,2-1.5,3.6-1.5C193.4,15.8,194.6,16.3,195.4,17.3z M189.2,18c-0.6,0.8-0.9,1.8-0.9,3
					c0,1.2,0.3,2.2,0.9,3c0.6,0.8,1.6,1.2,2.7,1.2c0.8,0,1.5-0.2,2.1-0.6c-0.6-0.7-1.1-1.4-1.7-2L193,22c0.6,0.6,1.1,1.3,1.7,1.9
					c0.6-0.7,0.8-1.7,0.8-2.9c0-1.3-0.3-2.3-0.9-3c-0.6-0.8-1.5-1.1-2.7-1.1S189.8,17.2,189.2,18z"/>
				<path class="st1" d="M199.6,16.3c0.2,0.1,0.3,0.3,0.3,0.6c0,0.2-0.1,0.4-0.3,0.6c-0.2,0.2-0.4,0.2-0.6,0.2s-0.4-0.1-0.6-0.2
					c-0.2-0.2-0.2-0.4-0.2-0.6c0-0.3,0.1-0.4,0.2-0.6c0.2-0.2,0.4-0.2,0.6-0.2S199.5,16.1,199.6,16.3z M199.6,18.8V26h-1.1v-7.2
					H199.6z"/>
				<path class="st1" d="M212.8,15.8V26h-1.1v-1.2c-0.5,0.9-1.3,1.4-2.4,1.4c-1.1,0-1.9-0.4-2.5-1.1c-0.5-0.7-0.8-1.6-0.8-2.7
					c0-1.1,0.3-1.9,0.8-2.6c0.6-0.8,1.4-1.2,2.4-1.2s1.8,0.5,2.4,1.5v-4.3H212.8z M207.8,20.3c-0.4,0.5-0.5,1.2-0.5,2
					c0,0.9,0.2,1.6,0.5,2.1c0.4,0.6,1,0.9,1.8,0.9c0.7,0,1.3-0.3,1.7-0.8c0.4-0.5,0.5-1.2,0.5-2v-0.1c0-0.8-0.2-1.5-0.6-2
					c-0.4-0.5-0.9-0.8-1.6-0.8C208.8,19.5,208.2,19.8,207.8,20.3z"/>
				<path class="st1" d="M220.2,19.7c0.5,0.7,0.8,1.7,0.8,3h-5.7c0.1,0.8,0.3,1.4,0.7,1.9c0.4,0.4,0.9,0.7,1.6,0.7
					c0.6,0,1.1-0.2,1.4-0.4c0.3-0.3,0.5-0.6,0.7-1.1h1.1c-0.2,0.7-0.5,1.3-1,1.7c-0.6,0.5-1.4,0.8-2.3,0.8c-1,0-1.9-0.4-2.5-1
					c-0.6-0.7-1-1.6-1-2.8c0-1.1,0.3-2,0.9-2.7c0.6-0.8,1.4-1.1,2.5-1.1C218.7,18.6,219.6,19,220.2,19.7z M216,20.1
					c-0.4,0.4-0.6,1-0.7,1.7h4.5c-0.1-1.6-0.9-2.3-2.3-2.3C216.9,19.5,216.4,19.7,216,20.1z"/>
				<path class="st1" d="M222.8,18.8l2.1,5.8l2.1-5.8h1.2l-2.7,7.2h-1.1l-2.7-7.2H222.8z"/>
				<path class="st1" d="M230.6,16.3c0.2,0.1,0.3,0.3,0.3,0.6c0,0.2-0.1,0.4-0.3,0.6c-0.2,0.2-0.4,0.2-0.6,0.2s-0.4-0.1-0.6-0.2
					c-0.2-0.2-0.2-0.4-0.2-0.6c0-0.3,0.1-0.4,0.2-0.6c0.2-0.2,0.4-0.2,0.6-0.2S230.4,16.1,230.6,16.3z M230.6,18.8V26h-1.1v-7.2
					H230.6z"/>
				<path class="st1" d="M238,19.2c0.6,0.4,0.9,1.1,1,2h-1.1c-0.1-0.6-0.3-1-0.7-1.3c-0.4-0.3-0.8-0.4-1.4-0.4
					c-0.7,0-1.3,0.3-1.7,0.8c-0.4,0.5-0.6,1.2-0.6,2.1c0,0.9,0.2,1.6,0.6,2.1c0.4,0.5,0.9,0.8,1.7,0.8c1.2,0,1.9-0.6,2.1-1.9h1.1
					c-0.2,0.9-0.5,1.6-1.1,2.1c-0.5,0.5-1.3,0.7-2.2,0.7c-1.1,0-1.9-0.4-2.5-1.1c-0.6-0.7-0.9-1.6-0.9-2.7s0.3-2,0.9-2.7
					c0.6-0.8,1.5-1.1,2.5-1.1C236.7,18.6,237.4,18.8,238,19.2z"/>
				<path class="st1" d="M245.9,19.7c0.5,0.7,0.8,1.7,0.8,3h-5.7c0.1,0.8,0.3,1.4,0.7,1.9c0.4,0.4,0.9,0.7,1.6,0.7
					c0.6,0,1.1-0.2,1.4-0.4c0.3-0.3,0.5-0.6,0.7-1.1h1.1c-0.2,0.7-0.5,1.3-1,1.7c-0.6,0.5-1.4,0.8-2.3,0.8c-1,0-1.9-0.4-2.5-1
					c-0.6-0.7-1-1.6-1-2.8c0-1.1,0.3-2,0.9-2.7c0.6-0.8,1.4-1.1,2.5-1.1C244.5,18.6,245.4,19,245.9,19.7z M241.8,20.1
					c-0.4,0.4-0.6,1-0.7,1.7h4.5c-0.1-1.6-0.9-2.3-2.3-2.3C242.7,19.5,242.2,19.7,241.8,20.1z"/>
				<path class="st1" d="M253.6,20.8h-1.1c-0.1-0.4-0.3-0.8-0.6-1c-0.3-0.2-0.8-0.3-1.3-0.3c-0.5,0-0.9,0.1-1.2,0.3
					c-0.3,0.2-0.5,0.4-0.5,0.8c0,0.3,0.2,0.6,0.6,0.8c0.3,0.1,0.8,0.3,1.5,0.5c0.9,0.2,1.5,0.4,1.9,0.7c0.6,0.4,0.9,0.9,0.9,1.5
					c0,1.5-1,2.2-3.1,2.2c-1.9,0-2.9-0.8-3.1-2.5h1.1c0.1,0.6,0.3,1,0.6,1.2c0.3,0.2,0.8,0.3,1.4,0.3c1.3,0,1.9-0.4,1.9-1.2
					c0-0.4-0.2-0.7-0.7-0.9c-0.2-0.1-0.8-0.3-1.5-0.5c-0.9-0.2-1.5-0.4-1.8-0.6c-0.6-0.3-0.8-0.8-0.8-1.4s0.3-1.1,0.8-1.5
					c0.5-0.4,1.2-0.5,2-0.5C252.5,18.6,253.4,19.3,253.6,20.8z"/>
			</g>
			<g id="icon_x2F_blue_x2F_-g-icon_x5F_product_x5F_compatibility">
				<g id="Oval-7-Copy-17">
					<path class="st1" d="M21,41C10,41,1,32,1,21C1,10,10,1,21,1s20,9,20,20C41,32,32,41,21,41z M21,2C10.5,2,2,10.5,2,21
						s8.5,19,19,19s19-8.5,19-19S31.5,2,21,2z"/>
				</g>
				<g id="Group-2" transform="translate(3.000000, 3.000000)">
					<g id="Oval-7-Copy-17_1_">
					</g>
					<defs>
						<filter id="Adobe_OpacityMaskFilter" filterUnits="userSpaceOnUse" x="-5" y="6" width="46" height="24">
							<feColorMatrix  type="matrix" values="1 0 0 0 0  0 1 0 0 0  0 0 1 0 0  0 0 0 1 0"/>
						</filter>
					</defs>
					<mask maskUnits="userSpaceOnUse" x="-5" y="6" width="46" height="24" id="mask-2_1_">
						<g class="st2">
							<circle id="path-1_1_" class="st3" cx="18" cy="18" r="18"/>
						</g>
					</mask>
					<g id="Group" class="st4">
						<g transform="translate(-5.000000, 6.000000)">
							<g id="Rectangle">
								<path class="st1" d="M27.5,24h-9c-1.4,0-2.5-1.1-2.5-2.5v-19C16,1.1,17.1,0,18.5,0h9C28.9,0,30,1.1,30,2.5v19
									C30,22.9,28.9,24,27.5,24z M18.5,1C17.7,1,17,1.7,17,2.5v19c0,0.8,0.7,1.5,1.5,1.5h9c0.8,0,1.5-0.7,1.5-1.5v-19
									C29,1.7,28.3,1,27.5,1H18.5z"/>
							</g>
							<g id="Combined-Shape">
								<path class="st1" d="M27,22.5h-8c-0.8,0-1.5-0.7-1.5-1.5V3c0-0.8,0.7-1.5,1.5-1.5h1c0.3,0,0.5,0.2,0.5,0.5
									c0,0.3,0.2,0.5,0.5,0.5h4c0.3,0,0.5-0.2,0.5-0.5c0-0.3,0.2-0.5,0.5-0.5h1c0.8,0,1.5,0.7,1.5,1.5v18
									C28.5,21.8,27.8,22.5,27,22.5z M19,2.5c-0.3,0-0.5,0.2-0.5,0.5v18c0,0.3,0.2,0.5,0.5,0.5h8c0.3,0,0.5-0.2,0.5-0.5V3
									c0-0.3-0.2-0.5-0.5-0.5h-0.6c-0.2,0.6-0.8,1-1.4,1h-4c-0.7,0-1.2-0.4-1.4-1H19z"/>
							</g>
							<g id="Rectangle-Copy">
								<path class="st1" d="M43.5,24h-9c-1.4,0-2.5-1.1-2.5-2.5v-19C32,1.1,33.1,0,34.5,0h9C44.9,0,46,1.1,46,2.5v19
									C46,22.9,44.9,24,43.5,24z M34.5,1C33.7,1,33,1.7,33,2.5v19c0,0.8,0.7,1.5,1.5,1.5h9c0.8,0,1.5-0.7,1.5-1.5v-19
									C45,1.7,44.3,1,43.5,1H34.5z"/>
							</g>
							<g id="Rectangle-Copy_1_">
								<path class="st1" d="M43.5,22h-9c-1.4,0-2.5-1.1-2.5-2.5v-15C32,3.1,33.1,2,34.5,2h9C44.9,2,46,3.1,46,4.5v15
									C46,20.9,44.9,22,43.5,22z M34.5,3C33.7,3,33,3.7,33,4.5v15c0,0.8,0.7,1.5,1.5,1.5h9c0.8,0,1.5-0.7,1.5-1.5v-15
									C45,3.7,44.3,3,43.5,3H34.5z"/>
							</g>
							<g id="Rectangle-Copy-2">
								<path class="st1" d="M11.5,24h-9C1.1,24,0,22.9,0,21.5v-19C0,1.1,1.1,0,2.5,0h9C12.9,0,14,1.1,14,2.5v19
									C14,22.9,12.9,24,11.5,24z M2.5,1C1.7,1,1,1.7,1,2.5v19C1,22.3,1.7,23,2.5,23h9c0.8,0,1.5-0.7,1.5-1.5v-19
									C13,1.7,12.3,1,11.5,1H2.5z"/>
							</g>
							<g id="Rectangle-Copy-2_1_">
								<path class="st1" d="M10.5,22h-7C2.7,22,2,21.3,2,20.5v-17C2,2.7,2.7,2,3.5,2h7C11.3,2,12,2.7,12,3.5v17
									C12,21.3,11.3,22,10.5,22z M3.5,3C3.2,3,3,3.2,3,3.5v17C3,20.8,3.2,21,3.5,21h7c0.3,0,0.5-0.2,0.5-0.5v-17
									C11,3.2,10.8,3,10.5,3H3.5z"/>
							</g>
						</g>
					</g>
				</g>
			</g>
		</g>
	</g>
</g>
</svg>
